<svg xmlns="http://www.w3.org/2000/svg" width="609.508" height="161.222" viewBox="0 0 609.508 161.222"><g transform="translate(-110 -180.57)"><path d="M-869.462,1797.585c.162,1.456,8.306,1.721,8.306,1.721s.407,8.21,1.864,8.513,4.971-8.043,4.971-8.043,6.574,2.369,7.527.981-3.274-7.137-3.274-7.137,4.025-6.758,2.783-8.088-8.321,3.318-8.321,3.318-5.963-4.662-7.294-3.7.667,7.553.667,7.553S-869.625,1796.129-869.462,1797.585Z" transform="translate(979.465 -1489.492)" fill="#e7dff2"/><path d="M-869.462,1797.585c.162,1.456,8.306,1.721,8.306,1.721s.407,8.21,1.864,8.513,4.971-8.043,4.971-8.043,6.574,2.369,7.527.981-3.274-7.137-3.274-7.137,4.025-6.758,2.783-8.088-8.321,3.318-8.321,3.318-5.963-4.662-7.294-3.7.667,7.553.667,7.553S-869.625,1796.129-869.462,1797.585Z" transform="translate(1566.163 -1553.934)" fill="#e7dff2"/><path d="M-235.98-26.266a2.356,2.356,0,0,0,2.346-2.346,2.356,2.356,0,0,0-2.346-2.346h-19.412a2.356,2.356,0,0,0-2.346,2.346,2.356,2.356,0,0,0,2.346,2.346h7.038V-2.3A2.67,2.67,0,0,0-245.686.368,2.67,2.67,0,0,0-243.018-2.3V-26.266ZM-215.1-10.442c0-7.544-3.864-11.086-10.074-11.086s-10.074,3.542-10.074,11.086c0,7.5,3.864,11.04,10.074,11.04S-215.1-2.944-215.1-10.442Zm-5.014,0c0,4.508-1.748,6.808-5.06,6.808s-5.06-2.3-5.06-6.808c0-4.554,1.748-6.854,5.06-6.854S-220.11-15-220.11-10.442Zm16.882-6.67c2.668,0,4.186,1.38,4.186,3.45v.828h-6.026c-4,0-7.452,2.208-7.452,6.486,0,4.14,2.99,6.946,7.5,6.946,2.76,0,4.784-.69,6.026-2.668A2.454,2.454,0,0,0-196.558.368,2.454,2.454,0,0,0-194.12-2.07V-13.846c0-4.876-3.4-7.682-9.108-7.682-3.956,0-6.256,1.518-7.544,2.944a2.277,2.277,0,0,0-.6,1.518,2.159,2.159,0,0,0,2.162,2.162,2.171,2.171,0,0,0,1.38-.46A7.6,7.6,0,0,1-203.228-17.112Zm-.506,13.57c-2.576,0-3.818-1.058-3.818-2.806,0-1.656,1.1-2.622,3.128-2.622h5.382v1.288C-199.042-5.106-201.3-3.542-203.734-3.542Zm16.7-29.21a2.474,2.474,0,0,0-2.484,2.484V-5.52c0,3.864,2.254,5.888,5.842,5.888a2.278,2.278,0,0,0,2.3-2.3,2.278,2.278,0,0,0-2.3-2.3.888.888,0,0,1-.874-.828V-30.268A2.474,2.474,0,0,0-187.036-32.752Zm11.178,0a2.474,2.474,0,0,0-2.484,2.484V-5.52c0,3.864,2.254,5.888,5.842,5.888a2.278,2.278,0,0,0,2.3-2.3,2.278,2.278,0,0,0-2.3-2.3.888.888,0,0,1-.874-.828V-30.268A2.474,2.474,0,0,0-175.858-32.752ZM-162.2-18.768a2.474,2.474,0,0,0-2.484-2.484,2.474,2.474,0,0,0-2.484,2.484V-2.116A2.474,2.474,0,0,0-164.68.368,2.474,2.474,0,0,0-162.2-2.116Zm-2.484-4.968a2.688,2.688,0,0,0,2.99-2.9c0-2.116-1.058-3.036-2.99-3.036-1.886,0-2.944.92-2.944,3.036A2.674,2.674,0,0,0-164.68-23.736Zm8.694,2.852h-1.058a2.061,2.061,0,0,0-2.07,2.07,2.061,2.061,0,0,0,2.07,2.07h1.058V-5.888c0,3.634,2.53,6.256,6.624,6.256A2.159,2.159,0,0,0-147.2-1.794a2.159,2.159,0,0,0-2.162-2.162,1.694,1.694,0,0,1-1.748-1.656V-16.744h2.07a2.061,2.061,0,0,0,2.07-2.07,2.061,2.061,0,0,0-2.07-2.07h-2.07v-3.864a2.454,2.454,0,0,0-2.438-2.438,2.454,2.454,0,0,0-2.438,2.438Zm20.7,3.772c2.668,0,4.186,1.38,4.186,3.45v.828h-6.026c-4,0-7.452,2.208-7.452,6.486,0,4.14,2.99,6.946,7.5,6.946,2.76,0,4.784-.69,6.026-2.668A2.454,2.454,0,0,0-128.616.368a2.454,2.454,0,0,0,2.438-2.438V-13.846c0-4.876-3.4-7.682-9.108-7.682-3.956,0-6.256,1.518-7.544,2.944a2.277,2.277,0,0,0-.6,1.518,2.159,2.159,0,0,0,2.162,2.162,2.171,2.171,0,0,0,1.38-.46A7.6,7.6,0,0,1-135.286-17.112Zm-.506,13.57c-2.576,0-3.818-1.058-3.818-2.806,0-1.656,1.1-2.622,3.128-2.622h5.382v1.288C-131.1-5.106-133.354-3.542-135.792-3.542ZM-114.4-17.2a6.65,6.65,0,0,1,4.14,1.472,2.5,2.5,0,0,0,1.564.644A2.239,2.239,0,0,0-106.49-17.3a1.985,1.985,0,0,0-.46-1.38c-1.288-1.61-4.186-2.852-7.452-2.852-4.232,0-7.682,2.024-7.682,6.164,0,7.82,11.27,5.888,11.27,9.614,0,1.288-1.334,1.84-3.4,1.84a7.569,7.569,0,0,1-5.06-1.886,2.161,2.161,0,0,0-1.426-.552,2.239,2.239,0,0,0-2.208,2.208,2.14,2.14,0,0,0,.552,1.426c1.15,1.426,4.186,3.22,8.142,3.22,4.738,0,8.418-2.208,8.418-6.532,0-7.59-11.316-6.026-11.316-9.43C-117.116-16.606-116.1-17.2-114.4-17.2Zm46.828-11.454a2.67,2.67,0,0,0-2.668-2.668,2.67,2.67,0,0,0-2.668,2.668v10.4H-86.066v-10.4a2.67,2.67,0,0,0-2.668-2.668A2.67,2.67,0,0,0-91.4-28.658V-2.3A2.67,2.67,0,0,0-88.734.368,2.67,2.67,0,0,0-86.066-2.3V-13.386H-72.91V-2.3A2.67,2.67,0,0,0-70.242.368,2.67,2.67,0,0,0-67.574-2.3Zm7.314,7.406a2.474,2.474,0,0,0-2.484,2.484V-8.05c0,4.508,1.7,8.648,9.108,8.648,7.36,0,9.062-4.14,9.062-8.648V-18.768a2.474,2.474,0,0,0-2.484-2.484,2.474,2.474,0,0,0-2.484,2.484V-8.05c0,2.116-.736,4.14-4.094,4.14-3.4,0-4.14-2.024-4.14-4.14V-18.768A2.474,2.474,0,0,0-60.26-21.252Zm4.554-2.392a1.431,1.431,0,0,0,2.116,0l4.508-4.14a1.791,1.791,0,0,0-.184-2.76c-.92-.92-2.116-.966-2.76-.138l-3.91,4.968A1.407,1.407,0,0,0-55.706-23.644Zm39.744,2.116c-3.128,0-5.106,1.012-6.578,2.99-1.15-1.794-3.036-2.99-6.808-2.99a6.815,6.815,0,0,0-5.888,2.76,2.474,2.474,0,0,0-2.484-2.484A2.474,2.474,0,0,0-40.2-18.768V-2.024A2.37,2.37,0,0,0-37.72.368a2.37,2.37,0,0,0,2.484-2.392V-12.282c0-2.714,1.15-4.738,4.6-4.738,2.99,0,4.048,1.794,4.048,4.416v10.58A2.344,2.344,0,0,0-24.1.368,2.4,2.4,0,0,0-21.62-2.024V-12.65c0-2.576,1.288-4.37,4.6-4.37,2.99,0,4.048,1.794,4.048,4.416v10.58A2.344,2.344,0,0,0-10.488.368,2.4,2.4,0,0,0-8-2.024v-11.5C-8-17.526-9.706-21.528-15.962-21.528ZM-4.554-10.534C-4.554-2.852-.6.6,5.8.6A10.828,10.828,0,0,0,13.2-1.932a2.3,2.3,0,0,0,.782-1.7A2.159,2.159,0,0,0,11.822-5.8a2.477,2.477,0,0,0-1.472.506A7.871,7.871,0,0,1,5.8-3.864C2.76-3.864.414-5.382.414-8.694H11.776c2.806,0,2.806-1.978,2.806-3.68,0-3.174-1.426-9.154-9.2-9.154C-.874-21.528-4.554-17.572-4.554-10.534ZM5.382-17.3c2.99,0,4.278,2.208,4.278,4.462H.552A4.49,4.49,0,0,1,5.382-17.3ZM31.464-8.6c0,3.174-1.886,4.968-4.554,4.968-3.174,0-4.922-2.3-4.922-6.808,0-4.554,1.794-6.854,4.922-6.854a6.332,6.332,0,0,1,4.554,2.346ZM26.4-21.528c-5.8,0-9.338,3.588-9.338,11.086S20.7.6,26.91.6c5.566,0,9.522-3.082,9.522-9.2V-30.268a2.474,2.474,0,0,0-2.484-2.484,2.474,2.474,0,0,0-2.484,2.484v10.58A7.543,7.543,0,0,0,26.4-21.528Zm22.632,4.416c2.668,0,4.186,1.38,4.186,3.45v.828H47.2c-4,0-7.452,2.208-7.452,6.486,0,4.14,2.99,6.946,7.5,6.946,2.76,0,4.784-.69,6.026-2.668A2.454,2.454,0,0,0,55.706.368,2.454,2.454,0,0,0,58.144-2.07V-13.846c0-4.876-3.4-7.682-9.108-7.682-3.956,0-6.256,1.518-7.544,2.944a2.277,2.277,0,0,0-.6,1.518A2.159,2.159,0,0,0,43.056-14.9a2.171,2.171,0,0,0,1.38-.46A7.6,7.6,0,0,1,49.036-17.112ZM48.53-3.542c-2.576,0-3.818-1.058-3.818-2.806,0-1.656,1.1-2.622,3.128-2.622h5.382v1.288C53.222-5.106,50.968-3.542,48.53-3.542ZM69.92-17.2a6.65,6.65,0,0,1,4.14,1.472,2.5,2.5,0,0,0,1.564.644A2.239,2.239,0,0,0,77.832-17.3a1.985,1.985,0,0,0-.46-1.38c-1.288-1.61-4.186-2.852-7.452-2.852-4.232,0-7.682,2.024-7.682,6.164,0,7.82,11.27,5.888,11.27,9.614,0,1.288-1.334,1.84-3.4,1.84A7.569,7.569,0,0,1,65.044-5.8a2.161,2.161,0,0,0-1.426-.552A2.239,2.239,0,0,0,61.41-4.14a2.14,2.14,0,0,0,.552,1.426C63.112-1.288,66.148.506,70.1.506c4.738,0,8.418-2.208,8.418-6.532,0-7.59-11.316-6.026-11.316-9.43C67.206-16.606,68.218-17.2,69.92-17.2Zm34.454,5.152c5.474,0,9.66-3.128,9.66-9.476,0-6.44-4.278-9.43-9.66-9.43H95.588A2.67,2.67,0,0,0,92.92-28.29V-2.3A2.67,2.67,0,0,0,95.588.368,2.67,2.67,0,0,0,98.256-2.3v-9.752Zm-.414-14.122c2.806,0,4.554,1.61,4.554,4.646,0,2.99-1.7,4.692-4.554,4.692h-5.7v-9.338Zm12.052,15.64C116.012-2.852,119.968.6,126.362.6a10.828,10.828,0,0,0,7.406-2.53,2.3,2.3,0,0,0,.782-1.7A2.159,2.159,0,0,0,132.388-5.8a2.478,2.478,0,0,0-1.472.506,7.871,7.871,0,0,1-4.554,1.426c-3.036,0-5.382-1.518-5.382-4.83h11.362c2.806,0,2.806-1.978,2.806-3.68,0-3.174-1.426-9.154-9.2-9.154C119.692-21.528,116.012-17.572,116.012-10.534Zm9.936-6.762c2.99,0,4.278,2.208,4.278,4.462h-9.108A4.49,4.49,0,0,1,125.948-17.3ZM152.076-5.98a6.332,6.332,0,0,1-4.554,2.346c-3.128,0-4.922-2.3-4.922-6.854,0-4.508,1.748-6.808,4.922-6.808,2.668,0,4.554,1.794,4.554,4.968ZM147.016.6a7.543,7.543,0,0,0,5.06-1.84v8a2.484,2.484,0,0,0,4.968,0v-19.09c0-6.118-3.956-9.2-9.522-9.2-6.21,0-9.844,3.542-9.844,11.04S141.22.6,147.016.6Zm16.56-21.85a2.474,2.474,0,0,0-2.484,2.484V-8.05c0,4.508,1.7,8.648,9.108,8.648,7.36,0,9.062-4.14,9.062-8.648V-18.768a2.474,2.474,0,0,0-2.484-2.484,2.474,2.474,0,0,0-2.484,2.484V-8.05c0,2.116-.736,4.14-4.094,4.14-3.4,0-4.14-2.024-4.14-4.14V-18.768A2.474,2.474,0,0,0,163.576-21.252Zm19.136,10.718C182.712-2.852,186.668.6,193.062.6a10.828,10.828,0,0,0,7.406-2.53,2.3,2.3,0,0,0,.782-1.7A2.159,2.159,0,0,0,199.088-5.8a2.478,2.478,0,0,0-1.472.506,7.871,7.871,0,0,1-4.554,1.426c-3.036,0-5.382-1.518-5.382-4.83h11.362c2.806,0,2.806-1.978,2.806-3.68,0-3.174-1.426-9.154-9.2-9.154C186.392-21.528,182.712-17.572,182.712-10.534Zm9.936-6.762c2.99,0,4.278,2.208,4.278,4.462h-9.108A4.49,4.49,0,0,1,192.648-17.3Zm23.506-4.232a6.815,6.815,0,0,0-5.888,2.76,2.474,2.474,0,0,0-2.484-2.484,2.474,2.474,0,0,0-2.484,2.484V-2.024A2.37,2.37,0,0,0,207.782.368a2.37,2.37,0,0,0,2.484-2.392V-12.282c0-2.714,1.15-4.738,4.6-4.738,2.99,0,4.048,1.794,4.048,4.416v10.58A2.344,2.344,0,0,0,221.4.368a2.4,2.4,0,0,0,2.484-2.392v-11.5C223.882-17.526,222.41-21.528,216.154-21.528Zm1.472-6.026c-1.7,0-3.358-1.564-5.934-1.564a4.158,4.158,0,0,0-3.956,2.392,2.083,2.083,0,0,0-.138.736,1.768,1.768,0,0,0,1.794,1.794,1.85,1.85,0,0,0,1.518-.782,1.394,1.394,0,0,1,1.2-.736c1.518,0,3.358,1.564,5.934,1.564A4.158,4.158,0,0,0,222-26.542a2.084,2.084,0,0,0,.138-.736,1.768,1.768,0,0,0-1.794-1.794,1.849,1.849,0,0,0-1.518.782A1.394,1.394,0,0,1,217.626-27.554Zm15.824,8.786a2.474,2.474,0,0,0-2.484-2.484,2.474,2.474,0,0,0-2.484,2.484V-2.116A2.474,2.474,0,0,0,230.966.368a2.474,2.474,0,0,0,2.484-2.484Zm-5.014-4.876a1.431,1.431,0,0,0,2.116,0l4.508-4.14a1.791,1.791,0,0,0-.184-2.76c-.92-.92-2.116-.966-2.76-.138l-3.91,4.968A1.407,1.407,0,0,0,228.436-23.644Zm20.47,2.116a6.815,6.815,0,0,0-5.888,2.76,2.474,2.474,0,0,0-2.484-2.484,2.474,2.474,0,0,0-2.484,2.484V-2.024A2.37,2.37,0,0,0,240.534.368a2.37,2.37,0,0,0,2.484-2.392V-12.282c0-2.714,1.15-4.738,4.6-4.738,2.99,0,4.048,1.794,4.048,4.416v10.58A2.344,2.344,0,0,0,254.15.368a2.4,2.4,0,0,0,2.484-2.392v-11.5C256.634-17.526,255.162-21.528,248.906-21.528Z" transform="matrix(0.999, -0.052, 0.052, 0.999, 429.236, 226.708)" fill="#562e91"/><g transform="translate(5588.185 11329.207)"><path d="M260.708,392.092l-6.27,14.9a6.059,6.059,0,0,1-5.55,3.906,5.923,5.923,0,0,1-5.858-5.858,5.7,5.7,0,0,1,.411-2.158l24.255-59.1a5.86,5.86,0,0,1,10.894,0l24.256,59.1a5.7,5.7,0,0,1,.41,2.158A5.922,5.922,0,0,1,297.4,410.9a6.06,6.06,0,0,1-5.551-3.906l-6.269-14.9Zm12.436-32.478L264.716,381.2h16.856Z" transform="translate(-5654.214 -11403.814)" fill="#562e91"/><path d="M323.351,329.2V385.52a1.985,1.985,0,0,0,1.953,1.85,5.139,5.139,0,0,1,0,10.277c-8.017,0-13.054-4.523-13.054-13.156V329.2a5.55,5.55,0,1,1,11.1,0Z" transform="translate(-5659.311 -11402.604)" fill="#562e91"/><path d="M352.837,399.411c-13.466-3.341-19.94-13.1-15.9-29.362,4.059-16.36,14.344-21.962,27.811-18.62s19.94,13.1,15.881,29.461C376.589,397.151,366.3,402.753,352.837,399.411Zm9.629-38.8c-7.182-1.782-12.211,2.265-14.661,12.14-2.426,9.776.127,15.7,7.309,17.486s12.211-2.265,14.637-12.041C372.2,368.317,369.648,362.389,362.465,360.607Z" transform="translate(-5661.04 -11404.581)" fill="#562e91"/><path d="M411.661,365.718c17.37,0,20.555,13.361,20.555,20.453,0,3.8,0,8.223-6.27,8.223H400.56c0,7.4,5.242,10.791,12.025,10.791A17.588,17.588,0,0,0,422.761,402a5.533,5.533,0,0,1,3.289-1.131,4.825,4.825,0,0,1,4.831,4.831,5.137,5.137,0,0,1-1.747,3.8c-1.748,1.644-7.194,5.653-16.548,5.653-14.287,0-23.125-7.708-23.125-24.872C389.46,374.557,397.682,365.718,411.661,365.718Zm-10.792,19.425h20.351c0-5.037-2.878-9.97-9.558-9.97C405.7,375.174,401.383,378.565,400.868,385.143Z" transform="translate(-5664.995 -11405.701)" fill="#562e91"/><g transform="translate(-5200.868 -11072.006)"><path d="M235.285,430.944v59.1A5.847,5.847,0,0,1,224.6,493.33l-30.32-43.783v40.495a5.858,5.858,0,0,1-11.717,0v-59.1a5.923,5.923,0,0,1,5.858-5.858,5.487,5.487,0,0,1,4.728,2.467l30.422,44.092v-40.7a5.858,5.858,0,0,1,11.717,0Z" transform="translate(-182.559 -421.899)" fill="#562e91"/><path d="M260.423,447.3a4.908,4.908,0,0,1-7.369-4.772,5.085,5.085,0,0,1,1.755-3.2c3.256-2.8,8.783-5.512,17.552-4.395,12.641,1.61,19.394,8.79,18.017,19.6l-3.325,26.1a5.447,5.447,0,1,1-10.807-1.377c-3.312,4.033-7.992,4.991-14.11,4.211-9.991-1.273-15.826-8.336-14.657-17.512,1.208-9.481,9.478-13.4,18.348-12.271l13.357,1.7.233-1.835c.585-4.587-2.39-8.075-8.3-8.828C266.626,444.155,263.206,445.792,260.423,447.3Zm17.3,19.507.364-2.854-11.929-1.519c-4.486-.572-7.205,1.257-7.673,4.928-.494,3.874,1.961,6.57,7.67,7.3C271.563,475.349,277,472.519,277.727,466.809Z" transform="translate(-187.328 -422.606)" fill="#562e91"/><path d="M306.81,440.518a5.447,5.447,0,0,1,10.894,0v8.634h4.624a4.625,4.625,0,0,1,0,9.25H317.7v24.872a3.785,3.785,0,0,0,3.906,3.7,4.831,4.831,0,0,1,0,9.661c-9.147,0-14.8-5.858-14.8-13.978V458.4h-2.364a4.625,4.625,0,1,1,0-9.25h2.364Z" transform="translate(-191.192 -422.634)" fill="#562e91"/><path d="M343.541,438.672l4.231,23.571c.836,4.653,3.253,8.814,10.739,7.47,7.386-1.326,8.206-6.068,7.37-10.721l-4.231-23.571a5.55,5.55,0,1,1,10.925-1.961l4.231,23.571c1.78,9.914-.329,19.69-16.515,22.6C344,482.55,338.626,474.118,336.847,464.2l-4.231-23.571a5.55,5.55,0,1,1,10.925-1.961Z" transform="translate(-193.6 -422.179)" fill="#562e91"/><path d="M401.335,447.406c1.952-4.008,6.783-6.577,11.1-6.577a5.241,5.241,0,1,1,0,10.483c-7.091,0-11.1,4.523-11.1,11.408V484.1a5.55,5.55,0,0,1-11.1,0V446.893a5.55,5.55,0,1,1,11.1,0Z" transform="translate(-197.849 -423.058)" fill="#562e91"/><path d="M433,452.49a4.908,4.908,0,0,1-7.914-3.8,5.087,5.087,0,0,1,1.336-3.391c2.878-3.186,8.017-6.577,16.856-6.577,12.744,0,20.35,6.269,20.35,17.164v26.311a5.447,5.447,0,0,1-10.894,0c-2.774,4.42-7.3,5.961-13.464,5.961-10.072,0-16.753-6.27-16.753-15.52,0-9.558,7.707-14.491,16.649-14.491h13.465v-1.851c0-4.624-3.392-7.708-9.353-7.708C438.757,448.585,435.57,450.64,433,452.49Zm19.631,17.164v-2.877H440.606c-4.523,0-6.989,2.158-6.989,5.858,0,3.906,2.775,6.27,8.531,6.27C447.6,478.9,452.632,475.41,452.632,469.653Z" transform="translate(-200.225 -422.903)" fill="#562e91"/><path d="M490.087,427.2V483.52a1.985,1.985,0,0,0,1.952,1.85,5.139,5.139,0,1,1,0,10.277c-8.016,0-13.053-4.523-13.053-13.155V427.2a5.55,5.55,0,1,1,11.1,0Z" transform="translate(-204.383 -421.646)" fill="#562e91"/></g><path d="M19.627,5.792A17.321,17.321,0,0,1,11.5,11.756a17.011,17.011,0,0,1-9.836.695A2.209,2.209,0,0,1,1.526,8.21l.148-.048A32.578,32.578,0,0,0,8.514,5.18a38.88,38.88,0,0,0,5.612-4.171L14.257.9a3.658,3.658,0,0,1,5.371,4.894Z" transform="translate(-5307.105 -11009.276) rotate(33)" fill="#562e91"/><path d="M19.627,5.792A17.321,17.321,0,0,1,11.5,11.756a17.011,17.011,0,0,1-9.836.695A2.209,2.209,0,0,1,1.526,8.21l.148-.048A32.578,32.578,0,0,0,8.514,5.18a38.88,38.88,0,0,0,5.612-4.171L14.257.9a3.658,3.658,0,0,1,5.371,4.894Z" transform="matrix(0.616, 0.788, -0.788, 0.616, -5134.067, -11019.451)" fill="#562e91"/><path d="M19.627,7.082A17.322,17.322,0,0,0,11.5,1.118,17.01,17.01,0,0,0,1.664.423a2.209,2.209,0,0,0-.138,4.241l.148.048A32.584,32.584,0,0,1,8.514,7.694a38.877,38.877,0,0,1,5.612,4.171l.131.112a3.658,3.658,0,0,0,5.371-4.894Z" transform="matrix(-0.799, 0.602, -0.602, -0.799, -4946.339, -11002.772)" fill="#562e91"/></g></g></svg>