<svg xmlns="http://www.w3.org/2000/svg" width="571.739" height="165.458" viewBox="0 0 571.739 165.458"><g transform="translate(-110 -225.844)"><path d="M-869.462,1797.585c.162,1.456,8.306,1.721,8.306,1.721s.407,8.21,1.864,8.513,4.971-8.043,4.971-8.043,6.574,2.369,7.527.981-3.274-7.137-3.274-7.137,4.025-6.758,2.783-8.088-8.321,3.318-8.321,3.318-5.963-4.662-7.294-3.7.667,7.553.667,7.553S-869.625,1796.129-869.462,1797.585Z" transform="translate(1425.393 -1504.486)" fill="#e7dff2"/><path d="M-869.462,1797.585c.162,1.456,8.306,1.721,8.306,1.721s.407,8.21,1.864,8.513,4.971-8.043,4.971-8.043,6.574,2.369,7.527.981-3.274-7.137-3.274-7.137,4.025-6.758,2.783-8.088-8.321,3.318-8.321,3.318-5.963-4.662-7.294-3.7.667,7.553.667,7.553S-869.625,1796.129-869.462,1797.585Z" transform="translate(979.465 -1489.492)" fill="#e7dff2"/><path d="M-869.462,1797.585c.162,1.456,8.306,1.721,8.306,1.721s.407,8.21,1.864,8.513,4.971-8.043,4.971-8.043,6.574,2.369,7.527.981-3.274-7.137-3.274-7.137,4.025-6.758,2.783-8.088-8.321,3.318-8.321,3.318-5.963-4.662-7.294-3.7.667,7.553.667,7.553S-869.625,1796.129-869.462,1797.585Z" transform="translate(1223.119 -1416.525)" fill="#e7dff2"/><g transform="translate(5787.007 10889.617)"><g transform="translate(-5645.223 -10599.179)"><g transform="translate(0 0)"><path d="M424.422,799.276,417.556,815.6a6.634,6.634,0,0,1-6.08,4.273,6.482,6.482,0,0,1-6.416-6.412,6.278,6.278,0,0,1,.45-2.365l26.572-64.736a6.42,6.42,0,0,1,11.933,0L470.581,811.1a6.274,6.274,0,0,1,.45,2.365,6.482,6.482,0,0,1-6.416,6.412,6.639,6.639,0,0,1-6.08-4.273l-6.866-16.328ZM438.048,763.7l-9.235,23.643h18.467Z" transform="translate(-405.06 -730.418)" fill="#562e91"/><path d="M444.346,744.02c10.357,0,16.324,5.177,18.353,7.765a5.439,5.439,0,0,1-4.168,8.9,5.425,5.425,0,0,1-4.164-1.912,12.82,12.82,0,0,0-10.021-4.4c-7.882,0-12.16,6.084-12.16,16.664,0,10.807,4.277,16.773,12.16,16.773,5.181,0,8.559-2.588,11.147-4.5a5.255,5.255,0,0,1,3.378-1.122,5.429,5.429,0,0,1,3.488,9.567,27.021,27.021,0,0,1-18.013,6.416c-15.311,0-24.429-8.782-24.429-27.135S429.035,744.02,444.346,744.02Z" transform="translate(-357.492 -724.953)" fill="#562e91"/><path d="M456.662,795.172c-15.2,0-24.66-8.669-24.66-27.017,0-18.466,9.458-27.135,24.66-27.135s24.656,8.668,24.656,27.135C481.318,786.5,471.859,795.172,456.662,795.172Zm0-43.8c-8.109,0-12.386,5.63-12.386,16.782,0,11.034,4.277,16.656,12.386,16.656s12.383-5.622,12.383-16.656C469.044,757,464.767,751.373,456.662,751.373Z" transform="translate(-318.799 -734.557)" fill="#562e91"/><path d="M458.017,746.562v61.694a2.177,2.177,0,0,0,2.139,2.029,5.626,5.626,0,1,1,0,11.252c-8.782,0-14.3-4.95-14.3-14.407V746.562a6.08,6.08,0,1,1,12.16,0Z" transform="translate(-274.44 -736.28)" fill="#562e91"/><path d="M476.1,743.02c10.361,0,16.328,5.176,18.353,7.765a5.443,5.443,0,0,1-4.168,8.9,5.426,5.426,0,0,1-4.164-1.912,12.82,12.82,0,0,0-10.021-4.4c-7.878,0-12.156,6.084-12.156,16.664,0,10.807,4.277,16.773,12.156,16.773,5.181,0,8.559-2.588,11.147-4.5a5.263,5.263,0,0,1,3.378-1.122,5.428,5.428,0,0,1,3.487,9.567,27.012,27.012,0,0,1-18.013,6.416c-15.311,0-24.429-8.782-24.429-27.135S460.791,743.02,476.1,743.02Z" transform="translate(-255.819 -728.154)" fill="#562e91"/><path d="M476.214,773.705c2.139-3.261,6.87-6.752,14.408-6.752,15.311,0,18.916,9.794,18.916,19.588v28.147a5.862,5.862,0,0,1-6.08,5.849,5.734,5.734,0,0,1-6.08-5.849V788.793c0-6.42-2.588-10.807-9.908-10.807-8.441,0-11.256,4.949-11.256,11.593v25.109a6.084,6.084,0,0,1-12.16,0V745.562a6.08,6.08,0,1,1,12.16,0Z" transform="translate(-216.178 -739.482)" fill="#562e91"/><path d="M488.29,757.1a5.376,5.376,0,0,1-8.668-4.164,5.572,5.572,0,0,1,1.466-3.719c3.151-3.487,8.777-7.2,18.462-7.2,13.958,0,22.29,6.865,22.29,18.8v28.824a5.966,5.966,0,0,1-11.933,0c-3.042,4.841-7.992,6.53-14.748,6.53-11.034,0-18.349-6.87-18.349-17,0-10.47,8.441-15.874,18.235-15.874h14.748v-2.025c0-5.067-3.714-8.445-10.244-8.445C494.6,752.827,491.105,755.079,488.29,757.1Zm21.5,18.8v-3.151H496.622c-4.954,0-7.656,2.361-7.656,6.416,0,4.278,3.042,6.865,9.345,6.865C504.278,786.037,509.794,782.209,509.794,775.907Z" transform="translate(-175.334 -731.356)" fill="#562e91"/><path d="M568.882,765.608v28.147a5.862,5.862,0,0,1-6.08,5.849,5.731,5.731,0,0,1-6.076-5.849V767.861c0-6.42-2.592-10.807-9.908-10.807-8.109,0-11.261,4.386-11.261,10.693v26.009a5.862,5.862,0,0,1-6.08,5.849,5.734,5.734,0,0,1-6.08-5.849V767.861c0-6.42-2.588-10.807-9.908-10.807-8.441,0-11.256,4.949-11.256,11.593v25.109a6.084,6.084,0,0,1-12.16,0V752.772a6.08,6.08,0,0,1,12.16,0c2.139-3.26,6.87-6.752,14.408-6.752,9.235,0,13.849,2.928,16.664,7.32,3.6-4.845,8.445-7.32,16.1-7.32C564.719,746.02,568.882,755.814,568.882,765.608Z" transform="translate(-132.866 -718.549)" fill="#562e91"/><path d="M522.248,756.972a5.339,5.339,0,0,1-3.378,1.122,5.281,5.281,0,0,1-5.29-5.29,5.571,5.571,0,0,1,1.462-3.714c3.151-3.487,8.781-7.206,18.462-7.206,13.962,0,22.29,6.87,22.29,18.8v28.824a5.966,5.966,0,1,1-11.933,0c-3.042,4.84-7.992,6.529-14.748,6.529-11.034,0-18.349-6.865-18.349-17,0-10.475,8.441-15.879,18.235-15.879h14.748v-2.025c0-5.067-3.714-8.445-10.244-8.445C528.551,752.691,525.059,754.943,522.248,756.972Zm21.5,18.8V772.62H530.576c-4.954,0-7.655,2.366-7.655,6.42,0,4.273,3.042,6.861,9.344,6.861C538.231,785.9,543.748,782.073,543.748,775.771Z" transform="translate(-66.623 -731.792)" fill="#562e91"/><path d="M534.038,794.728a6.122,6.122,0,0,1-4.84,2.361,6.051,6.051,0,0,1-6.08-6.076,6.117,6.117,0,0,1,1.24-3.719l13.622-17.109-13.172-16.21a5.919,5.919,0,0,1-1.235-3.719,6.047,6.047,0,0,1,6.076-6.076,6.127,6.127,0,0,1,4.84,2.361l10.584,14.521,10.584-14.521a6.139,6.139,0,0,1,4.84-2.361,6.05,6.05,0,0,1,6.08,6.076,5.924,5.924,0,0,1-1.239,3.719l-13.173,16.21,13.622,17.109a6.116,6.116,0,0,1,1.239,3.719,6.05,6.05,0,0,1-6.08,6.076,6.122,6.122,0,0,1-4.84-2.361c-3.492-4.84-11.034-15.534-11.034-15.534S537.53,789.887,534.038,794.728Z" transform="translate(-27.072 -724.437)" fill="#562e91"/></g><path d="M-28.577,2218.855a16.907,16.907,0,0,1-7.932,5.821,16.6,16.6,0,0,1-9.6.678,2.156,2.156,0,0,1-1.557-2.621,2.153,2.153,0,0,1,1.423-1.518l.145-.047a31.8,31.8,0,0,0,6.675-2.911,37.934,37.934,0,0,0,5.477-4.071l.128-.109a3.571,3.571,0,0,1,5.037.354,3.571,3.571,0,0,1,.205,4.423Z" transform="translate(191.871 -2156.894)" fill="#562e91"/><path d="M19.156,5.653a16.906,16.906,0,0,1-7.932,5.821,16.6,16.6,0,0,1-9.6.678A2.155,2.155,0,0,1,1.49,8.013l.145-.047A31.8,31.8,0,0,0,8.309,5.055,37.945,37.945,0,0,0,13.787.984l.128-.109a3.57,3.57,0,0,1,5.242,4.777Z" transform="translate(341.584 24.857) rotate(-97)" fill="#562e91"/><path d="M19.156,5.653a16.906,16.906,0,0,1-7.932,5.821,16.6,16.6,0,0,1-9.6.678A2.155,2.155,0,0,1,1.49,8.013l.145-.047A31.8,31.8,0,0,0,8.309,5.055,37.945,37.945,0,0,0,13.787.984l.128-.109a3.57,3.57,0,0,1,5.242,4.777Z" transform="matrix(0.485, 0.875, -0.875, 0.485, 451.901, 55.876)" fill="#562e91"/></g></g><path d="M-235.98-26.266a2.356,2.356,0,0,0,2.346-2.346,2.356,2.356,0,0,0-2.346-2.346h-19.412a2.356,2.356,0,0,0-2.346,2.346,2.356,2.356,0,0,0,2.346,2.346h7.038V-2.3A2.67,2.67,0,0,0-245.686.368,2.67,2.67,0,0,0-243.018-2.3V-26.266ZM-215.1-10.442c0-7.544-3.864-11.086-10.074-11.086s-10.074,3.542-10.074,11.086c0,7.5,3.864,11.04,10.074,11.04S-215.1-2.944-215.1-10.442Zm-5.014,0c0,4.508-1.748,6.808-5.06,6.808s-5.06-2.3-5.06-6.808c0-4.554,1.748-6.854,5.06-6.854S-220.11-15-220.11-10.442Zm16.882-6.67c2.668,0,4.186,1.38,4.186,3.45v.828h-6.026c-4,0-7.452,2.208-7.452,6.486,0,4.14,2.99,6.946,7.5,6.946,2.76,0,4.784-.69,6.026-2.668A2.454,2.454,0,0,0-196.558.368,2.454,2.454,0,0,0-194.12-2.07V-13.846c0-4.876-3.4-7.682-9.108-7.682-3.956,0-6.256,1.518-7.544,2.944a2.277,2.277,0,0,0-.6,1.518,2.159,2.159,0,0,0,2.162,2.162,2.171,2.171,0,0,0,1.38-.46A7.6,7.6,0,0,1-203.228-17.112Zm-.506,13.57c-2.576,0-3.818-1.058-3.818-2.806,0-1.656,1.1-2.622,3.128-2.622h5.382v1.288C-199.042-5.106-201.3-3.542-203.734-3.542Zm16.7-29.21a2.474,2.474,0,0,0-2.484,2.484V-5.52c0,3.864,2.254,5.888,5.842,5.888a2.278,2.278,0,0,0,2.3-2.3,2.278,2.278,0,0,0-2.3-2.3.888.888,0,0,1-.874-.828V-30.268A2.474,2.474,0,0,0-187.036-32.752Zm11.178,0a2.474,2.474,0,0,0-2.484,2.484V-5.52c0,3.864,2.254,5.888,5.842,5.888a2.278,2.278,0,0,0,2.3-2.3,2.278,2.278,0,0,0-2.3-2.3.888.888,0,0,1-.874-.828V-30.268A2.474,2.474,0,0,0-175.858-32.752ZM-162.2-18.768a2.474,2.474,0,0,0-2.484-2.484,2.474,2.474,0,0,0-2.484,2.484V-2.116A2.474,2.474,0,0,0-164.68.368,2.474,2.474,0,0,0-162.2-2.116Zm-2.484-4.968a2.688,2.688,0,0,0,2.99-2.9c0-2.116-1.058-3.036-2.99-3.036-1.886,0-2.944.92-2.944,3.036A2.674,2.674,0,0,0-164.68-23.736Zm8.694,2.852h-1.058a2.061,2.061,0,0,0-2.07,2.07,2.061,2.061,0,0,0,2.07,2.07h1.058V-5.888c0,3.634,2.53,6.256,6.624,6.256A2.159,2.159,0,0,0-147.2-1.794a2.159,2.159,0,0,0-2.162-2.162,1.694,1.694,0,0,1-1.748-1.656V-16.744h2.07a2.061,2.061,0,0,0,2.07-2.07,2.061,2.061,0,0,0-2.07-2.07h-2.07v-3.864a2.454,2.454,0,0,0-2.438-2.438,2.454,2.454,0,0,0-2.438,2.438Zm20.7,3.772c2.668,0,4.186,1.38,4.186,3.45v.828h-6.026c-4,0-7.452,2.208-7.452,6.486,0,4.14,2.99,6.946,7.5,6.946,2.76,0,4.784-.69,6.026-2.668A2.454,2.454,0,0,0-128.616.368a2.454,2.454,0,0,0,2.438-2.438V-13.846c0-4.876-3.4-7.682-9.108-7.682-3.956,0-6.256,1.518-7.544,2.944a2.277,2.277,0,0,0-.6,1.518,2.159,2.159,0,0,0,2.162,2.162,2.171,2.171,0,0,0,1.38-.46A7.6,7.6,0,0,1-135.286-17.112Zm-.506,13.57c-2.576,0-3.818-1.058-3.818-2.806,0-1.656,1.1-2.622,3.128-2.622h5.382v1.288C-131.1-5.106-133.354-3.542-135.792-3.542ZM-114.4-17.2a6.65,6.65,0,0,1,4.14,1.472,2.5,2.5,0,0,0,1.564.644A2.239,2.239,0,0,0-106.49-17.3a1.985,1.985,0,0,0-.46-1.38c-1.288-1.61-4.186-2.852-7.452-2.852-4.232,0-7.682,2.024-7.682,6.164,0,7.82,11.27,5.888,11.27,9.614,0,1.288-1.334,1.84-3.4,1.84a7.569,7.569,0,0,1-5.06-1.886,2.161,2.161,0,0,0-1.426-.552,2.239,2.239,0,0,0-2.208,2.208,2.14,2.14,0,0,0,.552,1.426c1.15,1.426,4.186,3.22,8.142,3.22,4.738,0,8.418-2.208,8.418-6.532,0-7.59-11.316-6.026-11.316-9.43C-117.116-16.606-116.1-17.2-114.4-17.2Zm46.828-11.454a2.67,2.67,0,0,0-2.668-2.668,2.67,2.67,0,0,0-2.668,2.668v10.4H-86.066v-10.4a2.67,2.67,0,0,0-2.668-2.668A2.67,2.67,0,0,0-91.4-28.658V-2.3A2.67,2.67,0,0,0-88.734.368,2.67,2.67,0,0,0-86.066-2.3V-13.386H-72.91V-2.3A2.67,2.67,0,0,0-70.242.368,2.67,2.67,0,0,0-67.574-2.3Zm7.314,7.406a2.474,2.474,0,0,0-2.484,2.484V-8.05c0,4.508,1.7,8.648,9.108,8.648,7.36,0,9.062-4.14,9.062-8.648V-18.768a2.474,2.474,0,0,0-2.484-2.484,2.474,2.474,0,0,0-2.484,2.484V-8.05c0,2.116-.736,4.14-4.094,4.14-3.4,0-4.14-2.024-4.14-4.14V-18.768A2.474,2.474,0,0,0-60.26-21.252Zm4.554-2.392a1.431,1.431,0,0,0,2.116,0l4.508-4.14a1.791,1.791,0,0,0-.184-2.76c-.92-.92-2.116-.966-2.76-.138l-3.91,4.968A1.407,1.407,0,0,0-55.706-23.644Zm39.744,2.116c-3.128,0-5.106,1.012-6.578,2.99-1.15-1.794-3.036-2.99-6.808-2.99a6.815,6.815,0,0,0-5.888,2.76,2.474,2.474,0,0,0-2.484-2.484A2.474,2.474,0,0,0-40.2-18.768V-2.024A2.37,2.37,0,0,0-37.72.368a2.37,2.37,0,0,0,2.484-2.392V-12.282c0-2.714,1.15-4.738,4.6-4.738,2.99,0,4.048,1.794,4.048,4.416v10.58A2.344,2.344,0,0,0-24.1.368,2.4,2.4,0,0,0-21.62-2.024V-12.65c0-2.576,1.288-4.37,4.6-4.37,2.99,0,4.048,1.794,4.048,4.416v10.58A2.344,2.344,0,0,0-10.488.368,2.4,2.4,0,0,0-8-2.024v-11.5C-8-17.526-9.706-21.528-15.962-21.528ZM-4.554-10.534C-4.554-2.852-.6.6,5.8.6A10.828,10.828,0,0,0,13.2-1.932a2.3,2.3,0,0,0,.782-1.7A2.159,2.159,0,0,0,11.822-5.8a2.477,2.477,0,0,0-1.472.506A7.871,7.871,0,0,1,5.8-3.864C2.76-3.864.414-5.382.414-8.694H11.776c2.806,0,2.806-1.978,2.806-3.68,0-3.174-1.426-9.154-9.2-9.154C-.874-21.528-4.554-17.572-4.554-10.534ZM5.382-17.3c2.99,0,4.278,2.208,4.278,4.462H.552A4.49,4.49,0,0,1,5.382-17.3ZM31.464-8.6c0,3.174-1.886,4.968-4.554,4.968-3.174,0-4.922-2.3-4.922-6.808,0-4.554,1.794-6.854,4.922-6.854a6.332,6.332,0,0,1,4.554,2.346ZM26.4-21.528c-5.8,0-9.338,3.588-9.338,11.086S20.7.6,26.91.6c5.566,0,9.522-3.082,9.522-9.2V-30.268a2.474,2.474,0,0,0-2.484-2.484,2.474,2.474,0,0,0-2.484,2.484v10.58A7.543,7.543,0,0,0,26.4-21.528Zm22.632,4.416c2.668,0,4.186,1.38,4.186,3.45v.828H47.2c-4,0-7.452,2.208-7.452,6.486,0,4.14,2.99,6.946,7.5,6.946,2.76,0,4.784-.69,6.026-2.668A2.454,2.454,0,0,0,55.706.368,2.454,2.454,0,0,0,58.144-2.07V-13.846c0-4.876-3.4-7.682-9.108-7.682-3.956,0-6.256,1.518-7.544,2.944a2.277,2.277,0,0,0-.6,1.518A2.159,2.159,0,0,0,43.056-14.9a2.171,2.171,0,0,0,1.38-.46A7.6,7.6,0,0,1,49.036-17.112ZM48.53-3.542c-2.576,0-3.818-1.058-3.818-2.806,0-1.656,1.1-2.622,3.128-2.622h5.382v1.288C53.222-5.106,50.968-3.542,48.53-3.542ZM69.92-17.2a6.65,6.65,0,0,1,4.14,1.472,2.5,2.5,0,0,0,1.564.644A2.239,2.239,0,0,0,77.832-17.3a1.985,1.985,0,0,0-.46-1.38c-1.288-1.61-4.186-2.852-7.452-2.852-4.232,0-7.682,2.024-7.682,6.164,0,7.82,11.27,5.888,11.27,9.614,0,1.288-1.334,1.84-3.4,1.84A7.569,7.569,0,0,1,65.044-5.8a2.161,2.161,0,0,0-1.426-.552A2.239,2.239,0,0,0,61.41-4.14a2.14,2.14,0,0,0,.552,1.426C63.112-1.288,66.148.506,70.1.506c4.738,0,8.418-2.208,8.418-6.532,0-7.59-11.316-6.026-11.316-9.43C67.206-16.606,68.218-17.2,69.92-17.2Zm34.454,5.152c5.474,0,9.66-3.128,9.66-9.476,0-6.44-4.278-9.43-9.66-9.43H95.588A2.67,2.67,0,0,0,92.92-28.29V-2.3A2.67,2.67,0,0,0,95.588.368,2.67,2.67,0,0,0,98.256-2.3v-9.752Zm-.414-14.122c2.806,0,4.554,1.61,4.554,4.646,0,2.99-1.7,4.692-4.554,4.692h-5.7v-9.338Zm12.052,15.64C116.012-2.852,119.968.6,126.362.6a10.828,10.828,0,0,0,7.406-2.53,2.3,2.3,0,0,0,.782-1.7A2.159,2.159,0,0,0,132.388-5.8a2.478,2.478,0,0,0-1.472.506,7.871,7.871,0,0,1-4.554,1.426c-3.036,0-5.382-1.518-5.382-4.83h11.362c2.806,0,2.806-1.978,2.806-3.68,0-3.174-1.426-9.154-9.2-9.154C119.692-21.528,116.012-17.572,116.012-10.534Zm9.936-6.762c2.99,0,4.278,2.208,4.278,4.462h-9.108A4.49,4.49,0,0,1,125.948-17.3ZM152.076-5.98a6.332,6.332,0,0,1-4.554,2.346c-3.128,0-4.922-2.3-4.922-6.854,0-4.508,1.748-6.808,4.922-6.808,2.668,0,4.554,1.794,4.554,4.968ZM147.016.6a7.543,7.543,0,0,0,5.06-1.84v8a2.484,2.484,0,0,0,4.968,0v-19.09c0-6.118-3.956-9.2-9.522-9.2-6.21,0-9.844,3.542-9.844,11.04S141.22.6,147.016.6Zm16.56-21.85a2.474,2.474,0,0,0-2.484,2.484V-8.05c0,4.508,1.7,8.648,9.108,8.648,7.36,0,9.062-4.14,9.062-8.648V-18.768a2.474,2.474,0,0,0-2.484-2.484,2.474,2.474,0,0,0-2.484,2.484V-8.05c0,2.116-.736,4.14-4.094,4.14-3.4,0-4.14-2.024-4.14-4.14V-18.768A2.474,2.474,0,0,0,163.576-21.252Zm19.136,10.718C182.712-2.852,186.668.6,193.062.6a10.828,10.828,0,0,0,7.406-2.53,2.3,2.3,0,0,0,.782-1.7A2.159,2.159,0,0,0,199.088-5.8a2.478,2.478,0,0,0-1.472.506,7.871,7.871,0,0,1-4.554,1.426c-3.036,0-5.382-1.518-5.382-4.83h11.362c2.806,0,2.806-1.978,2.806-3.68,0-3.174-1.426-9.154-9.2-9.154C186.392-21.528,182.712-17.572,182.712-10.534Zm9.936-6.762c2.99,0,4.278,2.208,4.278,4.462h-9.108A4.49,4.49,0,0,1,192.648-17.3Zm23.506-4.232a6.815,6.815,0,0,0-5.888,2.76,2.474,2.474,0,0,0-2.484-2.484,2.474,2.474,0,0,0-2.484,2.484V-2.024A2.37,2.37,0,0,0,207.782.368a2.37,2.37,0,0,0,2.484-2.392V-12.282c0-2.714,1.15-4.738,4.6-4.738,2.99,0,4.048,1.794,4.048,4.416v10.58A2.344,2.344,0,0,0,221.4.368a2.4,2.4,0,0,0,2.484-2.392v-11.5C223.882-17.526,222.41-21.528,216.154-21.528Zm1.472-6.026c-1.7,0-3.358-1.564-5.934-1.564a4.158,4.158,0,0,0-3.956,2.392,2.083,2.083,0,0,0-.138.736,1.768,1.768,0,0,0,1.794,1.794,1.85,1.85,0,0,0,1.518-.782,1.394,1.394,0,0,1,1.2-.736c1.518,0,3.358,1.564,5.934,1.564A4.158,4.158,0,0,0,222-26.542a2.084,2.084,0,0,0,.138-.736,1.768,1.768,0,0,0-1.794-1.794,1.849,1.849,0,0,0-1.518.782A1.394,1.394,0,0,1,217.626-27.554Zm15.824,8.786a2.474,2.474,0,0,0-2.484-2.484,2.474,2.474,0,0,0-2.484,2.484V-2.116A2.474,2.474,0,0,0,230.966.368a2.474,2.474,0,0,0,2.484-2.484Zm-5.014-4.876a1.431,1.431,0,0,0,2.116,0l4.508-4.14a1.791,1.791,0,0,0-.184-2.76c-.92-.92-2.116-.966-2.76-.138l-3.91,4.968A1.407,1.407,0,0,0,228.436-23.644Zm20.47,2.116a6.815,6.815,0,0,0-5.888,2.76,2.474,2.474,0,0,0-2.484-2.484,2.474,2.474,0,0,0-2.484,2.484V-2.024A2.37,2.37,0,0,0,240.534.368a2.37,2.37,0,0,0,2.484-2.392V-12.282c0-2.714,1.15-4.738,4.6-4.738,2.99,0,4.048,1.794,4.048,4.416v10.58A2.344,2.344,0,0,0,254.15.368a2.4,2.4,0,0,0,2.484-2.392v-11.5C256.634-17.526,255.162-21.528,248.906-21.528Z" transform="matrix(0.999, -0.052, 0.052, 0.999, 401.224, 271.982)" fill="#562e91"/></g></svg>