<svg xmlns="http://www.w3.org/2000/svg" width="528.8" height="181.915" viewBox="0 0 528.8 181.915"><g transform="translate(-7.523 -169.625)"><path d="M-235.98-26.266a2.356,2.356,0,0,0,2.346-2.346,2.356,2.356,0,0,0-2.346-2.346h-19.412a2.356,2.356,0,0,0-2.346,2.346,2.356,2.356,0,0,0,2.346,2.346h7.038V-2.3A2.67,2.67,0,0,0-245.686.368,2.67,2.67,0,0,0-243.018-2.3V-26.266ZM-215.1-10.442c0-7.544-3.864-11.086-10.074-11.086s-10.074,3.542-10.074,11.086c0,7.5,3.864,11.04,10.074,11.04S-215.1-2.944-215.1-10.442Zm-5.014,0c0,4.508-1.748,6.808-5.06,6.808s-5.06-2.3-5.06-6.808c0-4.554,1.748-6.854,5.06-6.854S-220.11-15-220.11-10.442Zm16.882-6.67c2.668,0,4.186,1.38,4.186,3.45v.828h-6.026c-4,0-7.452,2.208-7.452,6.486,0,4.14,2.99,6.946,7.5,6.946,2.76,0,4.784-.69,6.026-2.668A2.454,2.454,0,0,0-196.558.368,2.454,2.454,0,0,0-194.12-2.07V-13.846c0-4.876-3.4-7.682-9.108-7.682-3.956,0-6.256,1.518-7.544,2.944a2.277,2.277,0,0,0-.6,1.518,2.159,2.159,0,0,0,2.162,2.162,2.171,2.171,0,0,0,1.38-.46A7.6,7.6,0,0,1-203.228-17.112Zm-.506,13.57c-2.576,0-3.818-1.058-3.818-2.806,0-1.656,1.1-2.622,3.128-2.622h5.382v1.288C-199.042-5.106-201.3-3.542-203.734-3.542Zm16.7-29.21a2.474,2.474,0,0,0-2.484,2.484V-5.52c0,3.864,2.254,5.888,5.842,5.888a2.278,2.278,0,0,0,2.3-2.3,2.278,2.278,0,0,0-2.3-2.3.888.888,0,0,1-.874-.828V-30.268A2.474,2.474,0,0,0-187.036-32.752Zm11.178,0a2.474,2.474,0,0,0-2.484,2.484V-5.52c0,3.864,2.254,5.888,5.842,5.888a2.278,2.278,0,0,0,2.3-2.3,2.278,2.278,0,0,0-2.3-2.3.888.888,0,0,1-.874-.828V-30.268A2.474,2.474,0,0,0-175.858-32.752ZM-162.2-18.768a2.474,2.474,0,0,0-2.484-2.484,2.474,2.474,0,0,0-2.484,2.484V-2.116A2.474,2.474,0,0,0-164.68.368,2.474,2.474,0,0,0-162.2-2.116Zm-2.484-4.968a2.688,2.688,0,0,0,2.99-2.9c0-2.116-1.058-3.036-2.99-3.036-1.886,0-2.944.92-2.944,3.036A2.674,2.674,0,0,0-164.68-23.736Zm8.694,2.852h-1.058a2.061,2.061,0,0,0-2.07,2.07,2.061,2.061,0,0,0,2.07,2.07h1.058V-5.888c0,3.634,2.53,6.256,6.624,6.256A2.159,2.159,0,0,0-147.2-1.794a2.159,2.159,0,0,0-2.162-2.162,1.694,1.694,0,0,1-1.748-1.656V-16.744h2.07a2.061,2.061,0,0,0,2.07-2.07,2.061,2.061,0,0,0-2.07-2.07h-2.07v-3.864a2.454,2.454,0,0,0-2.438-2.438,2.454,2.454,0,0,0-2.438,2.438Zm20.7,3.772c2.668,0,4.186,1.38,4.186,3.45v.828h-6.026c-4,0-7.452,2.208-7.452,6.486,0,4.14,2.99,6.946,7.5,6.946,2.76,0,4.784-.69,6.026-2.668A2.454,2.454,0,0,0-128.616.368a2.454,2.454,0,0,0,2.438-2.438V-13.846c0-4.876-3.4-7.682-9.108-7.682-3.956,0-6.256,1.518-7.544,2.944a2.277,2.277,0,0,0-.6,1.518,2.159,2.159,0,0,0,2.162,2.162,2.171,2.171,0,0,0,1.38-.46A7.6,7.6,0,0,1-135.286-17.112Zm-.506,13.57c-2.576,0-3.818-1.058-3.818-2.806,0-1.656,1.1-2.622,3.128-2.622h5.382v1.288C-131.1-5.106-133.354-3.542-135.792-3.542ZM-114.4-17.2a6.65,6.65,0,0,1,4.14,1.472,2.5,2.5,0,0,0,1.564.644A2.239,2.239,0,0,0-106.49-17.3a1.985,1.985,0,0,0-.46-1.38c-1.288-1.61-4.186-2.852-7.452-2.852-4.232,0-7.682,2.024-7.682,6.164,0,7.82,11.27,5.888,11.27,9.614,0,1.288-1.334,1.84-3.4,1.84a7.569,7.569,0,0,1-5.06-1.886,2.161,2.161,0,0,0-1.426-.552,2.239,2.239,0,0,0-2.208,2.208,2.14,2.14,0,0,0,.552,1.426c1.15,1.426,4.186,3.22,8.142,3.22,4.738,0,8.418-2.208,8.418-6.532,0-7.59-11.316-6.026-11.316-9.43C-117.116-16.606-116.1-17.2-114.4-17.2Zm46.828-11.454a2.67,2.67,0,0,0-2.668-2.668,2.67,2.67,0,0,0-2.668,2.668v10.4H-86.066v-10.4a2.67,2.67,0,0,0-2.668-2.668A2.67,2.67,0,0,0-91.4-28.658V-2.3A2.67,2.67,0,0,0-88.734.368,2.67,2.67,0,0,0-86.066-2.3V-13.386H-72.91V-2.3A2.67,2.67,0,0,0-70.242.368,2.67,2.67,0,0,0-67.574-2.3Zm7.314,7.406a2.474,2.474,0,0,0-2.484,2.484V-8.05c0,4.508,1.7,8.648,9.108,8.648,7.36,0,9.062-4.14,9.062-8.648V-18.768a2.474,2.474,0,0,0-2.484-2.484,2.474,2.474,0,0,0-2.484,2.484V-8.05c0,2.116-.736,4.14-4.094,4.14-3.4,0-4.14-2.024-4.14-4.14V-18.768A2.474,2.474,0,0,0-60.26-21.252Zm4.554-2.392a1.431,1.431,0,0,0,2.116,0l4.508-4.14a1.791,1.791,0,0,0-.184-2.76c-.92-.92-2.116-.966-2.76-.138l-3.91,4.968A1.407,1.407,0,0,0-55.706-23.644Zm39.744,2.116c-3.128,0-5.106,1.012-6.578,2.99-1.15-1.794-3.036-2.99-6.808-2.99a6.815,6.815,0,0,0-5.888,2.76,2.474,2.474,0,0,0-2.484-2.484A2.474,2.474,0,0,0-40.2-18.768V-2.024A2.37,2.37,0,0,0-37.72.368a2.37,2.37,0,0,0,2.484-2.392V-12.282c0-2.714,1.15-4.738,4.6-4.738,2.99,0,4.048,1.794,4.048,4.416v10.58A2.344,2.344,0,0,0-24.1.368,2.4,2.4,0,0,0-21.62-2.024V-12.65c0-2.576,1.288-4.37,4.6-4.37,2.99,0,4.048,1.794,4.048,4.416v10.58A2.344,2.344,0,0,0-10.488.368,2.4,2.4,0,0,0-8-2.024v-11.5C-8-17.526-9.706-21.528-15.962-21.528ZM-4.554-10.534C-4.554-2.852-.6.6,5.8.6A10.828,10.828,0,0,0,13.2-1.932a2.3,2.3,0,0,0,.782-1.7A2.159,2.159,0,0,0,11.822-5.8a2.477,2.477,0,0,0-1.472.506A7.871,7.871,0,0,1,5.8-3.864C2.76-3.864.414-5.382.414-8.694H11.776c2.806,0,2.806-1.978,2.806-3.68,0-3.174-1.426-9.154-9.2-9.154C-.874-21.528-4.554-17.572-4.554-10.534ZM5.382-17.3c2.99,0,4.278,2.208,4.278,4.462H.552A4.49,4.49,0,0,1,5.382-17.3ZM31.464-8.6c0,3.174-1.886,4.968-4.554,4.968-3.174,0-4.922-2.3-4.922-6.808,0-4.554,1.794-6.854,4.922-6.854a6.332,6.332,0,0,1,4.554,2.346ZM26.4-21.528c-5.8,0-9.338,3.588-9.338,11.086S20.7.6,26.91.6c5.566,0,9.522-3.082,9.522-9.2V-30.268a2.474,2.474,0,0,0-2.484-2.484,2.474,2.474,0,0,0-2.484,2.484v10.58A7.543,7.543,0,0,0,26.4-21.528Zm22.632,4.416c2.668,0,4.186,1.38,4.186,3.45v.828H47.2c-4,0-7.452,2.208-7.452,6.486,0,4.14,2.99,6.946,7.5,6.946,2.76,0,4.784-.69,6.026-2.668A2.454,2.454,0,0,0,55.706.368,2.454,2.454,0,0,0,58.144-2.07V-13.846c0-4.876-3.4-7.682-9.108-7.682-3.956,0-6.256,1.518-7.544,2.944a2.277,2.277,0,0,0-.6,1.518A2.159,2.159,0,0,0,43.056-14.9a2.171,2.171,0,0,0,1.38-.46A7.6,7.6,0,0,1,49.036-17.112ZM48.53-3.542c-2.576,0-3.818-1.058-3.818-2.806,0-1.656,1.1-2.622,3.128-2.622h5.382v1.288C53.222-5.106,50.968-3.542,48.53-3.542ZM69.92-17.2a6.65,6.65,0,0,1,4.14,1.472,2.5,2.5,0,0,0,1.564.644A2.239,2.239,0,0,0,77.832-17.3a1.985,1.985,0,0,0-.46-1.38c-1.288-1.61-4.186-2.852-7.452-2.852-4.232,0-7.682,2.024-7.682,6.164,0,7.82,11.27,5.888,11.27,9.614,0,1.288-1.334,1.84-3.4,1.84A7.569,7.569,0,0,1,65.044-5.8a2.161,2.161,0,0,0-1.426-.552A2.239,2.239,0,0,0,61.41-4.14a2.14,2.14,0,0,0,.552,1.426C63.112-1.288,66.148.506,70.1.506c4.738,0,8.418-2.208,8.418-6.532,0-7.59-11.316-6.026-11.316-9.43C67.206-16.606,68.218-17.2,69.92-17.2Zm34.454,5.152c5.474,0,9.66-3.128,9.66-9.476,0-6.44-4.278-9.43-9.66-9.43H95.588A2.67,2.67,0,0,0,92.92-28.29V-2.3A2.67,2.67,0,0,0,95.588.368,2.67,2.67,0,0,0,98.256-2.3v-9.752Zm-.414-14.122c2.806,0,4.554,1.61,4.554,4.646,0,2.99-1.7,4.692-4.554,4.692h-5.7v-9.338Zm12.052,15.64C116.012-2.852,119.968.6,126.362.6a10.828,10.828,0,0,0,7.406-2.53,2.3,2.3,0,0,0,.782-1.7A2.159,2.159,0,0,0,132.388-5.8a2.478,2.478,0,0,0-1.472.506,7.871,7.871,0,0,1-4.554,1.426c-3.036,0-5.382-1.518-5.382-4.83h11.362c2.806,0,2.806-1.978,2.806-3.68,0-3.174-1.426-9.154-9.2-9.154C119.692-21.528,116.012-17.572,116.012-10.534Zm9.936-6.762c2.99,0,4.278,2.208,4.278,4.462h-9.108A4.49,4.49,0,0,1,125.948-17.3ZM152.076-5.98a6.332,6.332,0,0,1-4.554,2.346c-3.128,0-4.922-2.3-4.922-6.854,0-4.508,1.748-6.808,4.922-6.808,2.668,0,4.554,1.794,4.554,4.968ZM147.016.6a7.543,7.543,0,0,0,5.06-1.84v8a2.484,2.484,0,0,0,4.968,0v-19.09c0-6.118-3.956-9.2-9.522-9.2-6.21,0-9.844,3.542-9.844,11.04S141.22.6,147.016.6Zm16.56-21.85a2.474,2.474,0,0,0-2.484,2.484V-8.05c0,4.508,1.7,8.648,9.108,8.648,7.36,0,9.062-4.14,9.062-8.648V-18.768a2.474,2.474,0,0,0-2.484-2.484,2.474,2.474,0,0,0-2.484,2.484V-8.05c0,2.116-.736,4.14-4.094,4.14-3.4,0-4.14-2.024-4.14-4.14V-18.768A2.474,2.474,0,0,0,163.576-21.252Zm19.136,10.718C182.712-2.852,186.668.6,193.062.6a10.828,10.828,0,0,0,7.406-2.53,2.3,2.3,0,0,0,.782-1.7A2.159,2.159,0,0,0,199.088-5.8a2.478,2.478,0,0,0-1.472.506,7.871,7.871,0,0,1-4.554,1.426c-3.036,0-5.382-1.518-5.382-4.83h11.362c2.806,0,2.806-1.978,2.806-3.68,0-3.174-1.426-9.154-9.2-9.154C186.392-21.528,182.712-17.572,182.712-10.534Zm9.936-6.762c2.99,0,4.278,2.208,4.278,4.462h-9.108A4.49,4.49,0,0,1,192.648-17.3Zm23.506-4.232a6.815,6.815,0,0,0-5.888,2.76,2.474,2.474,0,0,0-2.484-2.484,2.474,2.474,0,0,0-2.484,2.484V-2.024A2.37,2.37,0,0,0,207.782.368a2.37,2.37,0,0,0,2.484-2.392V-12.282c0-2.714,1.15-4.738,4.6-4.738,2.99,0,4.048,1.794,4.048,4.416v10.58A2.344,2.344,0,0,0,221.4.368a2.4,2.4,0,0,0,2.484-2.392v-11.5C223.882-17.526,222.41-21.528,216.154-21.528Zm1.472-6.026c-1.7,0-3.358-1.564-5.934-1.564a4.158,4.158,0,0,0-3.956,2.392,2.083,2.083,0,0,0-.138.736,1.768,1.768,0,0,0,1.794,1.794,1.85,1.85,0,0,0,1.518-.782,1.394,1.394,0,0,1,1.2-.736c1.518,0,3.358,1.564,5.934,1.564A4.158,4.158,0,0,0,222-26.542a2.084,2.084,0,0,0,.138-.736,1.768,1.768,0,0,0-1.794-1.794,1.849,1.849,0,0,0-1.518.782A1.394,1.394,0,0,1,217.626-27.554Zm15.824,8.786a2.474,2.474,0,0,0-2.484-2.484,2.474,2.474,0,0,0-2.484,2.484V-2.116A2.474,2.474,0,0,0,230.966.368a2.474,2.474,0,0,0,2.484-2.484Zm-5.014-4.876a1.431,1.431,0,0,0,2.116,0l4.508-4.14a1.791,1.791,0,0,0-.184-2.76c-.92-.92-2.116-.966-2.76-.138l-3.91,4.968A1.407,1.407,0,0,0,228.436-23.644Zm20.47,2.116a6.815,6.815,0,0,0-5.888,2.76,2.474,2.474,0,0,0-2.484-2.484,2.474,2.474,0,0,0-2.484,2.484V-2.024A2.37,2.37,0,0,0,240.534.368a2.37,2.37,0,0,0,2.484-2.392V-12.282c0-2.714,1.15-4.738,4.6-4.738,2.99,0,4.048,1.794,4.048,4.416v10.58A2.344,2.344,0,0,0,254.15.368a2.4,2.4,0,0,0,2.484-2.392v-11.5C256.634-17.526,255.162-21.528,248.906-21.528Z" transform="matrix(0.999, -0.052, 0.052, 0.999, 279.557, 249.482)" fill="#562e91"/><g transform="matrix(0.999, -0.035, 0.035, 0.999, -107.06, 18.312)"><g transform="translate(151.999 257.718)"><path d="M306.99,643.928v22.562a6.171,6.171,0,0,1-12.341,0V606.372a6.171,6.171,0,0,1,6.169-6.169h20.325c12.45,0,22.343,6.914,22.343,21.806,0,14.686-9.681,21.919-22.343,21.919Zm0-32.662v21.6h13.194c6.6,0,10.532-3.933,10.532-10.856,0-7.018-4.042-10.743-10.532-10.743Z" transform="translate(-294.649 -591.637)" fill="#562e91"/><path d="M346.8,617.576l4.061,24.461c.8,4.829,3.248,9.166,11.016,7.876,7.663-1.271,8.575-6.166,7.774-10.994l-4.061-24.462a5.744,5.744,0,0,1,11.333-1.881l4.061,24.461c1.707,10.283-.6,20.379-17.4,23.167-16.9,2.806-22.355-6-24.062-16.284l-4.06-24.461a5.747,5.747,0,0,1,11.338-1.882Z" transform="translate(-282.506 -589.381)" fill="#562e91"/><path d="M390.364,623.9c2.022-4.15,7.022-6.81,11.492-6.81a5.424,5.424,0,1,1,0,10.847c-7.342,0-11.492,4.686-11.492,11.817V661.88a5.746,5.746,0,0,1-11.492,0V623.361a5.746,5.746,0,0,1,11.492,0Z" transform="translate(-269.54 -586.603)" fill="#562e91"/><path d="M421.992,609.233c17.758-2.826,23.192,10.32,24.346,17.566.619,3.893,1.338,8.412-5.07,9.431l-25.955,4.131c1.2,7.563,7.111,10.176,14.046,9.073a18.231,18.231,0,0,0,9.887-4.907,5.73,5.73,0,0,1,3.179-1.69,4.99,4.99,0,0,1,5.726,4.15,5.315,5.315,0,0,1-1.17,4.17c-1.52,1.971-6.434,6.954-16,8.477-14.605,2.324-24.894-4.119-27.686-21.667C400.736,621.888,407.7,611.507,421.992,609.233Zm-7.872,21.623,20.809-3.31c-.82-5.151-4.567-9.731-11.4-8.644C417.438,619.871,413.576,624.047,414.12,630.856Z" transform="translate(-262.414 -589.062)" fill="#562e91"/><path d="M317.878,674.534c-8.834,0-12.13,4.15-12.13,8.4,0,13.939,38.835,7.45,38.835,34.049,0,12.987-9.148,21.07-26.705,21.07-12.663,0-22.769-6.281-26.919-12.979a5.72,5.72,0,0,1,4.787-8.725,6.227,6.227,0,0,1,4.682,2.339c4.471,4.471,10.106,8.083,17.449,8.083,9.682,0,14.364-3.188,14.364-9.789,0-15.535-38.835-8.4-38.835-34.049,0-10.536,7.555-19.468,24.471-19.468,10.638,0,19.9,3.933,24.154,10a6.186,6.186,0,0,1,1.061,3.4,5.7,5.7,0,0,1-5.744,5.64c-1.489,0-2.979-.85-4.573-2.339A22,22,0,0,0,317.878,674.534Z" transform="translate(-85.033 -651.723)" fill="#562e91"/><path d="M367.977,728.791l-15.85-21.278-3.4,2.659V725.5a5.545,5.545,0,0,1-5.748,5.527,5.481,5.481,0,0,1-5.744-5.527v-65.55a5.481,5.481,0,0,1,5.744-5.528,5.545,5.545,0,0,1,5.748,5.528v37.566l19.255-15.11a5.621,5.621,0,0,1,3.726-1.386,5.5,5.5,0,0,1,5.533,5.537,5.58,5.58,0,0,1-2.128,4.358l-13.939,10.64,15.642,20.542a5.7,5.7,0,0,1,1.17,3.405,5.492,5.492,0,0,1-5.533,5.527A5.426,5.426,0,0,1,367.977,728.791Z" transform="translate(-70.984 -654.421)" fill="#562e91"/><path d="M377.56,676.932c0-4.9,2.448-7.018,6.81-7.018,4.471,0,6.918,2.123,6.918,7.018,0,4.15-2.447,6.7-6.918,6.7C380.008,683.636,377.56,681.082,377.56,676.932Zm12.558,56.713a5.746,5.746,0,0,1-11.492,0V695.125a5.746,5.746,0,0,1,11.492,0Z" transform="translate(-58.96 -649.802)" fill="#562e91"/><path d="M439.422,691.284V717.89a5.542,5.542,0,0,1-5.744,5.527,5.419,5.419,0,0,1-5.744-5.527V693.415c0-6.065-2.447-10.214-9.365-10.214-7.98,0-10.639,4.677-10.639,10.959v23.73a5.751,5.751,0,0,1-11.492,0V679.155a5.746,5.746,0,0,1,11.492,0c2.022-3.084,6.489-6.385,13.619-6.385C436.017,672.77,439.422,682.032,439.422,691.284Z" transform="translate(-53.333 -648.951)" fill="#562e91"/></g><path d="M18.411,5.433a16.249,16.249,0,0,1-7.623,5.595,15.958,15.958,0,0,1-9.227.652A2.072,2.072,0,0,1,1.432,7.7l.139-.045a30.559,30.559,0,0,0,6.416-2.8A36.469,36.469,0,0,0,13.251.946l.123-.105a3.431,3.431,0,0,1,5.038,4.591Z" transform="matrix(0.602, 0.799, -0.799, 0.602, 301.266, 320.883)" fill="#562e91"/><path d="M18.411,5.433a16.249,16.249,0,0,1-7.623,5.595,15.958,15.958,0,0,1-9.227.652A2.072,2.072,0,0,1,1.432,7.7l.139-.045a30.559,30.559,0,0,0,6.416-2.8A36.469,36.469,0,0,0,13.251.946l.123-.105a3.431,3.431,0,0,1,5.038,4.591Z" transform="translate(531.695 293.481) rotate(-97)" fill="#562e91"/></g><path d="M-869.462,1797.585c.162,1.456,8.306,1.721,8.306,1.721s.407,8.21,1.864,8.513,4.971-8.043,4.971-8.043,6.574,2.369,7.527.981-3.274-7.137-3.274-7.137,4.025-6.758,2.783-8.088-8.321,3.318-8.321,3.318-5.963-4.662-7.294-3.7.667,7.553.667,7.553S-869.625,1796.129-869.462,1797.585Z" transform="translate(876.988 -1468.988)" fill="#e7dff2"/><path d="M-869.462,1797.585c.162,1.456,8.306,1.721,8.306,1.721s.407,8.21,1.864,8.513,4.971-8.043,4.971-8.043,6.574,2.369,7.527.981-3.274-7.137-3.274-7.137,4.025-6.758,2.783-8.088-8.321,3.318-8.321,3.318-5.963-4.662-7.294-3.7.667,7.553.667,7.553S-869.625,1796.129-869.462,1797.585Z" transform="translate(1168.186 -1615.391)" fill="#e7dff2"/><path d="M-869.462,1797.585c.162,1.456,8.306,1.721,8.306,1.721s.407,8.21,1.864,8.513,4.971-8.043,4.971-8.043,6.574,2.369,7.527.981-3.274-7.137-3.274-7.137,4.025-6.758,2.783-8.088-8.321,3.318-8.321,3.318-5.963-4.662-7.294-3.7.667,7.553.667,7.553S-869.625,1796.129-869.462,1797.585Z" transform="translate(1354.798 -1494.988)" fill="#e7dff2"/></g></svg>