<svg xmlns="http://www.w3.org/2000/svg" xmlns:xlink="http://www.w3.org/1999/xlink" width="380.681" height="314.144" viewBox="0 0 380.681 314.144"><defs><filter id="a" x="0" y="0" width="380.681" height="314.144" filterUnits="userSpaceOnUse"><feOffset dy="8" input="SourceAlpha"/><feGaussianBlur stdDeviation="8" result="b"/><feFlood flood-color="#351d58" flood-opacity="0.302"/><feComposite operator="in" in2="b"/><feComposite in="SourceGraphic"/></filter></defs><g transform="matrix(1, 0, 0, 1, 0, 0)" filter="url(#a)"><path d="M224.926,2539.571l33.268,2.7h58.219l8.317-2.7,158.023,2.7,16.634-2.7,41.585,2.7,16.634-21.564-2.079-21.563,2.079-21.563v-43.126l-2.079-21.563,2.079-61.293-1.04-21.563,1.04-26.953v-26.954l-66.536,2.7-49.9-2.7-99.8,2.7-16.634-2.7-99.8,2.7v51.212l2.079,10.782.042,142.156-2.121,16.172Z" transform="translate(-200.93 -2260.12)" fill="#fff"/></g></svg>