<svg xmlns="http://www.w3.org/2000/svg" width="681.39" height="112.892" viewBox="0 0 681.39 112.892"><g transform="translate(-788.777 -3923.3)"><g transform="translate(383.717 3183.818)"><path d="M429.493,814.2l-8.664,20.6a8.372,8.372,0,0,1-7.672,5.392,8.181,8.181,0,0,1-8.1-8.091,7.922,7.922,0,0,1,.567-2.985l33.532-81.693a8.1,8.1,0,0,1,15.059,0l33.526,81.693a7.917,7.917,0,0,1,.567,2.985,8.18,8.18,0,0,1-8.1,8.091,8.378,8.378,0,0,1-7.672-5.392l-8.664-20.6Zm17.2-44.895-11.655,29.836h23.3Z" transform="translate(0 12.18)" fill="#562e91"/><path d="M450.745,744.02c13.07,0,20.6,6.532,23.16,9.8a6.863,6.863,0,0,1-5.26,11.225,6.846,6.846,0,0,1-5.255-2.413,16.179,16.179,0,0,0-12.646-5.546c-9.947,0-15.345,7.678-15.345,21.029,0,13.638,5.4,21.167,15.345,21.167,6.538,0,10.8-3.266,14.067-5.679a6.631,6.631,0,0,1,4.263-1.416,6.85,6.85,0,0,1,4.4,12.073c-3.266,2.98-11.082,8.1-22.731,8.1-19.321,0-30.828-11.082-30.828-34.243S431.423,744.02,450.745,744.02Z" transform="translate(63.919 19.524)" fill="#562e91"/><path d="M463.121,809.356c-19.184,0-31.119-10.939-31.119-34.094,0-23.3,11.935-34.242,31.119-34.242s31.114,10.939,31.114,34.242C494.235,798.417,482.3,809.356,463.121,809.356Zm0-55.272c-10.233,0-15.631,7.105-15.631,21.177,0,13.924,5.4,21.018,15.631,21.018s15.626-7.095,15.626-21.018C478.747,761.19,473.349,754.085,463.121,754.085Z" transform="translate(115.913 6.617)" fill="#562e91"/><path d="M461.2,748.154v77.854a2.747,2.747,0,0,0,2.7,2.561,7.1,7.1,0,1,1,0,14.2c-11.082,0-18.044-6.246-18.044-18.181V748.154a7.672,7.672,0,1,1,15.345,0Z" transform="translate(175.522 4.302)" fill="#562e91"/><path d="M482.5,743.02c13.075,0,20.6,6.532,23.161,9.8a6.868,6.868,0,0,1-5.26,11.225,6.847,6.847,0,0,1-5.255-2.412,16.179,16.179,0,0,0-12.646-5.546c-9.942,0-15.34,7.678-15.34,21.029,0,13.637,5.4,21.167,15.34,21.167,6.538,0,10.8-3.266,14.067-5.679a6.642,6.642,0,0,1,4.263-1.415,6.85,6.85,0,0,1,4.4,12.074c-3.266,2.98-11.077,8.1-22.731,8.1-19.322,0-30.828-11.082-30.828-34.243S463.179,743.02,482.5,743.02Z" transform="translate(200.544 15.222)" fill="#562e91"/><path d="M479.4,782.669c2.7-4.115,8.669-8.521,18.182-8.521,19.321,0,23.871,12.36,23.871,24.719v35.52a7.4,7.4,0,0,1-7.673,7.381c-4.544,0-7.672-3.118-7.672-7.381V801.71c0-8.1-3.266-13.638-12.5-13.638-10.652,0-14.2,6.246-14.2,14.629v31.686a7.678,7.678,0,0,1-15.345,0V747.155a7.673,7.673,0,1,1,15.345,0Z" transform="translate(253.811 0)" fill="#562e91"/><path d="M491.3,761.055a6.784,6.784,0,0,1-10.939-5.254,7.032,7.032,0,0,1,1.85-4.693c3.977-4.4,11.077-9.088,23.3-9.088,17.615,0,28.129,8.664,28.129,23.722v36.374a7.529,7.529,0,0,1-15.059,0c-3.839,6.108-10.085,8.24-18.611,8.24-13.924,0-23.155-8.669-23.155-21.454,0-13.213,10.652-20.032,23.012-20.032h18.611v-2.556c0-6.395-4.687-10.658-12.927-10.658C499.256,755.657,494.85,758.5,491.3,761.055Zm27.137,23.728v-3.977H501.811c-6.252,0-9.661,2.979-9.661,8.1,0,5.4,3.839,8.664,11.792,8.664C511.472,797.567,518.434,792.737,518.434,784.783Z" transform="translate(308.695 10.919)" fill="#562e91"/><path d="M589.525,770.739v35.52a7.4,7.4,0,0,1-7.672,7.381c-4.544,0-7.667-3.118-7.667-7.381V773.582c0-8.1-3.271-13.638-12.5-13.638-10.234,0-14.21,5.535-14.21,13.494v32.821a7.4,7.4,0,0,1-7.672,7.381c-4.544,0-7.672-3.118-7.672-7.381V773.582c0-8.1-3.266-13.638-12.5-13.638-10.652,0-14.2,6.246-14.2,14.629v31.686a7.678,7.678,0,0,1-15.345,0V754.541a7.672,7.672,0,0,1,15.345,0c2.7-4.115,8.669-8.521,18.182-8.521,11.655,0,17.476,3.7,21.029,9.237,4.549-6.114,10.657-9.237,20.318-9.237C584.271,746.02,589.525,758.38,589.525,770.739Z" transform="translate(365.761 28.129)" fill="#562e91"/><path d="M525.256,760.925a6.738,6.738,0,0,1-4.263,1.416,6.664,6.664,0,0,1-6.675-6.676,7.03,7.03,0,0,1,1.845-4.687c3.977-4.4,11.082-9.093,23.3-9.093,17.62,0,28.129,8.669,28.129,23.722v36.374a7.529,7.529,0,1,1-15.058,0c-3.839,6.108-10.085,8.24-18.611,8.24-13.924,0-23.155-8.664-23.155-21.448,0-13.219,10.652-20.038,23.012-20.038h18.611v-2.555c0-6.395-4.687-10.658-12.927-10.658C533.209,755.522,528.8,758.364,525.256,760.925Zm27.132,23.722V780.67H535.765c-6.251,0-9.661,2.985-9.661,8.1,0,5.392,3.839,8.658,11.792,8.658C545.426,797.431,552.388,792.6,552.388,784.647Z" transform="translate(454.776 10.334)" fill="#562e91"/><path d="M536.9,807.968a7.726,7.726,0,0,1-6.108,2.98,7.635,7.635,0,0,1-7.673-7.667,7.719,7.719,0,0,1,1.564-4.693L541.872,777,525.25,756.541a7.469,7.469,0,0,1-1.559-4.693,7.63,7.63,0,0,1,7.667-7.667,7.732,7.732,0,0,1,6.108,2.98l13.357,18.325,13.356-18.325a7.748,7.748,0,0,1,6.108-2.98,7.635,7.635,0,0,1,7.673,7.667,7.475,7.475,0,0,1-1.564,4.693L559.773,777l17.19,21.591a7.719,7.719,0,0,1,1.564,4.693,7.635,7.635,0,0,1-7.672,7.667,7.726,7.726,0,0,1-6.108-2.98c-4.406-6.108-13.924-19.6-13.924-19.6S541.3,801.86,536.9,807.968Z" transform="translate(507.923 20.217)" fill="#562e91"/></g><path d="M-23.559,2220.335a21.334,21.334,0,0,1-10.009,7.345,20.951,20.951,0,0,1-12.115.856,2.721,2.721,0,0,1-1.965-3.307,2.718,2.718,0,0,1,1.8-1.916l.183-.059a40.132,40.132,0,0,0,8.423-3.674,47.883,47.883,0,0,0,6.912-5.137l.162-.138a4.506,4.506,0,0,1,6.357.446,4.506,4.506,0,0,1,.259,5.582Z" transform="translate(1018.403 1781.156)" fill="#562e91"/><path d="M-23.559,2220.335a21.334,21.334,0,0,1-10.009,7.345,20.951,20.951,0,0,1-12.115.856,2.721,2.721,0,0,1-1.965-3.307,2.718,2.718,0,0,1,1.8-1.916l.183-.059a40.132,40.132,0,0,0,8.423-3.674,47.883,47.883,0,0,0,6.912-5.137l.162-.138a4.506,4.506,0,0,1,6.357.446,4.506,4.506,0,0,1,.259,5.582Z" transform="translate(-982.686 4177.013) rotate(-97)" fill="#562e91"/><path d="M-23.559,2220.335a21.334,21.334,0,0,1-10.009,7.345,20.951,20.951,0,0,1-12.115.856,2.721,2.721,0,0,1-1.965-3.307,2.718,2.718,0,0,1,1.8-1.916l.183-.059a40.132,40.132,0,0,0,8.423-3.674,47.883,47.883,0,0,0,6.912-5.137l.162-.138a4.506,4.506,0,0,1,6.357.446,4.506,4.506,0,0,1,.259,5.582Z" transform="matrix(0.485, 0.875, -0.875, 0.485, 3317.901, 2962.579)" fill="#562e91"/></g></svg>