<svg xmlns="http://www.w3.org/2000/svg" width="360.625" height="202.96" viewBox="0 0 360.625 202.96"><g transform="translate(-182.559 -323.646)"><path d="M264.8,404.14l-7.722,18.355a7.463,7.463,0,0,1-6.836,4.81,7.3,7.3,0,0,1-7.216-7.216,7.025,7.025,0,0,1,.507-2.657l29.874-72.789a7.217,7.217,0,0,1,13.418,0L316.7,417.432a7.022,7.022,0,0,1,.505,2.657A7.294,7.294,0,0,1,310,427.305a7.463,7.463,0,0,1-6.837-4.81l-7.721-18.355Zm15.317-40-10.381,26.584H290.5Z" transform="translate(8.525 2.318)" fill="#562e91"/><path d="M325.922,330.483v69.371a2.445,2.445,0,0,0,2.405,2.279,6.329,6.329,0,0,1,0,12.658c-9.874,0-16.078-5.57-16.078-16.2v-68.1a6.836,6.836,0,1,1,13.672,0Z" transform="translate(18.284)" fill="#562e91"/><path d="M356.8,410.741c-16.585-4.116-24.56-16.137-19.59-36.164,5-20.15,17.667-27.049,34.253-22.934s24.56,16.137,19.56,36.286C386.051,407.957,373.383,414.857,356.8,410.741Zm11.859-47.794c-8.846-2.2-15.039,2.79-18.057,14.953-2.988,12.041.156,19.342,9,21.537s15.039-2.79,18.028-14.831C380.646,372.444,377.5,365.142,368.656,362.948Z" transform="translate(21.596 3.787)" fill="#562e91"/><path d="M416.8,365.718c21.393,0,25.317,16.456,25.317,25.191,0,4.684,0,10.127-7.722,10.127H403.131c0,9.114,6.457,13.291,14.811,13.291a21.663,21.663,0,0,0,12.533-3.924,6.815,6.815,0,0,1,4.05-1.393,5.943,5.943,0,0,1,5.95,5.95,6.327,6.327,0,0,1-2.152,4.684c-2.153,2.025-8.861,6.962-20.381,6.962-17.6,0-28.482-9.494-28.482-30.634C389.46,376.6,399.587,365.718,416.8,365.718Zm-13.292,23.925h25.065c0-6.2-3.545-12.279-11.773-12.279C409.461,377.364,404.144,381.541,403.511,389.643Z" transform="translate(29.17 5.931)" fill="#562e91"/><g transform="translate(182.559 435.462)"><path d="M247.5,432.3V505.09a7.2,7.2,0,0,1-13.165,4.05L196.99,455.214V505.09a7.216,7.216,0,0,1-14.431,0V432.3a7.3,7.3,0,0,1,7.216-7.216,6.758,6.758,0,0,1,5.824,3.038l37.47,54.306V432.3a7.216,7.216,0,0,1,14.431,0Z" transform="translate(-182.559 -421.161)" fill="#562e91"/><path d="M263.456,450.226a6.045,6.045,0,0,1-9.077-5.877,6.264,6.264,0,0,1,2.161-3.936c4.011-3.445,10.818-6.789,21.618-5.413,15.57,1.983,23.887,10.827,22.191,24.137l-4.1,32.147a6.709,6.709,0,1,1-13.311-1.7c-4.079,4.968-9.843,6.148-17.378,5.187-12.306-1.568-19.493-10.267-18.053-21.569,1.488-11.678,11.673-16.505,22.6-15.113l16.451,2.095.288-2.26c.72-5.65-2.944-9.946-10.227-10.874C271.1,446.35,266.884,448.366,263.456,450.226Zm21.314,24.026.448-3.515-14.692-1.871c-5.525-.7-8.875,1.548-9.451,6.07-.608,4.772,2.415,8.092,9.447,8.988C277.177,484.77,283.873,481.284,284.769,474.251Z" transform="translate(-173.427 -419.808)" fill="#562e91"/><path d="M308.429,441.78a6.709,6.709,0,0,1,13.418,0v10.634h5.7a5.7,5.7,0,0,1,0,11.393h-5.7v30.634a4.662,4.662,0,0,0,4.81,4.557,5.95,5.95,0,0,1,0,11.9c-11.266,0-18.228-7.216-18.228-17.216V463.807h-2.912a5.7,5.7,0,1,1,0-11.393h2.912Z" transform="translate(-166.027 -419.753)" fill="#562e91"/><path d="M346.092,440.938l5.211,29.031c1.029,5.731,4.007,10.855,13.226,9.2,9.1-1.633,10.107-7.473,9.078-13.2L368.4,436.934a6.835,6.835,0,1,1,13.456-2.415l5.211,29.031c2.192,12.211-.405,24.252-20.341,27.831-20.06,3.6-26.682-6.785-28.874-19l-5.211-29.031a6.835,6.835,0,1,1,13.456-2.415Z" transform="translate(-161.416 -420.625)" fill="#562e91"/><path d="M403.906,448.93c2.4-4.937,8.354-8.1,13.67-8.1a6.456,6.456,0,1,1,0,12.911c-8.734,0-13.67,5.57-13.67,14.051v26.33a6.836,6.836,0,0,1-13.672,0V448.3a6.836,6.836,0,1,1,13.672,0Z" transform="translate(-153.28 -418.942)" fill="#562e91"/><path d="M435.429,455.68A6.045,6.045,0,0,1,425.682,451a6.265,6.265,0,0,1,1.645-4.177c3.545-3.924,9.874-8.1,20.761-8.1,15.7,0,25.064,7.721,25.064,21.14v32.406a6.709,6.709,0,0,1-13.418,0c-3.417,5.444-8.988,7.342-16.583,7.342-12.406,0-20.634-7.722-20.634-19.115,0-11.773,9.493-17.848,20.506-17.848h16.584v-2.28c0-5.7-4.178-9.493-11.519-9.493C442.518,450.871,438.593,453.4,435.429,455.68Zm24.179,21.14v-3.544H444.8c-5.57,0-8.608,2.658-8.608,7.216,0,4.81,3.417,7.722,10.507,7.722C453.4,488.214,459.608,483.91,459.608,476.82Z" transform="translate(-148.729 -419.239)" fill="#562e91"/><path d="M492.658,428.483v69.371a2.445,2.445,0,0,0,2.4,2.279,6.329,6.329,0,1,1,0,12.658c-9.873,0-16.076-5.57-16.076-16.2v-68.1a6.836,6.836,0,1,1,13.672,0Z" transform="translate(-140.768 -421.646)" fill="#562e91"/></g></g></svg>