<svg xmlns="http://www.w3.org/2000/svg" xmlns:xlink="http://www.w3.org/1999/xlink" width="420.665" height="372.62" viewBox="0 0 420.665 372.62"><defs><filter id="a" x="24.942" y="0" width="299.801" height="81.775" filterUnits="userSpaceOnUse"><feOffset dy="2" input="SourceAlpha"/><feGaussianBlur stdDeviation="4" result="b"/><feFlood flood-color="#40236b"/><feComposite operator="in" in2="b"/><feComposite in="SourceGraphic"/></filter><filter id="c" x="51.286" y="289.818" width="319.394" height="82.802" filterUnits="userSpaceOnUse"><feOffset dy="2" input="SourceAlpha"/><feGaussianBlur stdDeviation="4" result="d"/><feFlood flood-color="#40236b"/><feComposite operator="in" in2="d"/><feComposite in="SourceGraphic"/></filter></defs><g transform="translate(-216.314 -985.163)"><g transform="matrix(1, 0, 0, 1, 216.31, 985.16)" filter="url(#a)"><path d="M24.12-34.14h4.62c7.68,0,12.3,3.54,12.3,13.98S36.42-6.24,28.74-6.24H24.12Zm-3.48-6.24a3.482,3.482,0,0,0-3.48,3.48V-3.48A3.483,3.483,0,0,0,20.64,0h8.1c11.94,0,19.5-5.34,19.5-20.16s-7.56-20.22-19.5-20.22ZM52.02-13.74C52.02-3.72,57.18.78,65.52.78c5.46,0,8.64-2.34,9.66-3.3A3,3,0,0,0,76.2-4.74a2.817,2.817,0,0,0-2.82-2.82,3.232,3.232,0,0,0-1.92.66,10.267,10.267,0,0,1-5.94,1.86c-3.96,0-7.02-1.98-7.02-6.3H73.32c3.66,0,3.66-2.58,3.66-4.8,0-4.14-1.86-11.94-12-11.94C56.82-28.08,52.02-22.92,52.02-13.74Zm12.96-8.82c3.9,0,5.58,2.88,5.58,5.82H58.68C58.98-20.58,61.5-22.56,64.98-22.56Zm26.16.12a8.674,8.674,0,0,1,5.4,1.92,3.262,3.262,0,0,0,2.04.84,2.92,2.92,0,0,0,2.88-2.88,2.589,2.589,0,0,0-.6-1.8c-1.68-2.1-5.46-3.72-9.72-3.72-5.52,0-10.02,2.64-10.02,8.04,0,10.2,14.7,7.68,14.7,12.54,0,1.68-1.74,2.4-4.44,2.4a9.873,9.873,0,0,1-6.6-2.46,2.819,2.819,0,0,0-1.86-.72A2.92,2.92,0,0,0,80.04-5.4a2.792,2.792,0,0,0,.72,1.86c1.5,1.86,5.46,4.2,10.62,4.2,6.18,0,10.98-2.88,10.98-8.52,0-9.9-14.76-7.86-14.76-12.3C87.6-21.66,88.92-22.44,91.14-22.44Zm14.58,8.76c0,9.78,4.86,14.46,13.02,14.46a14.394,14.394,0,0,0,9.6-3.42,2.86,2.86,0,0,0,1.02-2.22,2.843,2.843,0,0,0-2.88-2.88,2.814,2.814,0,0,0-1.8.6,9.53,9.53,0,0,1-5.94,2.4c-4.2,0-6.48-3.18-6.48-8.94,0-5.64,2.28-8.88,6.48-8.88a6.84,6.84,0,0,1,5.34,2.34,2.892,2.892,0,0,0,2.22,1.02,2.843,2.843,0,0,0,2.88-2.88,2.833,2.833,0,0,0-.66-1.86c-1.08-1.38-4.26-4.14-9.78-4.14C110.58-28.08,105.72-23.46,105.72-13.68Zm31.26-14.04a3.227,3.227,0,0,0-3.24,3.24V-10.5c0,5.88,2.22,11.28,11.88,11.28,9.6,0,11.82-5.4,11.82-11.28V-24.48a3.227,3.227,0,0,0-3.24-3.24,3.227,3.227,0,0,0-3.24,3.24V-10.5c0,2.76-.96,5.4-5.34,5.4-4.44,0-5.4-2.64-5.4-5.4V-24.48A3.227,3.227,0,0,0,136.98-27.72Zm32.64,8.22a8.259,8.259,0,0,1,5.94-3.06c4.08,0,6.42,3,6.42,8.94,0,5.88-2.28,8.88-6.42,8.88-3.48,0-5.94-2.34-5.94-6.48Zm6.6-8.58a9.838,9.838,0,0,0-6.6,2.4v-13.8a3.227,3.227,0,0,0-3.24-3.24,3.227,3.227,0,0,0-3.24,3.24v28.26c0,7.98,5.16,12,12.42,12,8.1,0,12.84-4.62,12.84-14.4S183.78-28.08,176.22-28.08Zm23.46,3.6a3.227,3.227,0,0,0-3.24-3.24,3.227,3.227,0,0,0-3.24,3.24V-2.76A3.227,3.227,0,0,0,196.44.48a3.227,3.227,0,0,0,3.24-3.24V-15.24c0-4.02,2.34-6.66,6.48-6.66a3.073,3.073,0,0,0,3.06-3.06,3.073,3.073,0,0,0-3.06-3.06,7.471,7.471,0,0,0-6.48,3.84Zm11.16,10.74C210.84-3.72,216,.78,224.34.78c5.46,0,8.64-2.34,9.66-3.3a3,3,0,0,0,1.02-2.22,2.817,2.817,0,0,0-2.82-2.82,3.232,3.232,0,0,0-1.92.66,10.267,10.267,0,0,1-5.94,1.86c-3.96,0-7.02-1.98-7.02-6.3h14.82c3.66,0,3.66-2.58,3.66-4.8,0-4.14-1.86-11.94-12-11.94C215.64-28.08,210.84-22.92,210.84-13.74Zm12.96-8.82c3.9,0,5.58,2.88,5.58,5.82H217.5C217.8-20.58,220.32-22.56,223.8-22.56Zm33.6-20.16a3.227,3.227,0,0,0-3.24,3.24V-7.2c0,5.04,2.94,7.68,7.62,7.68a2.971,2.971,0,0,0,3-3,2.971,2.971,0,0,0-3-3,1.159,1.159,0,0,1-1.14-1.08V-39.48A3.227,3.227,0,0,0,257.4-42.72Zm21.78,20.4c3.48,0,5.46,1.8,5.46,4.5v1.08h-7.86c-5.22,0-9.72,2.88-9.72,8.46,0,5.4,3.9,9.06,9.78,9.06,3.6,0,6.24-.9,7.86-3.48A3.2,3.2,0,0,0,287.88.48a3.2,3.2,0,0,0,3.18-3.18V-18.06c0-6.36-4.44-10.02-11.88-10.02-5.16,0-8.16,1.98-9.84,3.84a2.97,2.97,0,0,0-.78,1.98,2.817,2.817,0,0,0,2.82,2.82,2.831,2.831,0,0,0,1.8-.6A9.915,9.915,0,0,1,279.18-22.32Zm-.66,17.7c-3.36,0-4.98-1.38-4.98-3.66,0-2.16,1.44-3.42,4.08-3.42h7.02v1.68C284.64-6.66,281.7-4.62,278.52-4.62Z" transform="matrix(1, -0.05, 0.05, 1, 22.04, 67.89)" fill="#dcc8fa"/></g><g transform="matrix(1, 0, 0, 1, 216.31, 985.16)" filter="url(#c)"><path d="M18.54-15.72c7.14,0,12.6-4.08,12.6-12.36,0-8.4-5.58-12.3-12.6-12.3H7.08A3.482,3.482,0,0,0,3.6-36.9V-3A3.483,3.483,0,0,0,7.08.48,3.483,3.483,0,0,0,10.56-3V-15.72ZM18-34.14c3.66,0,5.94,2.1,5.94,6.06,0,3.9-2.22,6.12-5.94,6.12H10.56V-34.14ZM45.66-22.32c3.48,0,5.46,1.8,5.46,4.5v1.08H43.26c-5.22,0-9.72,2.88-9.72,8.46,0,5.4,3.9,9.06,9.78,9.06,3.6,0,6.24-.9,7.86-3.48A3.2,3.2,0,0,0,54.36.48,3.2,3.2,0,0,0,57.54-2.7V-18.06c0-6.36-4.44-10.02-11.88-10.02-5.16,0-8.16,1.98-9.84,3.84a2.97,2.97,0,0,0-.78,1.98,2.817,2.817,0,0,0,2.82,2.82,2.831,2.831,0,0,0,1.8-.6A9.915,9.915,0,0,1,45.66-22.32ZM45-4.62c-3.36,0-4.98-1.38-4.98-3.66,0-2.16,1.44-3.42,4.08-3.42h7.02v1.68C51.12-6.66,48.18-4.62,45-4.62ZM69.72-24.48a3.227,3.227,0,0,0-3.24-3.24,3.227,3.227,0,0,0-3.24,3.24V-2.76A3.227,3.227,0,0,0,66.48.48a3.227,3.227,0,0,0,3.24-3.24V-15.24c0-4.02,2.34-6.66,6.48-6.66a3.073,3.073,0,0,0,3.06-3.06,3.073,3.073,0,0,0-3.06-3.06,7.471,7.471,0,0,0-6.48,3.84Zm23.1,2.16c3.48,0,5.46,1.8,5.46,4.5v1.08H90.42c-5.22,0-9.72,2.88-9.72,8.46,0,5.4,3.9,9.06,9.78,9.06,3.6,0,6.24-.9,7.86-3.48A3.2,3.2,0,0,0,101.52.48,3.2,3.2,0,0,0,104.7-2.7V-18.06c0-6.36-4.44-10.02-11.88-10.02-5.16,0-8.16,1.98-9.84,3.84a2.97,2.97,0,0,0-.78,1.98,2.817,2.817,0,0,0,2.82,2.82,2.831,2.831,0,0,0,1.8-.6A9.915,9.915,0,0,1,92.82-22.32Zm-.66,17.7c-3.36,0-4.98-1.38-4.98-3.66,0-2.16,1.44-3.42,4.08-3.42h7.02v1.68C98.28-6.66,95.34-4.62,92.16-4.62Zm33.9-22.62h-1.38a2.689,2.689,0,0,0-2.7,2.7,2.689,2.689,0,0,0,2.7,2.7h1.38V-7.68c0,4.74,3.3,8.16,8.64,8.16a2.817,2.817,0,0,0,2.82-2.82,2.817,2.817,0,0,0-2.82-2.82,2.21,2.21,0,0,1-2.28-2.16V-21.84h2.7a2.689,2.689,0,0,0,2.7-2.7,2.689,2.689,0,0,0-2.7-2.7h-2.7v-5.04a3.2,3.2,0,0,0-3.18-3.18,3.2,3.2,0,0,0-3.18,3.18Zm19.2-.48a3.227,3.227,0,0,0-3.24,3.24V-10.5c0,5.88,2.22,11.28,11.88,11.28,9.6,0,11.82-5.4,11.82-11.28V-24.48a3.227,3.227,0,0,0-3.24-3.24,3.227,3.227,0,0,0-3.24,3.24V-10.5c0,2.76-.96,5.4-5.34,5.4-4.44,0-5.4-2.64-5.4-5.4V-24.48A3.227,3.227,0,0,0,145.26-27.72Zm46.2,8.22a8.259,8.259,0,0,1,5.94-3.06c4.08,0,6.42,3,6.42,8.94,0,5.88-2.28,8.88-6.42,8.88-3.48,0-5.94-2.34-5.94-6.48Zm6.6-8.58a9.838,9.838,0,0,0-6.6,2.4v-13.8a3.227,3.227,0,0,0-3.24-3.24,3.227,3.227,0,0,0-3.24,3.24v28.26c0,7.98,5.16,12,12.42,12,8.1,0,12.84-4.62,12.84-14.4S205.62-28.08,198.06-28.08Zm15.78,14.34C213.84-3.72,219,.78,227.34.78c5.46,0,8.64-2.34,9.66-3.3a3,3,0,0,0,1.02-2.22,2.817,2.817,0,0,0-2.82-2.82,3.232,3.232,0,0,0-1.92.66,10.267,10.267,0,0,1-5.94,1.86c-3.96,0-7.02-1.98-7.02-6.3h14.82c3.66,0,3.66-2.58,3.66-4.8,0-4.14-1.86-11.94-12-11.94C218.64-28.08,213.84-22.92,213.84-13.74Zm12.96-8.82c3.9,0,5.58,2.88,5.58,5.82H220.5C220.8-20.58,223.32-22.56,226.8-22.56Zm22.98,3.06a8.259,8.259,0,0,1,5.94-3.06c4.08,0,6.42,3,6.42,8.94,0,5.88-2.28,8.88-6.42,8.88-3.48,0-5.94-2.34-5.94-6.48Zm6.6-8.58a9.838,9.838,0,0,0-6.6,2.4v-13.8a3.227,3.227,0,0,0-3.24-3.24,3.227,3.227,0,0,0-3.24,3.24v28.26c0,7.98,5.16,12,12.42,12,8.1,0,12.84-4.62,12.84-14.4S263.94-28.08,256.38-28.08Zm15.78,14.34c0,10.02,5.16,14.52,13.5,14.52,5.46,0,8.64-2.34,9.66-3.3a3,3,0,0,0,1.02-2.22,2.817,2.817,0,0,0-2.82-2.82,3.232,3.232,0,0,0-1.92.66,10.267,10.267,0,0,1-5.94,1.86c-3.96,0-7.02-1.98-7.02-6.3h14.82c3.66,0,3.66-2.58,3.66-4.8,0-4.14-1.86-11.94-12-11.94C276.96-28.08,272.16-22.92,272.16-13.74Zm12.96-8.82c3.9,0,5.58,2.88,5.58,5.82H278.82C279.12-20.58,281.64-22.56,285.12-22.56Zm-3.48-8.28a1.867,1.867,0,0,0,2.76,0l5.88-5.4c.96-.9,1.08-2.34-.24-3.6-1.2-1.2-2.76-1.26-3.6-.18l-5.1,6.48A1.835,1.835,0,0,0,281.64-30.84Z" transform="matrix(1, -0.05, 0.05, 1, 61.93, 358.03)" fill="#dcc8fa"/></g><g transform="translate(405.37 -1022.256)"><path d="M-147.968,2158.167a21.339,21.339,0,0,1-9.1-8.446,20.936,20.936,0,0,1-3.123-11.736,2.72,2.72,0,0,1,2.877-2.555,2.723,2.723,0,0,1,2.221,1.4l.092.168a40.15,40.15,0,0,0,5.194,7.581,47.748,47.748,0,0,0,6.349,5.82l.165.132a4.505,4.505,0,0,1,.759,6.328,4.507,4.507,0,0,1-5.433,1.307Z" transform="translate(16.952 27.691)" fill="#fff"/><path d="M-23.559,2220.335a21.334,21.334,0,0,1-10.009,7.345,20.951,20.951,0,0,1-12.115.856,2.721,2.721,0,0,1-1.965-3.307,2.718,2.718,0,0,1,1.8-1.916l.183-.059a40.132,40.132,0,0,0,8.423-3.674,47.883,47.883,0,0,0,6.912-5.137l.162-.138a4.506,4.506,0,0,1,6.357.446,4.506,4.506,0,0,1,.259,5.582Z" transform="translate(83.033 73.387)" fill="#ffdc4e"/><path d="M-135.113,2101.448V2111.7l-.225.224-21.51,2.367c-.114,7.319-.564,67.231-.9,67.231l-13.289-1.35c-.224,0-.224,0-.224-.338,0-21.849,1.351-42.908,1.351-64.643l-18.244.451-.225-.226-.675-10.7a.219.219,0,0,1,.224-.224l53.494-3.266h.225Z" transform="translate(0 7.595)" fill="#fff"/><path d="M-144.739,2106.394a28.673,28.673,0,0,1,22.973-11.375c.9,0,1.8.115,2.816.115v.111c10.248,3.942,20.384,8.784,25.339,17.344,2.815,5.406,3.716,11.486,4.391,17.455,0,0,.791,11.149-1.915,19.6a37.171,37.171,0,0,1-2.477,5.4c-5.18,10.022-11.6,19.6-22.524,21.284a20.459,20.459,0,0,1-3.715.227,31.111,31.111,0,0,1-22.3-9.685,36.553,36.553,0,0,1-8.447-13.4c-1.915-3.265-2.477-10.811-2.7-16.442C-154.425,2126.214-151.271,2114.5-144.739,2106.394Z" transform="translate(20.877 3.95)" fill="#fff"/><path d="M-110.022,2175.486v-.224c1.915-7.095,3.605-13.627,5.407-20.609,4.842-18.357,9.684-37.275,15.09-55.97,0-.113.225-.113.225-.113,3.153-.226,7.771-.451,11.375-.451a.11.11,0,0,1,.113.113c9.235,28.493,14.978,55.07,21.848,77.369v.224h-.9c-.9.226-9.122.563-10.924.563-.113,0-.113,0-.227-.112l-6.531-25.79a60.62,60.62,0,0,0-7.769-.338c-3.042-.113-6.42-.113-9.8-.451-1.578,4.731-2.7,9.8-4.055,14.867-.9,3.829-1.915,7.882-3.04,11.6,0,.113-.113.113-.225.113-1.127,0-9.347-.564-10.473-.789Z" transform="translate(46.436 5.771)" fill="#fff"/><path d="M-72.327,2121.283c0-10.024,0-18.92-.113-28.944,0-.111,0-.111.113-.111A.222.222,0,0,1-72.1,2092h9.684a1.145,1.145,0,0,1,.114.338c.224,18.02,1.688,34.46,2.927,51.692.337,4.391.789,8.9,1.013,13.513,4.844,1.578,9.8,1.691,14.866,1.914,3.493.114,7.095.338,10.473.789a.417.417,0,0,1,.227.338v4.166c0,1.915.111,4.167,0,6.533v.113c-6.984-.113-17.231-.787-25.453-1.125l-3.04-.338c-3.829-.113-6.757-.113-9.235,0h-.338v-.113C-71.764,2153.83-72.44,2137.275-72.327,2121.283Z" transform="translate(68.517 2.177)" fill="#fff"/><path d="M-39.49,2131.5c0-10.024,0-18.92-.113-28.944,0-.111,0-.111.113-.111a.222.222,0,0,1,.225-.227h9.684a1.14,1.14,0,0,1,.114.338c.224,18.02,1.688,34.461,2.926,51.692.338,4.391.789,8.9,1.014,13.513,4.844,1.578,9.8,1.69,14.866,1.915,3.491.114,7.095.338,10.473.789a.417.417,0,0,1,.225.338v4.166c0,1.915.113,4.167,0,6.533v.113c-6.982-.113-17.23-.787-25.451-1.125l-3.04-.338c-3.829-.113-6.758-.113-9.235,0h-.338v-.113C-38.927,2164.043-39.6,2147.488-39.49,2131.5Z" transform="translate(87.81 8.178)" fill="#fff"/><path d="M1.39,2174.307l-12.162-1.687c-.451,0-.338-11.6-.338-13.628,0-8.447.562-65.207,1.915-65.207H3.417l.225.226-.676,19.371c-.338,20.5-1.014,40.879-1.351,60.7C1.615,2174.307,1.5,2174.307,1.39,2174.307Z" transform="translate(104.543 3.225)" fill="#fff"/><path d="M59.787,2090.549V2100.8l-.227.226-21.51,2.365c-.113,7.32-.562,67.233-.9,67.233l-13.289-1.352c-.225,0-.225,0-.225-.338,0-21.848,1.353-42.907,1.353-64.642l-18.244.451-.225-.228-.676-10.7a.221.221,0,0,1,.225-.225l53.492-3.264h.227Z" transform="translate(114.511 1.192)" fill="#fff"/><path d="M42,2168.219l-.019-.224c1.273-7.238,2.373-13.894,3.545-21.01,3.185-18.715,6.32-37.991,10.035-57.094-.01-.111.214-.132.214-.132,3.121-.507,7.7-1.143,11.289-1.464a.109.109,0,0,1,.122.1c11.74,27.555,19.833,53.513,28.666,75.11l.019.224-.9.081c-.876.3-9.035,1.375-10.83,1.535-.113.009-.113.009-.235-.091l-8.808-25.1a60.555,60.555,0,0,0-7.769.356c-3.037.158-6.4.46-9.8.425-1.148,4.852-1.818,10-2.712,15.169-.556,3.894-1.2,8.023-1.992,11.824.01.113-.1.124-.214.133-1.122.1-9.362.271-10.5.149Z" transform="translate(135.741 0)" fill="#fff"/><g transform="translate(-11.903 2193.639)"><path d="M-64.953,2241.437l-12.164-1.689c-.451,0-.337-11.6-.337-13.627,0-8.446.562-65.205,1.915-65.205h12.613l.225.225-.676,19.372c-.338,20.5-1.014,40.879-1.353,60.7C-64.729,2241.437-64.84,2241.437-64.953,2241.437Z" transform="translate(77.466 -2150.972)" fill="#ffdc4e"/><path d="M-60.911,2247.646c-.225-7.882-1.353-45.723-1.353-65.769,0-6.98.113-11.711.451-12.611,24.662,0,28.379,4.053,35.924,11.373l.225.451c5.18,4.842,8.558,18.919,8.558,33.222a35.189,35.189,0,0,1-7.769,22.41c-7.771,9.573-20.946,10.924-29.393,10.924Z" transform="translate(86.398 -2146.066)" fill="#ffdc4e"/><path d="M-30.5,2236.132c1.464-23.65,1.351-47.412,4.391-71.738,14.077-1.577,26.577-2.477,39.192-3.266,0,0,.338,0,.338.224l1.126,10.924c-9.573,1.241-19.146,3.154-28.717,3.6-1.127,5.068-.9,11.262-1.576,17.117a26.33,26.33,0,0,0,6.755.9c4.282,0,8.335-.562,12.615-.562.224,0,.224,0,.224.227v8.784c0,1.125-15.653,2.364-19.593,2.364l-1.127,19.933a39.831,39.831,0,0,1,5.518,1.127l.225-.227,20.5,2.141c.338,0,.676-.114.9-.114.451,0,4.5.453,4.5.9l-1.126,10.137a.219.219,0,0,1-.224.224c-15.429,0-28.719-2.14-43.7-2.7Z" transform="translate(105.06 -2150.847)" fill="#ffdc4e"/><path d="M1.858,2232.021v-.225c1.915-7.1,3.605-13.628,5.406-20.608,4.844-18.358,9.686-37.277,15.091-55.972,0-.111.225-.111.225-.111,3.153-.227,7.769-.452,11.375-.452a.111.111,0,0,1,.113.115c9.235,28.491,14.978,55.069,21.848,77.367v.226h-.9c-.9.224-9.124.562-10.924.562-.114,0-.114,0-.227-.111l-6.531-25.79a60.676,60.676,0,0,0-7.771-.338c-3.04-.113-6.42-.113-9.8-.451-1.576,4.729-2.7,9.8-4.053,14.866-.9,3.829-1.915,7.884-3.04,11.6,0,.113-.114.113-.225.113-1.127,0-9.349-.565-10.475-.789Z" transform="translate(124.072 -2154.652)" fill="#ffdc4e"/><path d="M38.77,2190.125c0-10.022,0-18.92-.113-28.943,0-.112,0-.112.113-.112a.221.221,0,0,1,.225-.226h9.684a1.127,1.127,0,0,1,.114.338c.224,18.019,1.688,34.46,2.926,51.69.338,4.393.789,8.9,1.014,13.515,4.844,1.577,9.8,1.689,14.866,1.915,3.493.113,7.095.338,10.473.789a.414.414,0,0,1,.227.338v4.166c0,1.915.111,4.167,0,6.531v.112c-6.984-.112-17.231-.787-25.453-1.125l-3.04-.336c-3.829-.114-6.758-.114-9.235,0h-.338v-.114C39.333,2222.671,38.657,2206.116,38.77,2190.125Z" transform="translate(145.693 -2151.014)" fill="#ffdc4e"/></g></g><path d="M-869.462,1797.585c.162,1.456,8.306,1.721,8.306,1.721s.407,8.21,1.864,8.513,4.971-8.043,4.971-8.043,6.574,2.369,7.527.981-3.274-7.137-3.274-7.137,4.025-6.758,2.783-8.088-8.321,3.318-8.321,3.318-5.963-4.662-7.294-3.7.667,7.553.667,7.553S-869.625,1796.129-869.462,1797.585Z" transform="translate(1190.881 -584.017)" fill="#e7dff2"/><path d="M-869.462,1797.585c.162,1.456,8.306,1.721,8.306,1.721s.407,8.21,1.864,8.513,4.971-8.043,4.971-8.043,6.574,2.369,7.527.981-3.274-7.137-3.274-7.137,4.025-6.758,2.783-8.088-8.321,3.318-8.321,3.318-5.963-4.662-7.294-3.7.667,7.553.667,7.553S-869.625,1796.129-869.462,1797.585Z" transform="translate(1434.06 -772.483)" fill="#e7dff2"/></g></svg>