<svg xmlns="http://www.w3.org/2000/svg" width="251.694" height="210.036" viewBox="0 0 251.694 210.036"><g transform="translate(-804 -1215)"><g transform="translate(513.894 614.797)"><path d="M310.853,657.613v29.623a8.1,8.1,0,0,1-16.2,0V608.3a8.1,8.1,0,0,1,8.1-8.1h26.686c16.347,0,29.336,9.078,29.336,28.631,0,19.282-12.712,28.779-29.336,28.779Zm0-42.885v28.36h17.324c8.664,0,13.828-5.164,13.828-14.254,0-9.214-5.308-14.106-13.828-14.106Z" transform="translate(3.2)" fill="#562e91"/><path d="M350.371,620.645l5.331,32.116c1.053,6.34,4.264,12.035,14.464,10.341,10.061-1.669,11.259-8.1,10.208-14.435l-5.331-32.118a7.542,7.542,0,0,1,14.88-2.47l5.331,32.116c2.241,13.5-.793,26.758-22.844,30.417-22.19,3.685-29.352-7.88-31.593-21.38l-5.331-32.116a7.545,7.545,0,0,1,14.886-2.472Z" transform="translate(31.892 5.331)" fill="#562e91"/><path d="M393.961,626.029c2.656-5.449,9.219-8.941,15.089-8.941a7.121,7.121,0,1,1,0,14.242c-9.64,0-15.089,6.153-15.089,15.515V675.9a7.545,7.545,0,0,1-15.089,0V625.324a7.545,7.545,0,0,1,15.089,0Z" transform="translate(62.528 11.894)" fill="#562e91"/><path d="M428.006,609.356c23.316-3.711,30.451,13.55,31.966,23.064.813,5.112,1.757,11.045-6.657,12.383l-34.078,5.423c1.58,9.93,9.337,13.361,18.442,11.912A23.939,23.939,0,0,0,450.66,655.7a7.523,7.523,0,0,1,4.174-2.219,6.551,6.551,0,0,1,7.518,5.449,6.978,6.978,0,0,1-1.536,5.474c-2,2.587-8.447,9.131-21.007,11.13-19.176,3.051-32.686-5.408-36.352-28.448C400.1,625.972,409.246,612.342,428.006,609.356Zm-10.336,28.391,27.322-4.346c-1.077-6.763-6-12.776-14.967-11.35C422.027,623.323,416.957,628.806,417.671,637.746Z" transform="translate(79.365 6.085)" fill="#562e91"/><path d="M326.57,678c-11.6,0-15.926,5.449-15.926,11.034,0,18.3,50.989,9.782,50.989,44.705,0,17.051-12.011,27.664-35.063,27.664-16.627,0-29.9-8.248-35.345-17.041a7.511,7.511,0,0,1,6.286-11.456c3.077,0,4.749,1.672,6.148,3.071,5.87,5.87,13.269,10.613,22.911,10.613,12.712,0,18.859-4.186,18.859-12.853,0-20.4-50.989-11.035-50.989-44.705,0-13.833,9.92-25.561,32.13-25.561,13.968,0,26.122,5.164,31.714,13.127a8.122,8.122,0,0,1,1.393,4.471,7.483,7.483,0,0,1-7.542,7.406c-1.955,0-3.912-1.116-6-3.071C341.8,681.215,334.532,678,326.57,678Z" transform="translate(0 44.566)" fill="#562e91"/><path d="M377.6,752.067,356.79,724.13l-4.471,3.491v20.124A7.28,7.28,0,0,1,344.772,755a7.2,7.2,0,0,1-7.542-7.257V661.678a7.2,7.2,0,0,1,7.542-7.257,7.28,7.28,0,0,1,7.547,7.257V711L377.6,691.163a7.381,7.381,0,0,1,4.892-1.82,7.221,7.221,0,0,1,7.264,7.269,7.327,7.327,0,0,1-2.794,5.722l-18.3,13.969L389.2,743.274a7.487,7.487,0,0,1,1.536,4.471A7.211,7.211,0,0,1,383.471,755,7.124,7.124,0,0,1,377.6,752.067Z" transform="translate(33.195 38.192)" fill="#562e91"/><path d="M377.56,679.128c0-6.427,3.215-9.214,8.941-9.214,5.87,0,9.083,2.787,9.083,9.214,0,5.449-3.213,8.8-9.083,8.8C380.775,687.931,377.56,684.577,377.56,679.128Zm16.489,74.463a7.545,7.545,0,0,1-15.089,0V703.016a7.545,7.545,0,0,1,15.089,0Z" transform="translate(61.604 49.106)" fill="#562e91"/><path d="M452.875,697.078v34.934a7.276,7.276,0,0,1-7.542,7.258c-4.471,0-7.542-3.071-7.542-7.258V699.877c0-7.963-3.213-13.41-12.3-13.41-10.477,0-13.969,6.141-13.969,14.388v31.157a7.55,7.55,0,0,1-15.089,0V681.154a7.545,7.545,0,0,1,15.089,0c2.655-4.05,8.52-8.384,17.881-8.384C448.4,672.77,452.875,684.931,452.875,697.078Z" transform="translate(74.902 51.118)" fill="#562e91"/></g><path d="M-23.559,2220.335a21.334,21.334,0,0,1-10.009,7.345,20.951,20.951,0,0,1-12.115.856,2.721,2.721,0,0,1-1.965-3.307,2.718,2.718,0,0,1,1.8-1.916l.183-.059a40.132,40.132,0,0,0,8.423-3.674,47.883,47.883,0,0,0,6.912-5.137l.162-.138a4.506,4.506,0,0,1,6.357.446,4.506,4.506,0,0,1,.259,5.582Z" transform="matrix(0.259, 0.966, -0.966, 0.259, 3043.743, 754.094)" fill="#562e91"/><path d="M-23.559,2220.335a21.334,21.334,0,0,1-10.009,7.345,20.951,20.951,0,0,1-12.115.856,2.721,2.721,0,0,1-1.965-3.307,2.718,2.718,0,0,1,1.8-1.916l.183-.059a40.132,40.132,0,0,0,8.423-3.674,47.883,47.883,0,0,0,6.912-5.137l.162-.138a4.506,4.506,0,0,1,6.357.446,4.506,4.506,0,0,1,.259,5.582Z" transform="matrix(-0.105, -0.995, 0.995, -0.105, -1171.464, 1540.084)" fill="#562e91"/></g></svg>