<svg xmlns="http://www.w3.org/2000/svg" width="64" height="64" viewBox="0 0 64 64"><g transform="translate(0)"><g transform="translate(0)"><path d="M63.621,28.077c7-.22,10.007,1.19,15.024,3.814C83.475,34.419,86.1,35.98,89.293,40a2.1,2.1,0,0,0,.335-.106c.166-.07.4-.434,1.156.51s5.371,9.406,6.236,13.507.346,9.269-1.557,15.5-2.156,9.675-8.3,15.476c-2.735,2.889-6.063,3.839-9.2,4.936-.4.14-.715.864-1.2,1.02-2.5.813-7.875,1.206-11.512,1.206-8.658,0-17.449-2.444-22.985-8.022s-8.517-14.285-8.822-25.443c-.283-10.322,2.184-15,7.526-20,.381-.357.83-1.753,1.3-2.148A36.106,36.106,0,0,1,63.621,28.077Z" transform="translate(-33.425 -28.054)" fill="#562e91"/><g transform="translate(16 16)"><rect width="32" height="32" fill="none"/><path d="M174,12.382l13.093,8.951,2.687-4.476-10.5-6.266L190,3.9,187.655,0,174.1,7.736H174Z" transform="translate(-166.001 5.333)" fill="#fff"/></g></g></g></svg>