<svg xmlns="http://www.w3.org/2000/svg" xmlns:xlink="http://www.w3.org/1999/xlink" width="531.758" height="238.677" viewBox="0 0 531.758 238.677"><defs><filter id="a" x="5.018" y="144.478" width="493.133" height="94.199" filterUnits="userSpaceOnUse"><feOffset dy="2" input="SourceAlpha"/><feGaussianBlur stdDeviation="4" result="b"/><feFlood flood-color="#40236b"/><feComposite operator="in" in2="b"/><feComposite in="SourceGraphic"/></filter></defs><g transform="translate(-563.776 -149.306)"><g transform="translate(560.505 -658.354)"><rect width="70.435" height="80.02" transform="translate(102 953)" fill="none"/><g transform="matrix(1, 0, 0, 1, 3.27, 807.66)" filter="url(#a)"><path d="M30-24.336c-3.536,0-5.772,1.144-7.436,3.38-1.3-2.028-3.432-3.38-7.7-3.38a7.7,7.7,0,0,0-6.656,3.12,2.8,2.8,0,0,0-2.808-2.808A2.8,2.8,0,0,0,2.6-21.216V-2.288A2.68,2.68,0,0,0,5.408.416a2.68,2.68,0,0,0,2.808-2.7v-11.6c0-3.068,1.3-5.356,5.2-5.356,3.38,0,4.576,2.028,4.576,4.992v11.96A2.65,2.65,0,0,0,20.8.416a2.71,2.71,0,0,0,2.808-2.7V-14.3c0-2.912,1.456-4.94,5.2-4.94,3.38,0,4.576,2.028,4.576,4.992v11.96a2.65,2.65,0,0,0,2.808,2.7A2.71,2.71,0,0,0,39-2.288v-13C39-19.812,37.076-24.336,30-24.336Zm23.244,4.992c3.016,0,4.732,1.56,4.732,3.9v.936H51.168c-4.524,0-8.424,2.5-8.424,7.332,0,4.68,3.38,7.852,8.476,7.852,3.12,0,5.408-.78,6.812-3.016A2.774,2.774,0,0,0,60.788.416,2.774,2.774,0,0,0,63.544-2.34V-15.652c0-5.512-3.848-8.684-10.3-8.684-4.472,0-7.072,1.716-8.528,3.328a2.574,2.574,0,0,0-.676,1.716,2.441,2.441,0,0,0,2.444,2.444,2.454,2.454,0,0,0,1.56-.52A8.593,8.593,0,0,1,53.248-19.344ZM52.676-4C49.764-4,48.36-5.2,48.36-7.176c0-1.872,1.248-2.964,3.536-2.964H57.98v1.456C57.98-5.772,55.432-4,52.676-4ZM50.8-26.728a1.618,1.618,0,0,0,2.392,0l5.1-4.68a2.024,2.024,0,0,0-.208-3.12c-1.04-1.04-2.392-1.092-3.12-.156l-4.42,5.616A1.59,1.59,0,0,0,50.8-26.728Zm26.052,7.28a7.518,7.518,0,0,1,4.68,1.664,2.827,2.827,0,0,0,1.768.728,2.531,2.531,0,0,0,2.5-2.5,2.244,2.244,0,0,0-.52-1.56c-1.456-1.82-4.732-3.224-8.424-3.224-4.784,0-8.684,2.288-8.684,6.968,0,8.84,12.74,6.656,12.74,10.868,0,1.456-1.508,2.08-3.848,2.08a8.556,8.556,0,0,1-5.72-2.132,2.443,2.443,0,0,0-1.612-.624,2.531,2.531,0,0,0-2.5,2.5,2.419,2.419,0,0,0,.624,1.612c1.3,1.612,4.732,3.64,9.2,3.64,5.356,0,9.516-2.5,9.516-7.384,0-8.58-12.792-6.812-12.792-10.66C73.788-18.772,74.932-19.448,76.856-19.448Zm31.356-1.768a2.8,2.8,0,0,0-2.808-2.808,2.8,2.8,0,0,0-2.808,2.808V-2.392A2.8,2.8,0,0,0,105.4.416a2.8,2.8,0,0,0,2.808-2.808ZM105.4-26.832a3.039,3.039,0,0,0,3.38-3.276c0-2.392-1.2-3.432-3.38-3.432-2.132,0-3.328,1.04-3.328,3.432A3.023,3.023,0,0,0,105.4-26.832Zm35.412,2.5c-3.536,0-5.772,1.144-7.436,3.38-1.3-2.028-3.432-3.38-7.7-3.38a7.7,7.7,0,0,0-6.656,3.12,2.8,2.8,0,0,0-2.808-2.808,2.8,2.8,0,0,0-2.808,2.808V-2.288a2.68,2.68,0,0,0,2.808,2.7,2.68,2.68,0,0,0,2.808-2.7v-11.6c0-3.068,1.3-5.356,5.2-5.356,3.38,0,4.576,2.028,4.576,4.992v11.96a2.65,2.65,0,0,0,2.808,2.7,2.71,2.71,0,0,0,2.808-2.7V-14.3c0-2.912,1.456-4.94,5.2-4.94,3.38,0,4.576,2.028,4.576,4.992v11.96A2.65,2.65,0,0,0,147,.416a2.71,2.71,0,0,0,2.808-2.7v-13C149.812-19.812,147.888-24.336,140.816-24.336Zm19.812,3.12a2.8,2.8,0,0,0-2.808-2.808,2.8,2.8,0,0,0-2.808,2.808V7.644a2.808,2.808,0,1,0,5.616,0v-9.2A8.252,8.252,0,0,0,166.764.676c6.76,0,10.556-4.056,10.556-12.532s-3.744-12.48-10.556-12.48A7.7,7.7,0,0,0,160.628-21.216ZM171.6-11.8c0,5.1-1.924,7.7-5.564,7.7s-5.564-2.6-5.564-7.7c0-5.148,1.924-7.748,5.564-7.748S171.6-16.952,171.6-11.8Zm31.564,0c0-8.528-4.368-12.532-11.388-12.532s-11.388,4-11.388,12.532c0,8.476,4.368,12.48,11.388,12.48S203.164-3.328,203.164-11.8Zm-5.668,0c0,5.1-1.976,7.7-5.72,7.7s-5.72-2.6-5.72-7.7c0-5.148,1.976-7.748,5.72-7.748S197.5-16.952,197.5-11.8Zm15.392-9.412a2.8,2.8,0,0,0-2.808-2.808,2.8,2.8,0,0,0-2.808,2.808V-2.392A2.8,2.8,0,0,0,210.08.416a2.8,2.8,0,0,0,2.808-2.808V-13.208c0-3.484,2.028-5.772,5.616-5.772a2.663,2.663,0,0,0,2.652-2.652,2.663,2.663,0,0,0-2.652-2.652,6.475,6.475,0,0,0-5.616,3.328Zm14.092-2.392h-1.2a2.33,2.33,0,0,0-2.34,2.34,2.33,2.33,0,0,0,2.34,2.34h1.2V-6.656c0,4.108,2.86,7.072,7.488,7.072a2.441,2.441,0,0,0,2.444-2.444,2.441,2.441,0,0,0-2.444-2.444,1.915,1.915,0,0,1-1.976-1.872V-18.928h2.34a2.33,2.33,0,0,0,2.34-2.34,2.33,2.33,0,0,0-2.34-2.34h-2.34v-4.368a2.774,2.774,0,0,0-2.756-2.756,2.774,2.774,0,0,0-2.756,2.756Zm23.4,4.264c3.016,0,4.732,1.56,4.732,3.9v.936H248.3c-4.524,0-8.424,2.5-8.424,7.332,0,4.68,3.38,7.852,8.476,7.852,3.12,0,5.408-.78,6.812-3.016A2.774,2.774,0,0,0,257.92.416a2.774,2.774,0,0,0,2.756-2.756V-15.652c0-5.512-3.848-8.684-10.3-8.684-4.472,0-7.072,1.716-8.528,3.328a2.574,2.574,0,0,0-.676,1.716,2.441,2.441,0,0,0,2.444,2.444,2.454,2.454,0,0,0,1.56-.52A8.593,8.593,0,0,1,250.38-19.344ZM249.808-4c-2.912,0-4.316-1.2-4.316-3.172,0-1.872,1.248-2.964,3.536-2.964h6.084v1.456C255.112-5.772,252.564-4,249.808-4Zm28.08-20.332a7.7,7.7,0,0,0-6.656,3.12,2.8,2.8,0,0,0-2.808-2.808,2.8,2.8,0,0,0-2.808,2.808V-2.288a2.679,2.679,0,0,0,2.808,2.7,2.68,2.68,0,0,0,2.808-2.7v-11.6c0-3.068,1.3-5.356,5.2-5.356,3.38,0,4.576,2.028,4.576,4.992v11.96a2.65,2.65,0,0,0,2.808,2.7,2.71,2.71,0,0,0,2.808-2.7v-13C286.624-19.812,284.96-24.336,277.888-24.336Zm15.5.728h-1.2a2.33,2.33,0,0,0-2.34,2.34,2.33,2.33,0,0,0,2.34,2.34h1.2V-6.656c0,4.108,2.86,7.072,7.488,7.072a2.441,2.441,0,0,0,2.444-2.444,2.441,2.441,0,0,0-2.444-2.444A1.915,1.915,0,0,1,298.9-6.344V-18.928h2.34a2.33,2.33,0,0,0,2.34-2.34,2.33,2.33,0,0,0-2.34-2.34H298.9v-4.368a2.774,2.774,0,0,0-2.756-2.756,2.774,2.774,0,0,0-2.756,2.756Zm13.052,11.7c0,8.684,4.472,12.584,11.7,12.584a12.241,12.241,0,0,0,8.372-2.86,2.6,2.6,0,0,0,.884-1.924,2.441,2.441,0,0,0-2.444-2.444,2.8,2.8,0,0,0-1.664.572,8.9,8.9,0,0,1-5.148,1.612c-3.432,0-6.084-1.716-6.084-5.46H324.9c3.172,0,3.172-2.236,3.172-4.16,0-3.588-1.612-10.348-10.4-10.348C310.6-24.336,306.436-19.864,306.436-11.908Zm11.232-7.644c3.38,0,4.836,2.5,4.836,5.044h-10.3A5.076,5.076,0,0,1,317.668-19.552ZM349.6-21.216a2.8,2.8,0,0,0-2.808-2.808,2.8,2.8,0,0,0-2.808,2.808V7.644a2.808,2.808,0,0,0,5.616,0v-9.2A8.252,8.252,0,0,0,355.732.676c6.76,0,10.556-4.056,10.556-12.532s-3.744-12.48-10.556-12.48A7.7,7.7,0,0,0,349.6-21.216ZM360.568-11.8c0,5.1-1.924,7.7-5.564,7.7s-5.564-2.6-5.564-7.7c0-5.148,1.924-7.748,5.564-7.748S360.568-16.952,360.568-11.8Zm19.188-7.54c3.016,0,4.732,1.56,4.732,3.9v.936h-6.812c-4.524,0-8.424,2.5-8.424,7.332,0,4.68,3.38,7.852,8.476,7.852,3.12,0,5.408-.78,6.812-3.016A2.774,2.774,0,0,0,387.3.416a2.774,2.774,0,0,0,2.756-2.756V-15.652c0-5.512-3.848-8.684-10.3-8.684-4.472,0-7.072,1.716-8.528,3.328a2.574,2.574,0,0,0-.676,1.716A2.441,2.441,0,0,0,373-16.848a2.454,2.454,0,0,0,1.56-.52A8.593,8.593,0,0,1,379.756-19.344ZM379.184-4c-2.912,0-4.316-1.2-4.316-3.172,0-1.872,1.248-2.964,3.536-2.964h6.084v1.456C384.488-5.772,381.94-4,379.184-4Zm21.424-17.212a2.8,2.8,0,0,0-2.808-2.808,2.8,2.8,0,0,0-2.808,2.808V-2.392A2.8,2.8,0,0,0,397.8.416a2.8,2.8,0,0,0,2.808-2.808V-13.208c0-3.484,2.028-5.772,5.616-5.772a2.663,2.663,0,0,0,2.652-2.652,2.663,2.663,0,0,0-2.652-2.652,6.475,6.475,0,0,0-5.616,3.328Zm20.02,1.872c3.016,0,4.732,1.56,4.732,3.9v.936h-6.812c-4.524,0-8.424,2.5-8.424,7.332,0,4.68,3.38,7.852,8.476,7.852,3.12,0,5.408-.78,6.812-3.016A2.774,2.774,0,0,0,428.168.416a2.774,2.774,0,0,0,2.756-2.756V-15.652c0-5.512-3.848-8.684-10.3-8.684-4.472,0-7.072,1.716-8.528,3.328a2.574,2.574,0,0,0-.676,1.716,2.441,2.441,0,0,0,2.444,2.444,2.454,2.454,0,0,0,1.56-.52A8.593,8.593,0,0,1,420.628-19.344ZM420.056-4c-2.912,0-4.316-1.2-4.316-3.172,0-1.872,1.248-2.964,3.536-2.964h6.084v1.456C425.36-5.772,422.812-4,420.056-4Zm29.38-19.6h-1.2a2.33,2.33,0,0,0-2.34,2.34,2.33,2.33,0,0,0,2.34,2.34h1.2V-6.656c0,4.108,2.86,7.072,7.488,7.072a2.441,2.441,0,0,0,2.444-2.444,2.441,2.441,0,0,0-2.444-2.444,1.915,1.915,0,0,1-1.976-1.872V-18.928h2.34a2.33,2.33,0,0,0,2.34-2.34,2.33,2.33,0,0,0-2.34-2.34h-2.34v-4.368a2.774,2.774,0,0,0-2.756-2.756,2.774,2.774,0,0,0-2.756,2.756ZM469.4-21.216a2.8,2.8,0,0,0-2.808-2.808,2.8,2.8,0,0,0-2.808,2.808V-2.392A2.8,2.8,0,0,0,466.6.416,2.8,2.8,0,0,0,469.4-2.392ZM466.6-26.832a3.039,3.039,0,0,0,3.38-3.276c0-2.392-1.2-3.432-3.38-3.432-2.132,0-3.328,1.04-3.328,3.432A3.023,3.023,0,0,0,466.6-26.832Z" transform="matrix(1, -0.05, 0.05, 1, 16.27, 214.38)" fill="#dcc8fa"/></g></g><g transform="matrix(0.999, -0.035, 0.035, 0.999, 391.758, -1208.953)"><g transform="translate(126.997 1374)"><path d="M435.326,1416.526a10.245,10.245,0,0,1,2.428-5.445,9.93,9.93,0,0,1,4.837-3.211,1.316,1.316,0,0,1,1.305,2.156l-.062.067a19.18,19.18,0,0,0-2.636,3.527,22.827,22.827,0,0,0-1.658,3.792l-.034.1a2.147,2.147,0,0,1-2.739,1.311l-.025-.009A2.186,2.186,0,0,1,435.326,1416.526Z" transform="translate(-260.53 -1388.357)" fill="#fff"/><path d="M600.145,1374.05a10.242,10.242,0,0,1,5.155,2.995,9.93,9.93,0,0,1,2.676,5.153,1.316,1.316,0,0,1-2.283,1.068l-.06-.069a19.178,19.178,0,0,0-3.225-3,22.892,22.892,0,0,0-3.593-2.053l-.091-.044a2.148,2.148,0,0,1-1.012-2.863l.012-.024A2.186,2.186,0,0,1,600.145,1374.05Z" transform="translate(-329.367 -1374)" fill="#fff"/><g transform="translate(0 3.938)"><path d="M131.683,1437.075c-.567-8.378,5.574-16.886,14.837-17.513,7.572-.513,16.273,6.1,17.216,14.048l-4.572,2.98c-3.147-4.642-8.929-8.783-12.474-8.543-3.706.251-6.945,3.788-6.705,7.332.2,2.981,4.077,6.441,6.634,7.158,11.4,3.437,19.909,4.8,20.623,15.355a19.347,19.347,0,0,1-9.343,17.384,16.29,16.29,0,0,1-6.9,2.086c-3.624.245-16.528-2.684-17.138-11.707-.027-.4,6.667-3.121,7.682-3.676,2.431,3.639,3.6,7.767,9.8,7.348,5.074-.344,9.571-4.452,9.216-9.687-.283-4.19-4.162-5.3-7.294-6.142-8.821-2.4-20.936-6.836-21.53-15.616Z" transform="translate(-131.647 -1397.264)" fill="#fff"/><path d="M198.092,1456.907c-.1-16.987-1.329-33.978-.332-51.525,9.993-1.81,18.89-3.059,27.874-4.234,0,0,.242-.016.253.145l1.335,7.76c-6.787,1.349-13.542,3.182-20.367,3.968-.56,3.679-.1,8.1-.3,12.32a18.978,18.978,0,0,0,4.876.317c3.061-.207,5.934-.807,9-1.014.161-.01.161-.01.172.151l.425,6.283c.055.805-11.082,2.45-13.9,2.641l.159,14.312a28.611,28.611,0,0,1,4,.538l.15-.172,14.765.538c.242-.017.477-.113.638-.124.322-.022,3.245.1,3.266.425l-.315,7.305a.158.158,0,0,1-.15.172c-11.036.747-20.645-.14-31.386.182Z" transform="translate(-159.543 -1389.46)" fill="#fff"/><path d="M257.074,1435.353c-.485-7.169-.916-13.533-1.482-20.7-.005-.081-.005-.081.075-.086a.158.158,0,0,1,.15-.172l6.927-.469a.819.819,0,0,1,.1.237c1.034,12.877,2.877,24.567,4.6,36.832.454,3.125.995,6.325,1.379,9.617,3.54.894,7.091.734,10.726.65,2.5-.088,5.092-.1,7.53.057a.3.3,0,0,1,.178.231l.2,2.98c.093,1.37.282,2.975.316,4.672l.006.081c-5,.257-12.363.27-18.26.426l-2.191-.094c-2.744.1-4.838.246-6.605.447l-.242.016-.006-.081C259.053,1458.606,257.767,1446.8,257.074,1435.353Z" transform="translate(-184.251 -1394.885)" fill="#fff"/><path d="M321.255,1457.246c-.1-16.986-1.329-33.978-.332-51.525,9.993-1.81,18.891-3.06,27.875-4.234,0,0,.242-.017.252.144l1.335,7.76c-6.787,1.349-13.542,3.182-20.367,3.968-.561,3.68-.1,8.1-.3,12.32a18.981,18.981,0,0,0,4.877.318c3.061-.207,5.933-.807,8.995-1.014.161-.011.161-.011.172.15l.425,6.283c.054.8-11.083,2.45-13.9,2.64l.159,14.313a28.528,28.528,0,0,1,4,.538l.15-.172,14.765.538c.242-.016.478-.113.639-.124.322-.022,3.244.1,3.266.426l-.315,7.3a.158.158,0,0,1-.15.172c-11.036.747-20.645-.14-31.386.182Z" transform="translate(-211.816 -1389.604)" fill="#fff"/><path d="M406.515,1413.293a19.327,19.327,0,0,0-8.9-1.177c-3.867.261-8.882,1.491-11.682,4.351a28.636,28.636,0,0,0-1.738,12.579,30.426,30.426,0,0,0,2.68,10.905c3.46,6.887,9.164,12.246,17.22,11.7a21.187,21.187,0,0,0,6.707-1.344l1.621,4.827c-3.661,2.108-7.987,3.939-12.1,4.217-15.789,1.069-23.323-14.606-24.234-28.058-.851-12.567,3.925-26.889,18.506-27.876a27.561,27.561,0,0,1,11.393,2.142Z" transform="translate(-235.355 -1390.407)" fill="#fff"/><path d="M472.816,1416.683a19.326,19.326,0,0,0-8.9-1.178c-3.867.262-8.882,1.491-11.682,4.351a28.64,28.64,0,0,0-1.738,12.58,30.42,30.42,0,0,0,2.68,10.905c3.46,6.887,9.164,12.246,17.219,11.7a21.174,21.174,0,0,0,6.707-1.344l1.621,4.827c-3.661,2.108-7.987,3.939-12.1,4.217-15.789,1.069-23.323-14.606-24.234-28.058-.851-12.566,3.925-26.889,18.506-27.876a27.557,27.557,0,0,1,11.393,2.142Z" transform="translate(-263.495 -1391.845)" fill="#fff"/><path d="M526.457,1453.974l-8.782-.619c-.322.022-.8-8.28-.9-9.731-.409-6.041-2.755-46.667-1.788-46.733l9.022-.611.172.15.455,13.887c.75,14.678,1.254,29.29,1.972,43.484C526.618,1453.963,526.537,1453.968,526.457,1453.974Z" transform="translate(-294.247 -1387.394)" fill="#fff"/><path d="M547.34,1390.146a20.553,20.553,0,0,1,15.882-9.249c.644-.044,1.294-.006,2.019-.055l.005.08c7.522,2.324,15.006,5.3,18.964,11.178,2.276,3.731,3.215,8.037,3.987,12.273,0,0,1.1,7.936-.42,14.109a26.741,26.741,0,0,1-1.511,3.986c-3.22,7.42-7.348,14.578-15.08,16.315a14.746,14.746,0,0,1-2.647.341,22.3,22.3,0,0,1-16.419-5.849,26.212,26.212,0,0,1-6.69-9.176c-1.528-2.244-2.3-7.613-2.73-11.631C541.372,1404.792,543.06,1396.262,547.34,1390.146Z" transform="translate(-305.92 -1380.842)" fill="#fff"/><path d="M640.437,1442.068c-.886.06-1.939.049-3.067.126a4.232,4.232,0,0,0-1.042.152c.081-.005-.166-.07-.172-.15-1.189-17.56-2.529-36.164-3.2-54.407-.039-.563,4.407-1.835,5.052-1.879l.081-.006c8.406,11.813,17.408,24.07,31.165,37.219a38.441,38.441,0,0,0-.3-6.858c-.289-4.269-2.245-31.974-.962-32.141l7.636-.76c.161-.011.166.07.172.15.127,19.818,3.284,38.944,2,58.291.005.08.005.08-.156.091l-2.577.174a145.372,145.372,0,0,1-20.15-20.322c-4.409-5.367-7.224-11.083-12.256-16.083.431,12.351.744,24.145.3,35.5A3.515,3.515,0,0,1,640.437,1442.068Z" transform="translate(-344.416 -1381.912)" fill="#fff"/><path d="M722.217,1449.876l-.011-.161c1.026-5.167,1.918-9.921,2.869-15,2.575-13.364,5.122-27.132,8.084-40.765-.006-.081.155-.091.155-.091,2.245-.314,5.537-.7,8.115-.873a.079.079,0,0,1,.086.075c7.985,19.932,13.38,38.666,19.373,54.282l.011.161-.644.043c-.633.2-6.5.844-7.786.931-.081.006-.081.006-.166-.07l-5.921-18.131a43.631,43.631,0,0,0-5.574.135c-2.18.066-4.6.23-7.029.152-.9,3.46-1.459,7.139-2.18,10.829-.459,2.782-.988,5.732-1.614,8.444.006.081-.075.086-.155.092-.806.054-6.713.05-7.53-.057Z" transform="translate(-382.294 -1385.995)" fill="#fff"/></g><g transform="translate(421.279 6.74)"><path d="M863.656,1416.377c0-7.419,0-14-.083-21.422,0-.084,0-.084.083-.084a.163.163,0,0,1,.167-.167h7.169a.843.843,0,0,1,.083.25c.167,13.336,1.251,25.507,2.168,38.26.25,3.251.583,6.585.75,10,3.584,1.167,7.252,1.25,11,1.417,2.584.083,5.252.25,7.752.584a.309.309,0,0,1,.167.25v3.085c0,1.416.083,3.084,0,4.834v.084c-5.168-.084-12.754-.584-18.839-.833l-2.251-.25c-2.833-.083-5-.083-6.835,0h-.25v-.083C864.073,1440.467,863.573,1428.214,863.656,1416.377Z" transform="translate(-863.573 -1389.528)" fill="#fff"/><path d="M918.785,1442.5l0-.167c1.522-5.222,2.868-10.031,4.305-15.171,3.855-13.512,7.718-27.441,11.995-41.2,0-.083.169-.08.169-.08,2.336-.12,5.757-.218,8.424-.165a.082.082,0,0,1,.082.085c6.412,21.221,10.269,40.974,15.023,57.577l0,.167-.667-.013c-.67.153-6.759.282-8.092.255-.083,0-.083,0-.165-.087l-4.452-19.181a44.921,44.921,0,0,0-5.745-.365c-2.248-.129-4.748-.178-7.244-.478-1.237,3.477-2.145,7.21-3.22,10.94-.723,2.82-1.533,5.805-2.421,8.539,0,.083-.085.081-.169.079-.833-.016-6.909-.554-7.739-.738Z" transform="translate(-887.006 -1385.71)" fill="#fff"/></g></g><g transform="translate(120.692 1450.312)"><path d="M306.145,1538.05a10.243,10.243,0,0,1,5.155,2.995,9.93,9.93,0,0,1,2.676,5.153,1.316,1.316,0,0,1-2.283,1.068l-.06-.069a19.182,19.182,0,0,0-3.226-3,22.9,22.9,0,0,0-3.593-2.053l-.092-.044a2.148,2.148,0,0,1-1.012-2.863l.012-.024A2.187,2.187,0,0,1,306.145,1538.05Z" transform="translate(-198.281 -1519.918)" fill="#ffdc4e"/><path d="M669.145,1538.05a10.243,10.243,0,0,1,5.155,2.995,9.931,9.931,0,0,1,2.676,5.153,1.316,1.316,0,0,1-2.283,1.068l-.06-.069a19.182,19.182,0,0,0-3.226-3,22.9,22.9,0,0,0-3.593-2.053l-.092-.044a2.148,2.148,0,0,1-1.012-2.863l.012-.024A2.186,2.186,0,0,1,669.145,1538.05Z" transform="translate(-352.347 -1519.918)" fill="#ffdc4e"/><g transform="translate(0 0)"><path d="M153.182,1556.593a19.9,19.9,0,0,0-9.057-1.828c-3.989,0-9.224.915-12.3,3.657a29.482,29.482,0,0,0-2.659,12.8,31.309,31.309,0,0,0,1.994,11.384c3.075,7.312,8.559,13.212,16.868,13.212a21.776,21.776,0,0,0,6.979-.914l1.33,5.068c-3.905,1.911-8.475,3.49-12.713,3.49-16.286,0-22.934-16.619-22.934-30.5,0-12.962,5.9-27.337,20.939-27.337a28.373,28.373,0,0,1,11.551,2.991Z" transform="translate(-120.692 -1523.154)" fill="#ffdc4e"/><path d="M191.573,1593.345v-.166c1.412-5.235,2.659-10.054,3.988-15.207,3.573-13.543,7.146-27.5,11.135-41.3,0-.083.166-.083.166-.083,2.326-.167,5.733-.333,8.392-.333a.081.081,0,0,1,.083.083c6.814,21.022,11.052,40.633,16.12,57.085v.166h-.665c-.665.166-6.731.415-8.06.415-.083,0-.083,0-.166-.083l-4.819-19.027a44.676,44.676,0,0,0-5.733-.25c-2.244-.083-4.737-.083-7.229-.332-1.163,3.49-1.994,7.229-2.992,10.968-.665,2.825-1.412,5.817-2.243,8.559,0,.082-.083.082-.166.082-.831,0-6.9-.415-7.728-.581Z" transform="translate(-150.776 -1519.179)" fill="#ffdc4e"/><path d="M308.084,1600.637a.081.081,0,0,0,.083.083c0,.249-.166.249-.166.249l-7.312,2.908c-6.9-8.807-12.048-19.111-19.111-28.5-.831,6.065-1.412,29.747-2.077,29.747h-7.063c-.083,0-.166-.083-.166-.249,0-4.4.083-8.808.333-13.461V1591c0-4.736.5-9.39.5-14.126l.831-14.293,1-13.793a24.181,24.181,0,0,1,7.063-1c7.976,0,18.031,3.324,18.031,12.547,0,5.733-3.822,10.968-9.639,13.212l2.576,4.4A228.988,228.988,0,0,0,308.084,1600.637Z" transform="translate(-185.026 -1524.073)" fill="#ffdc4e"/><path d="M340.409,1587.261v-.166c1.412-5.234,2.659-10.054,3.988-15.206,3.573-13.543,7.146-27.5,11.135-41.3,0-.083.166-.083.166-.083,2.326-.167,5.733-.333,8.392-.333a.081.081,0,0,1,.083.083c6.814,21.022,11.052,40.633,16.12,57.085v.166h-.665c-.665.166-6.731.415-8.06.415-.083,0-.083,0-.166-.083l-4.819-19.027a44.655,44.655,0,0,0-5.733-.25c-2.244-.083-4.736-.083-7.229-.333-1.163,3.49-1.994,7.229-2.992,10.969-.665,2.825-1.412,5.816-2.243,8.558,0,.083-.083.083-.166.083-.831,0-6.9-.415-7.728-.581Z" transform="translate(-213.945 -1516.597)" fill="#ffdc4e"/><path d="M451.287,1556.593a19.894,19.894,0,0,0-9.057-1.828c-3.988,0-9.224.915-12.3,3.657a29.482,29.482,0,0,0-2.659,12.8,31.309,31.309,0,0,0,1.994,11.384c3.074,7.312,8.559,13.212,16.868,13.212a21.774,21.774,0,0,0,6.979-.914l1.33,5.068c-3.906,1.911-8.475,3.49-12.713,3.49-16.286,0-22.934-16.619-22.934-30.5,0-12.962,5.9-27.337,20.939-27.337a28.372,28.372,0,0,1,11.55,2.991Z" transform="translate(-247.215 -1523.154)" fill="#ffdc4e"/><path d="M528.9,1544.78v7.562l-.166.166-15.871,1.745c-.083,5.4-.415,49.606-.665,49.606l-9.8-1c-.166,0-.166,0-.166-.249,0-16.12,1-31.659,1-47.7l-13.461.332-.166-.166-.5-7.894a.163.163,0,0,1,.166-.166l39.469-2.41h.166Z" transform="translate(-277.053 -1522.725)" fill="#ffdc4e"/><path d="M561.278,1591.62c1.08-17.45,1-34.982,3.24-52.93,10.387-1.163,19.61-1.828,28.916-2.41,0,0,.249,0,.249.166l.831,8.06c-7.063.914-14.126,2.327-21.189,2.659-.83,3.739-.664,8.309-1.163,12.63a19.512,19.512,0,0,0,4.986.665c3.157,0,6.149-.416,9.306-.416.166,0,.166,0,.166.166v6.482c0,.83-11.549,1.745-14.458,1.745l-.831,14.708a29.383,29.383,0,0,1,4.072.831l.166-.166,15.123,1.579c.249,0,.5-.084.665-.084.332,0,3.323.332,3.323.665l-.831,7.479a.163.163,0,0,1-.166.166c-11.383,0-21.188-1.579-32.24-1.995Z" transform="translate(-307.687 -1519.187)" fill="#ffdc4e"/><path d="M668.118,1600.637a.081.081,0,0,0,.083.083c0,.249-.166.249-.166.249l-7.311,2.908c-6.9-8.807-12.049-19.111-19.112-28.5-.831,6.065-1.413,29.747-2.077,29.747h-7.062c-.083,0-.166-.083-.166-.249,0-4.4.083-8.808.332-13.461V1591c0-4.736.5-9.39.5-14.126l.831-14.293,1-13.793a24.181,24.181,0,0,1,7.063-1c7.976,0,18.031,3.324,18.031,12.547,0,5.733-3.822,10.968-9.639,13.212l2.576,4.4A228.891,228.891,0,0,0,668.118,1600.637Z" transform="translate(-337.833 -1524.073)" fill="#ffdc4e"/><path d="M712.3,1506.584l3.573,3.822c-3.407,3.407-6.9,6.814-10.386,10.138h-.166l-3.573-3.407Zm-7.811,65.311c0-16.618.249-32.157,1.33-47.529h9.057l.166.166-.5,13.877c-.25,12.8-.748,43.624-1.247,43.624h-8.558C704.4,1582.032,704.485,1573.391,704.485,1571.895Z" transform="translate(-367.304 -1506.584)" fill="#ffdc4e"/><path d="M732.924,1561.709c0-8.642,6.9-16.951,16.452-16.951,7.811,0,16.286,7.4,16.7,15.622l-4.9,2.742c-2.908-4.986-8.558-9.639-12.214-9.639-3.822,0-7.4,3.407-7.4,7.062,0,3.075,3.739,6.9,6.315,7.811,11.467,4.321,20.108,6.314,20.108,17.2a19.911,19.911,0,0,1-10.8,17.2,16.755,16.755,0,0,1-7.229,1.662c-3.739,0-16.785-3.905-16.785-13.212,0-.416,7.063-2.742,8.144-3.24,2.244,3.905,3.157,8.226,9.555,8.226,5.235,0,10.137-3.905,10.137-9.306,0-4.321-3.9-5.734-7.062-6.814-8.891-3.074-21.022-8.475-21.022-17.532Z" transform="translate(-380.538 -1522.786)" fill="#ffdc4e"/><path d="M837.585,1531.593v7.561l-.166.167-15.871,1.745c-.083,5.4-.415,49.606-.665,49.606l-9.8-1c-.166,0-.166,0-.166-.249,0-16.12,1-31.659,1-47.7l-13.46.332-.166-.166-.5-7.894a.162.162,0,0,1,.166-.166l39.469-2.41h.166Z" transform="translate(-408.066 -1517.128)" fill="#ffdc4e"/><path d="M882.6,1606.191l-8.974-1.246c-.332,0-.249-8.559-.249-10.055,0-6.232.415-48.11,1.412-48.11H884.1l.166.166-.5,14.292c-.249,15.123-.748,30.162-1,44.787C882.768,1606.191,882.685,1606.191,882.6,1606.191Z" transform="translate(-440.147 -1523.644)" fill="#ffdc4e"/><path d="M936.675,1546.579a19.893,19.893,0,0,0-9.057-1.828c-3.988,0-9.223.914-12.3,3.656a29.482,29.482,0,0,0-2.659,12.8,31.316,31.316,0,0,0,1.994,11.384c3.075,7.312,8.559,13.212,16.868,13.212a21.776,21.776,0,0,0,6.979-.915l1.33,5.069c-3.906,1.911-8.475,3.489-12.713,3.489-16.286,0-22.934-16.619-22.934-30.5,0-12.962,5.9-27.337,20.939-27.337a28.368,28.368,0,0,1,11.55,2.991Z" transform="translate(-453.225 -1518.904)" fill="#ffdc4e"/><path d="M972.271,1604.3v-.166c1.412-5.234,2.659-10.053,3.988-15.206,3.573-13.543,7.146-27.5,11.134-41.3,0-.083.166-.083.166-.083,2.326-.166,5.733-.333,8.393-.333a.081.081,0,0,1,.083.083c6.814,21.022,11.052,40.633,16.12,57.085v.167h-.665c-.665.166-6.73.415-8.06.415-.083,0-.083,0-.166-.083l-4.819-19.027a44.676,44.676,0,0,0-5.733-.25c-2.244-.083-4.737-.083-7.229-.333-1.163,3.49-1.994,7.229-2.992,10.969-.665,2.825-1.412,5.816-2.244,8.558,0,.083-.082.083-.166.083-.831,0-6.9-.415-7.728-.581Z" transform="translate(-482.123 -1523.828)" fill="#ffdc4e"/></g></g></g></g></svg>