<svg xmlns="http://www.w3.org/2000/svg" xmlns:xlink="http://www.w3.org/1999/xlink" width="625.304" height="215.666" viewBox="0 0 625.304 215.666"><defs><filter id="a" x="169.443" y="0" width="243.928" height="68.017" filterUnits="userSpaceOnUse"><feOffset dy="2" input="SourceAlpha"/><feGaussianBlur stdDeviation="4" result="b"/><feFlood flood-color="#40236b"/><feComposite operator="in" in2="b"/><feComposite in="SourceGraphic"/></filter><filter id="c" x="118.251" y="127.476" width="294.605" height="88.19" filterUnits="userSpaceOnUse"><feOffset dy="2" input="SourceAlpha"/><feGaussianBlur stdDeviation="4" result="d"/><feFlood flood-color="#40236b"/><feComposite operator="in" in2="d"/><feComposite in="SourceGraphic"/></filter></defs><g transform="translate(-95.275 -144.904)"><g transform="translate(92.866 84.085)"><g transform="translate(2.408 87.837)"><path d="M-869.463,1796.11c.143,1.285,7.332,1.519,7.332,1.519s.359,7.247,1.645,7.514,4.388-7.1,4.388-7.1,5.8,2.091,6.644.866-2.89-6.3-2.89-6.3,3.552-5.965,2.457-7.14-7.344,2.929-7.344,2.929-5.264-4.115-6.438-3.268.589,6.667.589,6.667S-869.606,1794.825-869.463,1796.11Z" transform="translate(1474.635 -1737.351)" fill="#e7dff2"/><path d="M-869.463,1796.11c.143,1.285,7.332,1.519,7.332,1.519s.359,7.247,1.645,7.514,4.388-7.1,4.388-7.1,5.8,2.091,6.644.866-2.89-6.3-2.89-6.3,3.552-5.965,2.457-7.14-7.344,2.929-7.344,2.929-5.264-4.115-6.438-3.268.589,6.667.589,6.667S-869.606,1794.825-869.463,1796.11Z" transform="translate(1293.552 -1779.016)" fill="#e7dff2"/><path d="M-869.463,1796.11c.143,1.285,7.332,1.519,7.332,1.519s.359,7.247,1.645,7.514,4.388-7.1,4.388-7.1,5.8,2.091,6.644.866-2.89-6.3-2.89-6.3,3.552-5.965,2.457-7.14-7.344,2.929-7.344,2.929-5.264-4.115-6.438-3.268.589,6.667.589,6.667S-869.606,1794.825-869.463,1796.11Z" transform="translate(869.465 -1662.322)" fill="#e7dff2"/></g><g transform="matrix(1, 0, 0, 1, 2.41, 60.82)" filter="url(#a)"><path d="M7.92-25.6H19.35a2.324,2.324,0,0,0,2.34-2.34,2.324,2.324,0,0,0-2.34-2.34H5.31a2.612,2.612,0,0,0-2.61,2.61V-2.61A2.612,2.612,0,0,0,5.31,0H19.845a2.324,2.324,0,0,0,2.34-2.34,2.324,2.324,0,0,0-2.34-2.34H7.92v-8.28h8.505a2.3,2.3,0,0,0,2.3-2.3,2.3,2.3,0,0,0-2.3-2.3H7.92ZM36.4-21.06a6.667,6.667,0,0,0-5.76,2.7,2.42,2.42,0,0,0-2.43-2.43,2.42,2.42,0,0,0-2.43,2.43V-1.98A2.319,2.319,0,0,0,28.215.36a2.319,2.319,0,0,0,2.43-2.34V-12.015c0-2.655,1.125-4.635,4.5-4.635,2.925,0,3.96,1.755,3.96,4.32V-1.98A2.293,2.293,0,0,0,41.535.36a2.345,2.345,0,0,0,2.43-2.34V-13.23C43.965-17.145,42.525-21.06,36.4-21.06ZM47.3-10.26C47.3-2.925,50.94.585,57.06.585a10.8,10.8,0,0,0,7.2-2.565,2.145,2.145,0,0,0,.765-1.665,2.132,2.132,0,0,0-2.16-2.16,2.111,2.111,0,0,0-1.35.45,7.148,7.148,0,0,1-4.455,1.8c-3.15,0-4.86-2.385-4.86-6.705,0-4.23,1.71-6.66,4.86-6.66a5.13,5.13,0,0,1,4.005,1.755,2.169,2.169,0,0,0,1.665.765,2.132,2.132,0,0,0,2.16-2.16,2.125,2.125,0,0,0-.495-1.4,9.279,9.279,0,0,0-7.335-3.1C50.94-21.06,47.3-17.595,47.3-10.26ZM70.74-20.79a2.42,2.42,0,0,0-2.43,2.43V-7.875c0,4.41,1.665,8.46,8.91,8.46,7.2,0,8.865-4.05,8.865-8.46V-18.36a2.42,2.42,0,0,0-2.43-2.43,2.42,2.42,0,0,0-2.43,2.43V-7.875c0,2.07-.72,4.05-4.005,4.05-3.33,0-4.05-1.98-4.05-4.05V-18.36A2.42,2.42,0,0,0,70.74-20.79ZM89.46-10.305C89.46-2.79,93.33.585,99.585.585A10.593,10.593,0,0,0,106.83-1.89a2.248,2.248,0,0,0,.765-1.665A2.113,2.113,0,0,0,105.48-5.67a2.424,2.424,0,0,0-1.44.495,7.7,7.7,0,0,1-4.455,1.4c-2.97,0-5.265-1.485-5.265-4.725h11.115c2.745,0,2.745-1.935,2.745-3.6,0-3.105-1.395-8.955-9-8.955C93.06-21.06,89.46-17.19,89.46-10.305Zm9.72-6.615c2.925,0,4.185,2.16,4.185,4.365h-8.91A4.393,4.393,0,0,1,99.18-16.92Zm23-4.14a6.667,6.667,0,0,0-5.76,2.7,2.42,2.42,0,0,0-2.43-2.43,2.42,2.42,0,0,0-2.43,2.43V-1.98a2.319,2.319,0,0,0,2.43,2.34,2.319,2.319,0,0,0,2.43-2.34V-12.015c0-2.655,1.125-4.635,4.5-4.635,2.925,0,3.96,1.755,3.96,4.32V-1.98a2.293,2.293,0,0,0,2.43,2.34,2.345,2.345,0,0,0,2.43-2.34V-13.23C129.735-17.145,128.295-21.06,122.175-21.06Zm13.41.63H134.55a2.017,2.017,0,0,0-2.025,2.025,2.017,2.017,0,0,0,2.025,2.025h1.035V-5.76c0,3.555,2.475,6.12,6.48,6.12a2.113,2.113,0,0,0,2.115-2.115,2.113,2.113,0,0,0-2.115-2.115,1.657,1.657,0,0,1-1.71-1.62V-16.38h2.025a2.017,2.017,0,0,0,2.025-2.025,2.017,2.017,0,0,0-2.025-2.025h-2.025v-3.78A2.4,2.4,0,0,0,137.97-26.6a2.4,2.4,0,0,0-2.385,2.385Zm17.055,2.07a2.42,2.42,0,0,0-2.43-2.43,2.42,2.42,0,0,0-2.43,2.43V-2.07A2.42,2.42,0,0,0,150.21.36a2.42,2.42,0,0,0,2.43-2.43v-9.36c0-3.015,1.755-5,4.86-5a2.3,2.3,0,0,0,2.295-2.3,2.3,2.3,0,0,0-2.295-2.295,5.6,5.6,0,0,0-4.86,2.88Zm17.325,1.62c2.61,0,4.1,1.35,4.1,3.375v.81h-5.895c-3.915,0-7.29,2.16-7.29,6.345,0,4.05,2.925,6.8,7.335,6.8,2.7,0,4.68-.675,5.9-2.61A2.4,2.4,0,0,0,176.49.36a2.4,2.4,0,0,0,2.385-2.385v-11.52c0-4.77-3.33-7.515-8.91-7.515-3.87,0-6.12,1.485-7.38,2.88A2.228,2.228,0,0,0,162-16.695a2.113,2.113,0,0,0,2.115,2.115,2.124,2.124,0,0,0,1.35-.45A7.437,7.437,0,0,1,169.965-16.74ZM169.47-3.465c-2.52,0-3.735-1.035-3.735-2.745,0-1.62,1.08-2.565,3.06-2.565h5.265v1.26C174.06-4.995,171.855-3.465,169.47-3.465ZM195.975-32.04a2.42,2.42,0,0,0-2.43,2.43V-5.4c0,3.78,2.2,5.76,5.715,5.76a2.228,2.228,0,0,0,2.25-2.25,2.228,2.228,0,0,0-2.25-2.25.869.869,0,0,1-.855-.81V-29.61A2.42,2.42,0,0,0,195.975-32.04Zm16.335,15.3c2.61,0,4.1,1.35,4.1,3.375v.81H210.51c-3.915,0-7.29,2.16-7.29,6.345,0,4.05,2.925,6.8,7.335,6.8,2.7,0,4.68-.675,5.9-2.61A2.4,2.4,0,0,0,218.835.36a2.4,2.4,0,0,0,2.385-2.385v-11.52c0-4.77-3.33-7.515-8.91-7.515-3.87,0-6.12,1.485-7.38,2.88a2.228,2.228,0,0,0-.585,1.485,2.113,2.113,0,0,0,2.115,2.115,2.124,2.124,0,0,0,1.35-.45A7.437,7.437,0,0,1,212.31-16.74Zm-.495,13.275c-2.52,0-3.735-1.035-3.735-2.745,0-1.62,1.08-2.565,3.06-2.565H216.4v1.26C216.4-4.995,214.2-3.465,211.815-3.465Z" transform="matrix(1, -0.05, 0.05, 1, 180.42, 53.57)" fill="#dcc8fa"/></g><g transform="translate(57.054 124.38)"><path d="M-150.614,2153.25a16.723,16.723,0,0,1-7.132-6.619,16.411,16.411,0,0,1-2.447-9.2,2.132,2.132,0,0,1,2.255-2,2.133,2.133,0,0,1,1.741,1.1l.072.132a31.467,31.467,0,0,0,4.071,5.941,37.4,37.4,0,0,0,4.976,4.562l.129.1a3.531,3.531,0,0,1,.595,4.959,3.533,3.533,0,0,1-4.258,1.024Z" transform="translate(196.104 -2076.715)" fill="#fff"/><path d="M-28.786,2218.793a16.723,16.723,0,0,1-7.845,5.757,16.422,16.422,0,0,1-9.5.671,2.133,2.133,0,0,1-1.54-2.592,2.13,2.13,0,0,1,1.407-1.5l.143-.046a31.443,31.443,0,0,0,6.6-2.879,37.545,37.545,0,0,0,5.418-4.027l.127-.108a3.532,3.532,0,0,1,4.982.35,3.531,3.531,0,0,1,.2,4.375Z" transform="translate(438.953 -2140.351)" fill="#ffdc4e"/><path d="M-146.777,2101.4v8.032l-.177.175-16.859,1.855c-.09,5.736-.442,52.694-.707,52.694l-10.416-1.058c-.175,0-.175,0-.175-.265,0-17.125,1.059-33.63,1.059-50.665l-14.3.353-.177-.177-.529-8.386a.172.172,0,0,1,.175-.175l41.927-2.56h.177Z" transform="translate(189.056 -2085.07)" fill="#fff"/><path d="M-146.639,2103.935a22.472,22.472,0,0,1,18.006-8.916c.707,0,1.412.09,2.207.09v.087c8.032,3.09,15.976,6.885,19.86,13.594,2.206,4.237,2.913,9,3.442,13.681,0,0,.62,8.738-1.5,15.359a29.126,29.126,0,0,1-1.941,4.236c-4.06,7.855-9.092,15.359-17.654,16.682a16.043,16.043,0,0,1-2.912.177,24.384,24.384,0,0,1-17.477-7.591,28.649,28.649,0,0,1-6.621-10.5c-1.5-2.559-1.941-8.473-2.118-12.887C-154.23,2119.469-151.758,2110.29-146.639,2103.935Z" transform="translate(197.736 -2086.585)" fill="#fff"/><path d="M-110.022,2158.758v-.176c1.5-5.561,2.826-10.681,4.238-16.153,3.8-14.388,7.59-29.215,11.827-43.868,0-.088.177-.088.177-.088,2.471-.177,6.091-.354,8.915-.354a.086.086,0,0,1,.088.088c7.238,22.333,11.74,43.163,17.124,60.64v.175h-.705c-.707.177-7.15.442-8.562.442-.088,0-.088,0-.178-.088l-5.119-20.213a47.535,47.535,0,0,0-6.089-.265c-2.384-.088-5.032-.088-7.68-.354-1.237,3.708-2.119,7.68-3.178,11.652-.705,3-1.5,6.178-2.383,9.091,0,.088-.088.088-.177.088-.883,0-7.326-.442-8.208-.618Z" transform="translate(208.361 -2085.829)" fill="#fff"/><path d="M-72.352,2114.952c0-7.856,0-14.829-.088-22.685,0-.087,0-.087.088-.087a.174.174,0,0,1,.177-.178h7.59a.9.9,0,0,1,.09.265c.175,14.124,1.323,27.009,2.294,40.514.264,3.442.618,6.973.794,10.592,3.8,1.237,7.68,1.325,11.651,1.5,2.737.09,5.561.265,8.208.618a.328.328,0,0,1,.178.265v3.265c0,1.5.087,3.267,0,5.12v.088c-5.474-.088-13.505-.617-19.949-.882l-2.383-.265c-3-.089-5.3-.089-7.238,0H-71.2v-.089C-71.91,2140.46-72.44,2127.485-72.352,2114.952Z" transform="translate(217.541 -2087.323)" fill="#fff"/><path d="M-39.515,2125.166c0-7.856,0-14.829-.088-22.685,0-.087,0-.087.088-.087a.174.174,0,0,1,.177-.178h7.59a.9.9,0,0,1,.09.265c.175,14.124,1.323,27.009,2.293,40.515.265,3.441.618,6.973.8,10.591,3.8,1.237,7.68,1.325,11.651,1.5,2.736.09,5.561.265,8.208.618a.327.327,0,0,1,.177.265v3.265c0,1.5.088,3.266,0,5.12v.088c-5.472-.088-13.5-.617-19.948-.882l-2.383-.265c-3-.088-5.3-.088-7.238,0h-.265v-.088C-39.073,2150.674-39.6,2137.7-39.515,2125.166Z" transform="translate(225.562 -2084.828)" fill="#fff"/><path d="M-1.316,2156.9l-9.532-1.323c-.353,0-.265-9.092-.265-10.681,0-6.621.44-51.107,1.5-51.107H.273l.177.177-.53,15.182c-.265,16.064-.8,32.04-1.059,47.576C-1.139,2156.9-1.227,2156.9-1.316,2156.9Z" transform="translate(232.519 -2086.887)" fill="#fff"/><path d="M48.122,2090.5v8.032l-.178.177-16.859,1.854c-.088,5.737-.44,52.7-.705,52.7L19.964,2152.2c-.177,0-.177,0-.177-.265,0-17.124,1.06-33.629,1.06-50.664l-14.3.354-.177-.178-.53-8.385a.173.173,0,0,1,.177-.176l41.926-2.559h.178Z" transform="translate(236.663 -2087.732)" fill="#fff"/><path d="M41.992,2150.938l-.015-.175c1-5.673,1.86-10.89,2.778-16.467,2.5-14.668,4.953-29.776,7.865-44.749-.007-.087.168-.1.168-.1,2.446-.4,6.035-.9,8.848-1.147a.086.086,0,0,1,.1.08c9.2,21.6,15.545,41.942,22.468,58.869l.015.175-.7.063c-.687.238-7.081,1.078-8.488,1.2-.088.007-.088.007-.184-.071l-6.9-19.676a47.472,47.472,0,0,0-6.089.279c-2.38.124-5.019.361-7.68.333-.9,3.8-1.425,7.838-2.125,11.889-.436,3.052-.943,6.289-1.562,9.267.007.089-.081.1-.168.1-.88.078-7.337.213-8.232.117Z" transform="translate(245.49 -2088.228)" fill="#fff"/><g transform="translate(354.225 0)"><path d="M-67.659,2224.025l-9.534-1.323c-.353,0-.264-9.091-.264-10.681,0-6.619.44-51.106,1.5-51.106h9.886l.177.176-.53,15.183c-.265,16.064-.8,32.04-1.06,47.574C-67.483,2224.025-67.57,2224.025-67.659,2224.025Z" transform="translate(77.466 -2153.122)" fill="#ffdc4e"/><path d="M-61.2,2230.7c-.177-6.178-1.06-35.836-1.06-51.548,0-5.471.088-9.179.353-9.884,19.33,0,22.243,3.177,28.157,8.914l.177.354c4.06,3.795,6.708,14.828,6.708,26.039a27.58,27.58,0,0,1-6.089,17.564c-6.091,7.5-16.417,8.562-23.038,8.562Z" transform="translate(81.18 -2151.082)" fill="#ffdc4e"/><path d="M-30.5,2219.914c1.147-18.536,1.059-37.16,3.442-56.226,11.033-1.236,20.83-1.941,30.717-2.56,0,0,.265,0,.265.176l.882,8.562c-7.5.973-15.006,2.472-22.508,2.825-.883,3.972-.707,8.827-1.236,13.416a20.628,20.628,0,0,0,5.294.706c3.356,0,6.532-.44,9.887-.44.175,0,.175,0,.175.178v6.884c0,.882-12.268,1.853-15.357,1.853l-.883,15.623a31.17,31.17,0,0,1,4.325.883l.177-.178,16.065,1.678c.265,0,.53-.089.705-.089.353,0,3.53.354,3.53.707l-.882,7.945a.172.172,0,0,1-.175.176c-12.093,0-22.509-1.677-34.248-2.118Z" transform="translate(88.938 -2153.07)" fill="#ffdc4e"/><path d="M1.858,2215.292v-.176c1.5-5.561,2.826-10.681,4.237-16.152,3.8-14.389,7.591-29.217,11.828-43.869,0-.087.177-.087.177-.087,2.471-.178,6.089-.355,8.915-.355a.087.087,0,0,1,.088.09c7.238,22.331,11.74,43.161,17.124,60.638v.177h-.705c-.707.176-7.151.44-8.562.44-.09,0-.09,0-.178-.087L29.662,2195.7a47.544,47.544,0,0,0-6.091-.265c-2.383-.089-5.032-.089-7.68-.354-1.236,3.707-2.118,7.68-3.177,11.651-.707,3-1.5,6.179-2.383,9.092,0,.088-.09.088-.177.088-.883,0-7.327-.443-8.21-.618Z" transform="translate(96.842 -2154.652)" fill="#ffdc4e"/><path d="M38.745,2183.794c0-7.855,0-14.83-.088-22.685,0-.088,0-.088.088-.088a.173.173,0,0,1,.177-.177h7.59a.882.882,0,0,1,.09.265c.175,14.122,1.323,27.009,2.293,40.513.265,3.443.618,6.974.8,10.593,3.8,1.236,7.68,1.324,11.651,1.5,2.737.088,5.561.265,8.208.618a.326.326,0,0,1,.178.265v3.265c0,1.5.087,3.266,0,5.119v.088c-5.474-.088-13.505-.617-19.949-.882l-2.383-.264c-3-.089-5.3-.089-7.238,0h-.265v-.089C39.187,2209.3,38.657,2196.327,38.745,2183.794Z" transform="translate(105.831 -2153.14)" fill="#ffdc4e"/></g></g></g><g transform="matrix(1, 0, 0, 1, 95.27, 144.9)" filter="url(#c)"><path d="M8.965-22.44a2.958,2.958,0,0,0-2.97-2.97,2.958,2.958,0,0,0-2.97,2.97V8.085a2.97,2.97,0,1,0,5.94,0V-1.65C10.285-.165,12.7.715,15.455.715c7.15,0,11.165-4.29,11.165-13.255s-3.96-13.2-11.165-13.2A8.139,8.139,0,0,0,8.965-22.44ZM20.57-12.485c0,5.39-2.035,8.14-5.885,8.14S8.8-7.095,8.8-12.485c0-5.445,2.035-8.195,5.885-8.195S20.57-17.93,20.57-12.485Zm20.3-7.975c3.19,0,5.005,1.65,5.005,4.125v.99H38.665c-4.785,0-8.91,2.64-8.91,7.755,0,4.95,3.575,8.3,8.965,8.3,3.3,0,5.72-.825,7.205-3.19A2.934,2.934,0,0,0,48.84.44a2.934,2.934,0,0,0,2.915-2.915v-14.08c0-5.83-4.07-9.185-10.89-9.185-4.73,0-7.48,1.815-9.02,3.52A2.723,2.723,0,0,0,31.13-20.4a2.582,2.582,0,0,0,2.585,2.585,2.6,2.6,0,0,0,1.65-.55A9.089,9.089,0,0,1,40.865-20.46Zm-.6,16.225c-3.08,0-4.565-1.265-4.565-3.355,0-1.98,1.32-3.135,3.74-3.135H45.87v1.54C45.87-6.105,43.175-4.235,40.26-4.235Zm22.66-18.2a2.958,2.958,0,0,0-2.97-2.97,2.958,2.958,0,0,0-2.97,2.97V-2.53A2.958,2.958,0,0,0,59.95.44a2.958,2.958,0,0,0,2.97-2.97V-13.97c0-3.685,2.145-6.105,5.94-6.105a2.817,2.817,0,0,0,2.805-2.805,2.817,2.817,0,0,0-2.805-2.805,6.848,6.848,0,0,0-5.94,3.52ZM84.1-20.46c3.19,0,5,1.65,5,4.125v.99H81.895c-4.785,0-8.91,2.64-8.91,7.755,0,4.95,3.575,8.3,8.965,8.3,3.3,0,5.72-.825,7.205-3.19A2.934,2.934,0,0,0,92.07.44a2.934,2.934,0,0,0,2.915-2.915v-14.08c0-5.83-4.07-9.185-10.89-9.185-4.73,0-7.48,1.815-9.02,3.52A2.723,2.723,0,0,0,74.36-20.4a2.582,2.582,0,0,0,2.585,2.585,2.6,2.6,0,0,0,1.65-.55A9.089,9.089,0,0,1,84.1-20.46ZM83.49-4.235c-3.08,0-4.565-1.265-4.565-3.355,0-1.98,1.32-3.135,3.74-3.135H89.1v1.54C89.1-6.105,86.4-4.235,83.49-4.235ZM114.565-24.97H113.3a2.465,2.465,0,0,0-2.475,2.475A2.465,2.465,0,0,0,113.3-20.02h1.265V-7.04c0,4.345,3.025,7.48,7.92,7.48a2.582,2.582,0,0,0,2.585-2.585,2.582,2.582,0,0,0-2.585-2.585,2.026,2.026,0,0,1-2.09-1.98V-20.02h2.475a2.465,2.465,0,0,0,2.475-2.475,2.465,2.465,0,0,0-2.475-2.475h-2.475v-4.62a2.934,2.934,0,0,0-2.915-2.915,2.934,2.934,0,0,0-2.915,2.915Zm17.6-.44a2.958,2.958,0,0,0-2.97,2.97V-9.625c0,5.39,2.035,10.34,10.89,10.34,8.8,0,10.835-4.95,10.835-10.34V-22.44a2.958,2.958,0,0,0-2.97-2.97,2.958,2.958,0,0,0-2.97,2.97V-9.625c0,2.53-.88,4.95-4.895,4.95-4.07,0-4.95-2.42-4.95-4.95V-22.44A2.958,2.958,0,0,0,132.165-25.41Zm42.35,7.535a7.571,7.571,0,0,1,5.445-2.8c3.74,0,5.885,2.75,5.885,8.195,0,5.39-2.09,8.14-5.885,8.14-3.19,0-5.445-2.145-5.445-5.94Zm6.05-7.865a9.018,9.018,0,0,0-6.05,2.2V-36.19a2.958,2.958,0,0,0-2.97-2.97,2.958,2.958,0,0,0-2.97,2.97v25.9c0,7.315,4.73,11,11.385,11,7.425,0,11.77-4.235,11.77-13.2S187.495-25.74,180.565-25.74ZM195.03-12.6c0,9.185,4.73,13.31,12.375,13.31A12.947,12.947,0,0,0,216.26-2.31a2.748,2.748,0,0,0,.935-2.035A2.582,2.582,0,0,0,214.61-6.93a2.962,2.962,0,0,0-1.76.605A9.411,9.411,0,0,1,207.4-4.62c-3.63,0-6.435-1.815-6.435-5.775h13.585c3.355,0,3.355-2.365,3.355-4.4,0-3.8-1.705-10.945-11-10.945C199.43-25.74,195.03-21.01,195.03-12.6Zm11.88-8.085c3.575,0,5.115,2.64,5.115,5.335h-10.89A5.369,5.369,0,0,1,206.91-20.68Zm21.065,2.8a7.571,7.571,0,0,1,5.445-2.8c3.74,0,5.885,2.75,5.885,8.195,0,5.39-2.09,8.14-5.885,8.14-3.19,0-5.445-2.145-5.445-5.94Zm6.05-7.865a9.018,9.018,0,0,0-6.05,2.2V-36.19a2.958,2.958,0,0,0-2.97-2.97,2.958,2.958,0,0,0-2.97,2.97v25.9c0,7.315,4.73,11,11.385,11,7.425,0,11.77-4.235,11.77-13.2S240.955-25.74,234.025-25.74ZM248.49-12.6c0,9.185,4.73,13.31,12.375,13.31A12.947,12.947,0,0,0,269.72-2.31a2.748,2.748,0,0,0,.935-2.035A2.582,2.582,0,0,0,268.07-6.93a2.962,2.962,0,0,0-1.76.605,9.411,9.411,0,0,1-5.445,1.705c-3.63,0-6.435-1.815-6.435-5.775h13.585c3.355,0,3.355-2.365,3.355-4.4,0-3.8-1.7-10.945-11-10.945C252.89-25.74,248.49-21.01,248.49-12.6Zm11.88-8.085c3.575,0,5.115,2.64,5.115,5.335H254.6A5.369,5.369,0,0,1,260.37-20.68Zm-3.19-7.59a1.711,1.711,0,0,0,2.53,0l5.39-4.95a2.141,2.141,0,0,0-.22-3.3c-1.1-1.1-2.53-1.155-3.3-.165l-4.675,5.94A1.682,1.682,0,0,0,257.18-28.27Z" transform="matrix(1, -0.05, 0.05, 1, 129.28, 190.78)" fill="#dcc8fa"/></g></g></svg>