<svg xmlns="http://www.w3.org/2000/svg" xmlns:xlink="http://www.w3.org/1999/xlink" width="451.493" height="218.479" viewBox="0 0 451.493 218.479"><defs><filter id="a" x="95.407" y="140.3" width="266.49" height="78.179" filterUnits="userSpaceOnUse"><feOffset dy="2" input="SourceAlpha"/><feGaussianBlur stdDeviation="4" result="b"/><feFlood flood-color="#40236b"/><feComposite operator="in" in2="b"/><feComposite in="SourceGraphic"/></filter></defs><g transform="translate(-606.306 -135.089)"><g transform="translate(680.164 267.822)"><rect width="63.778" height="72.458" transform="translate(0 0)" fill="none"/><g transform="matrix(1, 0, 0, 1, -73.86, -132.73)" filter="url(#a)"><path d="M16.121-6.11a6.47,6.47,0,0,1-4.653,2.4c-3.2,0-5.029-2.35-5.029-7,0-4.606,1.786-6.956,5.029-6.956,2.726,0,4.653,1.833,4.653,5.076ZM10.951.611a7.707,7.707,0,0,0,5.17-1.88V6.909a2.538,2.538,0,1,0,5.076,0V-12.6c0-6.251-4.042-9.4-9.729-9.4C5.123-22,1.41-18.377,1.41-10.716S5.029.611,10.951.611Zm16.92-22.325a2.527,2.527,0,0,0-2.538,2.538V-8.225c0,4.606,1.739,8.836,9.306,8.836,7.52,0,9.259-4.23,9.259-8.836V-19.176a2.527,2.527,0,0,0-2.538-2.538,2.527,2.527,0,0,0-2.538,2.538V-8.225c0,2.162-.752,4.23-4.183,4.23-3.478,0-4.23-2.068-4.23-4.23V-19.176A2.527,2.527,0,0,0,27.871-21.714ZM47.423-10.763C47.423-2.914,51.465.611,58,.611a11.064,11.064,0,0,0,7.567-2.585,2.348,2.348,0,0,0,.8-1.739,2.206,2.206,0,0,0-2.209-2.209,2.531,2.531,0,0,0-1.5.517A8.042,8.042,0,0,1,58-3.948c-3.1,0-5.5-1.551-5.5-4.935H64.108c2.867,0,2.867-2.021,2.867-3.76,0-3.243-1.457-9.353-9.4-9.353C51.183-22,47.423-17.954,47.423-10.763Zm10.152-6.909c3.055,0,4.371,2.256,4.371,4.559H52.64A4.588,4.588,0,0,1,57.575-17.672Zm28.858-1.5A2.527,2.527,0,0,0,83.9-21.714a2.527,2.527,0,0,0-2.538,2.538V6.909a2.538,2.538,0,0,0,5.076,0V-1.41A7.458,7.458,0,0,0,91.979.611c6.11,0,9.541-3.666,9.541-11.327S98.136-22,91.979-22A6.955,6.955,0,0,0,86.433-19.176Zm9.917,8.507c0,4.606-1.739,6.956-5.029,6.956s-5.029-2.35-5.029-6.956c0-4.653,1.739-7,5.029-7S96.35-15.322,96.35-10.669Zm14.006-8.507a2.527,2.527,0,0,0-2.538-2.538,2.527,2.527,0,0,0-2.538,2.538V-2.162A2.527,2.527,0,0,0,107.818.376a2.527,2.527,0,0,0,2.538-2.538v-9.776c0-3.149,1.833-5.217,5.076-5.217a2.407,2.407,0,0,0,2.4-2.4,2.407,2.407,0,0,0-2.4-2.4,5.852,5.852,0,0,0-5.076,3.008Zm8.742,8.413C119.1-2.914,123.14.611,129.673.611a11.064,11.064,0,0,0,7.567-2.585,2.348,2.348,0,0,0,.8-1.739,2.206,2.206,0,0,0-2.209-2.209,2.531,2.531,0,0,0-1.5.517,8.042,8.042,0,0,1-4.653,1.457c-3.1,0-5.5-1.551-5.5-4.935h11.609c2.867,0,2.867-2.021,2.867-3.76,0-3.243-1.457-9.353-9.4-9.353C122.858-22,119.1-17.954,119.1-10.763Zm10.152-6.909c3.055,0,4.371,2.256,4.371,4.559h-9.306A4.588,4.588,0,0,1,129.25-17.672Zm32.9-1.128a2.527,2.527,0,0,0-2.538-2.538H148.755v-2.585c0-2.068,1.692-3.572,4.277-3.572a9.181,9.181,0,0,1,2.961.611,3.45,3.45,0,0,0,1.222.282,2.407,2.407,0,0,0,2.4-2.4,2.245,2.245,0,0,0-1.269-2.115,11.98,11.98,0,0,0-5.311-1.081c-6.11,0-9.353,4.277-9.353,8.648v2.209h-.987a2.106,2.106,0,0,0-2.115,2.115,2.106,2.106,0,0,0,2.115,2.115h.987v15.04A2.4,2.4,0,0,0,146.217.376a2.449,2.449,0,0,0,2.538-2.444v-15.04h8.319V-2.162A2.527,2.527,0,0,0,159.612.376a2.527,2.527,0,0,0,2.538-2.538Zm3.525,8.037c0,7.849,4.042,11.374,10.575,11.374a11.064,11.064,0,0,0,7.567-2.585,2.348,2.348,0,0,0,.8-1.739,2.206,2.206,0,0,0-2.209-2.209,2.531,2.531,0,0,0-1.5.517,8.042,8.042,0,0,1-4.653,1.457c-3.1,0-5.5-1.551-5.5-4.935H182.36c2.867,0,2.867-2.021,2.867-3.76,0-3.243-1.457-9.353-9.4-9.353C169.435-22,165.675-17.954,165.675-10.763Zm10.152-6.909c3.055,0,4.371,2.256,4.371,4.559h-9.306A4.588,4.588,0,0,1,175.827-17.672Zm18-1.5a2.527,2.527,0,0,0-2.538-2.538,2.527,2.527,0,0,0-2.538,2.538V-2.162A2.527,2.527,0,0,0,191.29.376a2.527,2.527,0,0,0,2.538-2.538v-9.776c0-3.149,1.833-5.217,5.076-5.217a2.407,2.407,0,0,0,2.4-2.4,2.407,2.407,0,0,0-2.4-2.4,5.852,5.852,0,0,0-5.076,3.008Zm18.1,1.692c2.726,0,4.277,1.41,4.277,3.525v.846h-6.157c-4.089,0-7.614,2.256-7.614,6.627,0,4.23,3.055,7.1,7.661,7.1,2.82,0,4.888-.705,6.157-2.726A2.507,2.507,0,0,0,218.738.376a2.508,2.508,0,0,0,2.491-2.491V-14.147c0-4.982-3.478-7.849-9.306-7.849-4.042,0-6.392,1.551-7.708,3.008a2.327,2.327,0,0,0-.611,1.551,2.206,2.206,0,0,0,2.209,2.209,2.218,2.218,0,0,0,1.41-.47A7.767,7.767,0,0,1,211.923-17.484Zm-.517,13.865c-2.632,0-3.9-1.081-3.9-2.867,0-1.692,1.128-2.679,3.2-2.679h5.5v1.316C216.2-5.217,213.9-3.619,211.406-3.619Zm21.855-13.959a6.8,6.8,0,0,1,4.23,1.5,2.556,2.556,0,0,0,1.6.658,2.287,2.287,0,0,0,2.256-2.256,2.028,2.028,0,0,0-.47-1.41C239.559-20.727,236.6-22,233.261-22c-4.324,0-7.849,2.068-7.849,6.3,0,7.99,11.515,6.016,11.515,9.823,0,1.316-1.363,1.88-3.478,1.88a7.734,7.734,0,0,1-5.17-1.927,2.208,2.208,0,0,0-1.457-.564,2.287,2.287,0,0,0-2.256,2.256,2.187,2.187,0,0,0,.564,1.457c1.175,1.457,4.277,3.29,8.319,3.29,4.841,0,8.6-2.256,8.6-6.674,0-7.755-11.562-6.157-11.562-9.635C230.488-16.967,231.522-17.578,233.261-17.578Z" transform="matrix(1, -0.05, 0.05, 1, 107.68, 195.12)" fill="#dcc8fa"/></g></g><g transform="translate(606.306 135.089)"><g transform="translate(0)"><path d="M435.325,1014.182a9.84,9.84,0,0,1,2.332-5.23,9.537,9.537,0,0,1,4.646-3.084,1.264,1.264,0,0,1,1.254,2.071l-.059.065a18.421,18.421,0,0,0-2.532,3.387,21.932,21.932,0,0,0-1.593,3.642l-.033.092a2.062,2.062,0,0,1-2.631,1.259l-.024-.008A2.1,2.1,0,0,1,435.325,1014.182Z" transform="translate(-267.44 -981.076)" fill="#fff"/><path d="M600.04,972.048a9.836,9.836,0,0,1,4.952,2.876,9.537,9.537,0,0,1,2.571,4.949,1.264,1.264,0,0,1-2.193,1.026l-.058-.066a18.419,18.419,0,0,0-3.1-2.879,21.968,21.968,0,0,0-3.451-1.972l-.088-.043a2.063,2.063,0,0,1-.972-2.75l.011-.023A2.1,2.1,0,0,1,600.04,972.048Z" transform="translate(-339.967 -965.949)" fill="#fff"/><path d="M131.682,1034.381c-.545-8.046,5.354-16.218,14.251-16.82,7.273-.493,15.63,5.859,16.535,13.493l-4.392,2.863c-3.022-4.459-8.576-8.436-11.981-8.206-3.559.241-6.671,3.639-6.44,7.043.193,2.863,3.916,6.186,6.372,6.875,10.949,3.3,19.122,4.613,19.808,14.748a18.582,18.582,0,0,1-8.974,16.7,15.644,15.644,0,0,1-6.627,2c-3.481.235-15.874-2.579-16.461-11.244-.026-.386,6.4-3,7.378-3.53,2.335,3.495,3.458,7.46,9.416,7.057,4.874-.33,9.192-4.275,8.852-9.3-.272-4.024-4-5.093-7.006-5.9-8.472-2.3-20.108-6.566-20.679-15Z" transform="translate(-131.647 -986.311)" fill="#fff"/><path d="M198.063,1052.7c-.094-16.315-1.276-32.635-.318-49.488,9.6-1.738,18.144-2.938,26.772-4.067,0,0,.232-.016.243.139l1.282,7.453c-6.519,1.3-13.006,3.056-19.562,3.811-.538,3.534-.1,7.778-.287,11.833a18.224,18.224,0,0,0,4.684.3c2.94-.2,5.7-.775,8.639-.974.155-.01.155-.01.165.145l.408,6.035c.053.773-10.644,2.353-13.352,2.536l.153,13.747a27.506,27.506,0,0,1,3.843.517l.144-.165,14.181.517c.232-.016.458-.108.613-.119.31-.021,3.116.1,3.137.409l-.3,7.016a.152.152,0,0,1-.144.165c-10.6.718-19.829-.135-30.145.175Z" transform="translate(-161.038 -978.088)" fill="#fff"/><path d="M257.015,1032.505c-.466-6.886-.88-13-1.424-19.878,0-.077,0-.077.072-.083a.152.152,0,0,1,.144-.165l6.653-.45a.782.782,0,0,1,.093.227c.993,12.368,2.763,23.6,4.415,35.376.436,3,.955,6.076,1.325,9.237,3.4.859,6.81.7,10.3.624,2.4-.084,4.89-.1,7.232.054a.288.288,0,0,1,.171.222l.194,2.862c.089,1.316.271,2.858.3,4.487l.005.078c-4.8.247-11.874.26-17.538.41l-2.1-.09c-2.636.1-4.647.236-6.344.43l-.232.016-.006-.078C258.916,1054.84,257.681,1043.5,257.015,1032.505Z" transform="translate(-187.071 -983.804)" fill="#fff"/><path d="M321.226,1053.042c-.094-16.315-1.276-32.635-.319-49.488,9.6-1.738,18.144-2.939,26.773-4.067,0,0,.232-.016.242.139l1.282,7.453c-6.519,1.3-13.006,3.057-19.562,3.811-.538,3.534-.1,7.778-.287,11.833a18.234,18.234,0,0,0,4.684.305c2.94-.2,5.7-.775,8.639-.974.155-.011.155-.011.165.144l.409,6.035c.052.773-10.645,2.353-13.352,2.536l.153,13.747a27.387,27.387,0,0,1,3.843.516l.144-.165,14.181.517c.232-.015.459-.108.614-.119.31-.021,3.116.1,3.137.409l-.3,7.016a.152.152,0,0,1-.144.165c-10.6.718-19.829-.134-30.145.175Z" transform="translate(-216.114 -978.24)" fill="#fff"/><path d="M405.308,1010.9a18.565,18.565,0,0,0-8.548-1.131c-3.714.251-8.531,1.432-11.221,4.179a27.5,27.5,0,0,0-1.669,12.082,29.224,29.224,0,0,0,2.574,10.474c3.324,6.615,8.8,11.762,16.539,11.238a20.349,20.349,0,0,0,6.441-1.291l1.557,4.636c-3.517,2.025-7.672,3.783-11.618,4.05-15.164,1.027-22.4-14.029-23.276-26.948-.817-12.07,3.77-25.826,17.774-26.774a26.473,26.473,0,0,1,10.943,2.058Z" transform="translate(-240.915 -979.086)" fill="#fff"/><path d="M471.609,1014.291a18.567,18.567,0,0,0-8.548-1.131c-3.714.251-8.531,1.432-11.221,4.179a27.508,27.508,0,0,0-1.669,12.082,29.216,29.216,0,0,0,2.574,10.474c3.323,6.615,8.8,11.762,16.538,11.238a20.335,20.335,0,0,0,6.441-1.291l1.557,4.636c-3.516,2.024-7.672,3.783-11.618,4.05-15.165,1.027-22.4-14.028-23.276-26.949-.817-12.069,3.77-25.826,17.774-26.774a26.46,26.46,0,0,1,10.943,2.058Z" transform="translate(-270.563 -980.602)" fill="#fff"/><path d="M525.994,1049.693l-8.435-.595c-.309.021-.771-7.953-.865-9.346-.393-5.8-2.646-44.822-1.717-44.885l8.666-.586.165.144.437,13.339c.721,14.1,1.2,28.132,1.894,41.765C526.149,1049.682,526.071,1049.688,525.994,1049.693Z" transform="translate(-302.964 -975.912)" fill="#fff"/><path d="M547.139,987.778a19.741,19.741,0,0,1,15.254-8.883c.619-.042,1.243-.006,1.939-.053l.005.077c7.224,2.232,14.413,5.088,18.214,10.736,2.186,3.584,3.088,7.719,3.829,11.788,0,0,1.06,7.622-.4,13.551a25.7,25.7,0,0,1-1.451,3.829c-3.093,7.126-7.057,14-14.484,15.67a14.162,14.162,0,0,1-2.542.327,21.418,21.418,0,0,1-15.77-5.617,25.174,25.174,0,0,1-6.425-8.813c-1.467-2.155-2.205-7.312-2.622-11.171A29.7,29.7,0,0,1,547.139,987.778Z" transform="translate(-315.262 -969.008)" fill="#fff"/><path d="M640.141,1037.747c-.851.057-1.862.048-2.945.121a4.061,4.061,0,0,0-1,.146c.077-.005-.16-.067-.165-.144-1.142-16.866-2.429-34.734-3.07-52.256-.037-.541,4.233-1.763,4.852-1.8l.077-.006c8.074,11.346,16.72,23.118,29.933,35.748a36.919,36.919,0,0,0-.29-6.587c-.278-4.1-2.157-30.711-.924-30.871l7.334-.73c.155-.011.16.068.165.144.122,19.034,3.154,37.4,1.924,55.987,0,.077,0,.077-.15.087l-2.476.167a139.632,139.632,0,0,1-19.353-19.519c-4.235-5.154-6.938-10.645-11.771-15.448.414,11.863.715,23.19.287,34.1A3.375,3.375,0,0,1,640.141,1037.747Z" transform="translate(-355.823 -970.135)" fill="#fff"/><path d="M722.216,1045.627l-.01-.155c.985-4.963,1.842-9.528,2.756-14.41,2.473-12.836,4.92-26.059,7.765-39.154-.006-.077.149-.088.149-.088,2.156-.3,5.318-.671,7.794-.839a.076.076,0,0,1,.082.072c7.669,19.144,12.851,37.137,18.607,52.137l.01.155-.619.041c-.608.2-6.241.811-7.479.894-.077.006-.077.006-.16-.067l-5.687-17.414a41.924,41.924,0,0,0-5.354.13c-2.094.063-4.415.22-6.752.146-.864,3.323-1.4,6.857-2.094,10.4-.441,2.672-.949,5.505-1.55,8.11.005.077-.072.082-.149.088-.774.052-6.448.048-7.232-.055Z" transform="translate(-395.732 -974.437)" fill="#fff"/><path d="M828.659,1024.819c-.094-16.315-1.276-32.635-.319-49.488,9.6-1.739,18.144-2.939,26.773-4.067,0,0,.232-.016.243.139l1.282,7.453c-6.519,1.3-13.006,3.057-19.562,3.811-.538,3.534-.1,7.778-.287,11.833a18.23,18.23,0,0,0,4.684.3c2.94-.2,5.7-.775,8.64-.974.155-.01.155-.01.165.144l.408,6.035c.052.773-10.645,2.353-13.352,2.536l.153,13.747a27.433,27.433,0,0,1,3.843.516l.144-.165,14.181.517c.232-.016.458-.108.613-.119.31-.021,3.116.1,3.137.408l-.3,7.016a.152.152,0,0,1-.144.165c-10.6.718-19.829-.134-30.145.175Z" transform="translate(-443.026 -965.62)" fill="#fff"/><path d="M893.861,981.631c-.466-6.887-.88-13-1.424-19.878-.005-.078-.005-.078.072-.083a.152.152,0,0,1,.144-.165l6.653-.451a.787.787,0,0,1,.094.228c.993,12.368,2.763,23.6,4.415,35.376.436,3,.955,6.076,1.325,9.237,3.4.858,6.81.7,10.3.624,2.4-.084,4.89-.1,7.232.055a.287.287,0,0,1,.17.222l.194,2.863c.089,1.315.271,2.857.3,4.487l.005.078c-4.8.247-11.874.259-17.538.41l-2.1-.091c-2.636.1-4.647.237-6.344.43l-.232.016-.006-.078C895.762,1003.965,894.527,992.623,893.861,981.631Z" transform="translate(-471.855 -961.054)" fill="#fff"/></g><g transform="translate(36.724 82.771)"><path d="M555.762,1131.048a9.84,9.84,0,0,1,4.952,2.876,9.542,9.542,0,0,1,2.571,4.95,1.264,1.264,0,0,1-2.192,1.026l-.058-.066a18.425,18.425,0,0,0-3.1-2.879,22,22,0,0,0-3.451-1.972l-.088-.042a2.063,2.063,0,0,1-.972-2.75l.011-.023A2.1,2.1,0,0,1,555.762,1131.048Z" transform="translate(-356.891 -1119.821)" fill="#ffdc4e"/><path d="M305.047,1139.182a9.845,9.845,0,0,1,2.331-5.23,9.542,9.542,0,0,1,4.646-3.084,1.264,1.264,0,0,1,1.254,2.071l-.059.065a18.418,18.418,0,0,0-2.532,3.387,21.927,21.927,0,0,0-1.593,3.642l-.033.092a2.063,2.063,0,0,1-2.631,1.259l-.024-.008A2.1,2.1,0,0,1,305.047,1139.182Z" transform="translate(-245.907 -1119.744)" fill="#ffdc4e"/><path d="M206.879,1184.776l-8.39-1.051c-.31,0-.338-7.983-.357-9.38-.077-5.815-.21-44.9.721-44.912l8.685-.116.156.153-.287,13.342c-.045,14.116-.324,28.156-.374,41.807C207.034,1184.774,206.957,1184.775,206.879,1184.776Z" transform="translate(-198.077 -1119.069)" fill="#ffdc4e"/><path d="M229.178,1201.344c-.854.011-1.862-.053-2.948-.039a4.083,4.083,0,0,0-1.007.092c.077,0-.156-.077-.157-.153-.225-16.9-.541-34.815-.231-52.346-.007-.542,4.323-1.531,4.943-1.539h.078c7.447,11.767,15.441,23.991,27.95,37.319a36.9,36.9,0,0,0,.067-6.593c-.055-4.109-.487-30.782.752-30.876l7.363-.331c.155,0,.156.076.158.153-.911,19.013,1.119,37.521-1.116,56.009,0,.077,0,.077-.154.079l-2.481.033a139.655,139.655,0,0,1-18.266-20.541c-3.949-5.376-6.351-11.006-10.916-16.063-.23,11.868-.544,23.2-1.563,34.066A3.375,3.375,0,0,1,229.178,1201.344Z" transform="translate(-209.985 -1126.921)" fill="#ffdc4e"/><path d="M310.4,1156.21a76.993,76.993,0,0,1,1.54-12.506l.076-.157c.519-1.79,1.7-6.381,4.441-10.063l.151-.312c1.606-1.727,5.735-6.126,10.457-6.808l.31,0,.465-.006.233,0,1.008-.013a18.785,18.785,0,0,1,3.649.261h.077c2.952.349,7.158,1.767,9.132,4.377l.235.229c.159.308.472.459.632.844.157.153.234.152.236.231l1.971,2.455-5.283,5.111-2.435-2.294a8.47,8.47,0,0,0-6.161-2.555l-.155,0a8.927,8.927,0,0,0-3.633.9l-.538.317c-2.307,1.427-4.01,1.759-5.337,6.9l-.072.389c-.444,1.557-.814,2.958-1.106,4.279l-.369,1.4a34.82,34.82,0,0,0-.044,14.193v.077c.242.695.485,1.545.808,2.471.238.384,3.21,8.1,9.423,8.793l.155,0c.852-.089,4.247-1.375,5.237-2.707l-.127-9.538-5.428.072-.175-7.288,10.929-.456,3.5.5-.039,2.87a3.722,3.722,0,0,0,.012.931l0,.155-.075.233c-.057,1.552-.033,3.335.065,4.885.031,2.326-.282,7.914-1.254,10.719l-.072.389a.075.075,0,0,0-.077.078c-2.709,6.163-9.386,5.631-11.012,5.886l-.465.006a3.779,3.779,0,0,1-.93.09h-.077c-.077,0-.31,0-.386.083l-.388.006a20.187,20.187,0,0,1-4.583-.56l-.157-.153c-4.206-1.339-6.551-2.782-8.675-5l-.316-.383c-.553-.769-1.108-1.692-1.662-2.537l-.082-.31A45.143,45.143,0,0,1,310.4,1156.21Z" transform="translate(-248.302 -1117.735)" fill="#ffdc4e"/><path d="M418.849,1168.628a.076.076,0,0,0,.079.077c0,.232-.151.234-.151.234l-6.788,2.8c-6.545-8.133-11.48-17.684-18.188-26.358-.7,5.671-.949,27.776-1.569,27.784l-6.591.088c-.077,0-.156-.075-.158-.231-.055-4.11-.031-8.22.143-12.566l0-.387c-.059-4.42.349-8.768.29-13.188l.6-13.347.759-12.883a22.573,22.573,0,0,1,6.579-1.019c7.444-.1,16.868,2.878,16.982,11.485A13.491,13.491,0,0,1,402,1143.57l2.458,4.078A213.448,213.448,0,0,0,418.849,1168.628Z" transform="translate(-281.869 -1114.739)" fill="#ffdc4e"/><path d="M450.227,1177.945c.791-16.3.5-32.656,2.367-49.432,9.678-1.215,18.277-1.95,26.954-2.608,0,0,.233,0,.234.152l.876,7.512c-6.58.94-13.153,2.346-19.74,2.744-.729,3.5-.517,7.762-.929,11.8a18.216,18.216,0,0,0,4.661.559c2.947-.039,5.732-.465,8.679-.5.155,0,.155,0,.158.153l.08,6.048c.01.775-10.756,1.772-13.47,1.808l-.593,13.734a27.463,27.463,0,0,1,3.81.725l.153-.157,14.132,1.286c.233,0,.464-.083.619-.086.31,0,3.106.269,3.11.578l-.683,6.99a.151.151,0,0,1-.153.157c-10.623.142-19.792-1.21-30.11-1.461Z" transform="translate(-310.833 -1117.543)" fill="#ffdc4e"/><path d="M515.318,1186.92c-.227-5.426-1.349-31.468-1.532-45.27-.064-4.807-.03-8.064.195-8.688,16.981-.226,19.577,2.531,24.839,7.5l.159.308c3.611,3.287,6.066,12.948,6.2,22.8a24.235,24.235,0,0,1-5.145,15.5c-5.262,6.661-14.322,7.712-20.137,7.79Z" transform="translate(-339.242 -1120.693)" fill="#ffdc4e"/><path d="M589.471,1179.687l-8.39-1.052c-.31,0-.338-7.983-.357-9.38-.077-5.815-.21-44.9.721-44.912l8.684-.115.156.153L590,1137.723c-.045,14.116-.323,28.156-.374,41.806C589.627,1179.684,589.549,1179.685,589.471,1179.687Z" transform="translate(-369.164 -1116.793)" fill="#ffdc4e"/><path d="M606.187,1162.819c.791-16.3.5-32.656,2.367-49.432,9.678-1.215,18.276-1.95,26.953-2.608,0,0,.233,0,.234.152l.876,7.511c-6.58.94-13.153,2.346-19.74,2.744-.729,3.5-.517,7.762-.929,11.8a18.226,18.226,0,0,0,4.661.559c2.947-.039,5.732-.464,8.679-.5.155,0,.155,0,.158.153l.08,6.048c.01.775-10.756,1.772-13.47,1.808l-.593,13.735a27.34,27.34,0,0,1,3.81.724l.153-.158,14.132,1.286c.233,0,.464-.083.619-.086.31,0,3.106.269,3.11.579l-.683,6.989a.151.151,0,0,1-.153.157c-10.623.142-19.792-1.21-30.11-1.461Z" transform="translate(-380.575 -1110.779)" fill="#ffdc4e"/><path d="M673.705,1175.768c-.854.012-1.862-.053-2.948-.039a4.08,4.08,0,0,0-1.007.091c.078,0-.156-.076-.157-.153-.225-16.9-.541-34.814-.231-52.345-.007-.543,4.323-1.531,4.943-1.54h.077c7.446,11.767,15.441,23.992,27.95,37.319a36.9,36.9,0,0,0,.068-6.593c-.055-4.109-.487-30.782.752-30.875l7.363-.331c.155,0,.156.076.157.153-.91,19.013,1.12,37.521-1.116,56.008,0,.077,0,.077-.154.079l-2.481.033a139.587,139.587,0,0,1-18.266-20.541c-3.949-5.376-6.35-11.005-10.916-16.063-.23,11.868-.545,23.2-1.563,34.066A3.375,3.375,0,0,1,673.705,1175.768Z" transform="translate(-408.768 -1115.484)" fill="#ffdc4e"/><path d="M788.427,1130.813l.094,7.055-.153.158-14.788,1.825c-.01,5.041.228,46.3,0,46.3l-9.161-.809c-.155,0-.155,0-.159-.23-.2-15.042.537-29.555.338-44.519l-12.557.477-.157-.153-.563-7.36a.151.151,0,0,1,.153-.157l36.8-2.738.155,0Z" transform="translate(-445.473 -1119.668)" fill="#ffdc4e"/><path d="M825.665,1172.951c.791-16.3.5-32.656,2.367-49.432,9.678-1.214,18.277-1.95,26.954-2.608,0,0,.233,0,.234.152l.876,7.511c-6.58.941-13.153,2.347-19.74,2.744-.729,3.5-.517,7.762-.929,11.8a18.237,18.237,0,0,0,4.661.558c2.947-.039,5.732-.464,8.679-.5.155,0,.155,0,.158.153l.08,6.048c.01.774-10.756,1.772-13.47,1.808l-.593,13.735a27.321,27.321,0,0,1,3.81.724l.153-.157,14.132,1.285c.233,0,.464-.083.619-.085.31,0,3.106.269,3.11.578l-.683,6.989a.152.152,0,0,1-.153.158c-10.623.141-19.792-1.211-30.11-1.462Z" transform="translate(-478.72 -1115.31)" fill="#ffdc4e"/></g></g></g></svg>