<svg xmlns="http://www.w3.org/2000/svg" xmlns:xlink="http://www.w3.org/1999/xlink" width="57.703" height="57.703" viewBox="0 0 57.703 57.703"><defs><style>.a{fill:#fff;}.b{fill:url(#a);}</style><radialGradient id="a" cx="0.804" cy="0.172" r="0.775" gradientTransform="translate(-0.001 0)" gradientUnits="objectBoundingBox"><stop offset="0.516" stop-color="#3d6fa4"/><stop offset="1" stop-color="#325b86"/></radialGradient></defs><g transform="translate(0 0)"><ellipse class="a" cx="24.496" cy="24.496" rx="24.496" ry="24.496" transform="matrix(0.198, -0.98, 0.98, 0.198, 0, 48.027)"/><path class="b" d="M49.03,26.161a22.615,22.615,0,0,1-45.23,0,23.352,23.352,0,0,1,1.973-9.312A22.615,22.615,0,0,1,49.03,26.161Z" transform="translate(2.302 2.436)"/><path class="a" d="M43.8,27.329c.046-1.927,1.7-1.606,1.7-1.606l5.229.138.138-5.78L43.017,19.9c-5.918-.138-6.239,6.33-6.239,6.33l-.092,4.45h0l-3.349-.046L33.2,35.953l3.349.092-.413,16.285,7.064.092.413-16.285,5.963.138,1.055-5.413-6.881-.138v-.046C43.751,30.723,43.751,29.255,43.8,27.329Z" transform="translate(-13.612 -6.439)"/></g></svg>