<svg xmlns="http://www.w3.org/2000/svg" xmlns:xlink="http://www.w3.org/1999/xlink" width="57.755" height="57.755" viewBox="0 0 57.755 57.755"><defs><style>.a{fill:#fff;}.b{fill:url(#a);}.c{clip-path:url(#b);}.d,.j{clip-path:url(#c);}.e{clip-path:url(#f);}.f{fill:none;}.g{clip-path:url(#j);}.h{clip-path:url(#l);}.i{clip-path:url(#o);}.j{opacity:0.45;}.k{clip-path:url(#r);}</style><radialGradient id="a" cx="0.981" cy="0.345" r="0.775" gradientTransform="translate(-0.001 0)" gradientUnits="objectBoundingBox"><stop offset="0.516" stop-color="#7a0f72"/><stop offset="1" stop-color="#4e1a75"/></radialGradient><clipPath id="b"><path d="M151.9,153.453a4.5,4.5,0,1,1,4.5,4.5,4.507,4.507,0,0,1-4.5-4.5m-2.434,0a6.887,6.887,0,1,0,6.887-6.887,6.878,6.878,0,0,0-6.887,6.887m12.489-7.209a1.607,1.607,0,1,0,1.607-1.607,1.627,1.627,0,0,0-1.607,1.607M150.935,164.38a6.822,6.822,0,0,1-2.479-.459,4.357,4.357,0,0,1-1.561-1.01,3.994,3.994,0,0,1-1.01-1.561,7.065,7.065,0,0,1-.459-2.479c-.046-1.423-.092-1.837-.092-5.418s0-3.995.092-5.418a6.821,6.821,0,0,1,.459-2.479,4.357,4.357,0,0,1,1.01-1.561,3.993,3.993,0,0,1,1.561-1.01,7.063,7.063,0,0,1,2.479-.459c1.423-.046,1.837-.092,5.418-.092s3.995,0,5.418.092a6.821,6.821,0,0,1,2.479.459,4.357,4.357,0,0,1,1.561,1.01,3.994,3.994,0,0,1,1.01,1.561,7.065,7.065,0,0,1,.459,2.479c.046,1.423.092,1.837.092,5.418s0,3.995-.092,5.418a6.822,6.822,0,0,1-.459,2.479,4.356,4.356,0,0,1-1.01,1.561,3.994,3.994,0,0,1-1.561,1.01,7.065,7.065,0,0,1-2.479.459c-1.423.046-1.837.092-5.418.092-3.535,0-3.995-.046-5.418-.092m-.092-24.289a8.7,8.7,0,0,0-3.26.643A5.98,5.98,0,0,0,145.2,142.3a7.154,7.154,0,0,0-1.561,2.388,11.016,11.016,0,0,0-.643,3.26c-.046,1.423-.092,1.883-.092,5.556s0,4.086.092,5.556a8.7,8.7,0,0,0,.643,3.26A5.98,5.98,0,0,0,145.2,164.7a7.156,7.156,0,0,0,2.388,1.561,11.016,11.016,0,0,0,3.26.643c1.423.046,1.882.092,5.556.092,3.627,0,4.086,0,5.556-.092a8.7,8.7,0,0,0,3.26-.643A5.982,5.982,0,0,0,167.6,164.7a7.154,7.154,0,0,0,1.561-2.388,11.013,11.013,0,0,0,.643-3.26c.046-1.423.092-1.882.092-5.556s0-4.086-.092-5.556a8.7,8.7,0,0,0-.643-3.26A5.98,5.98,0,0,0,167.6,142.3a7.154,7.154,0,0,0-2.388-1.561,11.015,11.015,0,0,0-3.26-.643c-1.423-.046-1.883-.092-5.556-.092s-4.132,0-5.556.092" transform="translate(-142.9 -140)"/></clipPath><clipPath id="c"><rect width="156.431" height="156.338"/></clipPath><clipPath id="f"><rect width="132.831" height="116.944"/></clipPath><clipPath id="j"><rect width="87.329" height="87.329"/></clipPath><clipPath id="l"><rect width="70.525" height="70.524"/></clipPath><clipPath id="o"><rect width="69.606" height="67.494"/></clipPath><clipPath id="r"><rect width="124.612" height="64.142"/></clipPath></defs><g transform="translate(0 0)"><ellipse class="a" cx="24.518" cy="24.518" rx="24.518" ry="24.518" transform="matrix(0.198, -0.98, 0.98, 0.198, 0, 48.07)"/><path class="b" d="M167.872,142.582a22.636,22.636,0,0,1-45.272,0,23.374,23.374,0,0,1,1.974-9.321,22.636,22.636,0,0,1,43.3,9.321Z" transform="translate(-116.514 -113.981)"/><g transform="translate(15.407 15.148)"><path class="a" d="M151.9,153.453a4.5,4.5,0,1,1,4.5,4.5,4.507,4.507,0,0,1-4.5-4.5m-2.434,0a6.887,6.887,0,1,0,6.887-6.887,6.878,6.878,0,0,0-6.887,6.887m12.489-7.209a1.607,1.607,0,1,0,1.607-1.607,1.627,1.627,0,0,0-1.607,1.607M150.935,164.38a6.822,6.822,0,0,1-2.479-.459,4.357,4.357,0,0,1-1.561-1.01,3.994,3.994,0,0,1-1.01-1.561,7.065,7.065,0,0,1-.459-2.479c-.046-1.423-.092-1.837-.092-5.418s0-3.995.092-5.418a6.821,6.821,0,0,1,.459-2.479,4.357,4.357,0,0,1,1.01-1.561,3.993,3.993,0,0,1,1.561-1.01,7.063,7.063,0,0,1,2.479-.459c1.423-.046,1.837-.092,5.418-.092s3.995,0,5.418.092a6.821,6.821,0,0,1,2.479.459,4.357,4.357,0,0,1,1.561,1.01,3.994,3.994,0,0,1,1.01,1.561,7.065,7.065,0,0,1,.459,2.479c.046,1.423.092,1.837.092,5.418s0,3.995-.092,5.418a6.822,6.822,0,0,1-.459,2.479,4.356,4.356,0,0,1-1.01,1.561,3.994,3.994,0,0,1-1.561,1.01,7.065,7.065,0,0,1-2.479.459c-1.423.046-1.837.092-5.418.092-3.535,0-3.995-.046-5.418-.092m-.092-24.289a8.7,8.7,0,0,0-3.26.643A5.98,5.98,0,0,0,145.2,142.3a7.154,7.154,0,0,0-1.561,2.388,11.016,11.016,0,0,0-.643,3.26c-.046,1.423-.092,1.883-.092,5.556s0,4.086.092,5.556a8.7,8.7,0,0,0,.643,3.26A5.98,5.98,0,0,0,145.2,164.7a7.156,7.156,0,0,0,2.388,1.561,11.016,11.016,0,0,0,3.26.643c1.423.046,1.882.092,5.556.092,3.627,0,4.086,0,5.556-.092a8.7,8.7,0,0,0,3.26-.643A5.982,5.982,0,0,0,167.6,164.7a7.154,7.154,0,0,0,1.561-2.388,11.013,11.013,0,0,0,.643-3.26c.046-1.423.092-1.882.092-5.556s0-4.086-.092-5.556a8.7,8.7,0,0,0-.643-3.26A5.98,5.98,0,0,0,167.6,142.3a7.154,7.154,0,0,0-2.388-1.561,11.015,11.015,0,0,0-3.26-.643c-1.423-.046-1.883-.092-5.556-.092s-4.132,0-5.556.092" transform="translate(-142.9 -140)"/><g class="c" transform="translate(0 0)"><g transform="translate(-65.612 -64.28)"><rect class="a" width="156.431" height="156.338"/><g class="d"><rect class="a" width="156.431" height="156.338"/><g class="d"><rect class="a" width="156.339" height="156.338"/></g></g><g class="d"><rect class="a" width="132.831" height="116.944" transform="translate(23.6 25.666)"/><g class="e" transform="translate(23.6 25.666)"><rect class="a" width="132.831" height="116.944"/><g class="e"><rect class="f" width="132.839" height="116.959" transform="translate(-0.009 -0.014)"/></g></g></g><g class="d"><rect class="a" width="127.964" height="123.372" transform="translate(10.147 32.048)"/></g><g class="d"><rect class="a" width="87.329" height="87.329" transform="translate(25.712 55.556)"/><g class="g" transform="translate(25.712 55.556)"><rect class="a" width="87.329" height="87.329"/></g></g><g class="d"><rect class="a" width="70.525" height="70.524" transform="translate(37.925 69.927)"/><g class="h" transform="translate(37.925 69.927)"><rect class="a" width="70.525" height="70.524"/><g class="h"><rect class="f" width="70.542" height="70.542" transform="translate(0.018 0.004)"/></g></g></g><g class="d"><rect class="a" width="69.606" height="67.494" transform="translate(33.38 74.519)"/><g class="i" transform="translate(33.38 74.519)"><rect class="f" width="69.626" height="67.488" transform="translate(-0.017 -0.007)"/></g></g><g class="d"><rect class="a" width="156.431" height="156.338"/><g class="j"><g transform="translate(2.204 17.723)"><rect class="a" width="124.612" height="64.142"/><g class="k"><rect class="a" width="124.612" height="64.142"/></g></g></g></g></g></g></g></g></svg>