<svg xmlns="http://www.w3.org/2000/svg" width="59.501" height="59.501" viewBox="0 0 59.501 59.501">
  <g id="Grupo_4146" data-name="Grupo 4146" transform="translate(-1491 -13.99)">
    <path id="shape-circle-04" d="M64.854,28.075c-6.506-.2-9.3,1.106-13.968,3.546-4.492,2.35-6.931,3.8-9.9,7.542a1.956,1.956,0,0,1-.311-.1c-.154-.065-.37-.4-1.075.474S34.607,48.283,33.8,52.1s-.322,8.617,1.447,14.413,2,9,7.719,14.388c2.543,2.686,5.636,3.569,8.551,4.589.372.13.665.8,1.111.948,2.322.756,7.321,1.122,10.7,1.122,8.049,0,16.223-2.272,21.369-7.458s7.918-13.281,8.2-23.655c.263-9.6-2.031-13.943-7-18.592-.354-.332-.772-1.63-1.205-2A33.568,33.568,0,0,0,64.854,28.075Z" transform="translate(1457.575 -14.064)" fill="#613393"/>
    <g id="Grupo_4145" data-name="Grupo 4145" transform="translate(1503.795 26.785)">
      <path id="Trazado_17156" data-name="Trazado 17156" d="M0,0H33.911V33.911H0Z" fill="none"/>
      <path id="Trazado_17157" data-name="Trazado 17157" d="M15.717,32.7,6.725,23.709a12.717,12.717,0,1,1,17.984,0Zm6.994-10.99a9.891,9.891,0,1,0-13.988,0l6.994,6.994Zm-6.994-4.168a2.826,2.826,0,1,1,2.826-2.826A2.826,2.826,0,0,1,15.717,17.543Z" transform="translate(1.239 0.826)" fill="#fff"/>
    </g>
  </g>
</svg>
