<svg xmlns="http://www.w3.org/2000/svg" xmlns:xlink="http://www.w3.org/1999/xlink" width="57.578" height="57.577" viewBox="0 0 57.578 57.577"><defs><radialGradient id="a" cx="0.803" cy="0.172" r="0.775" gradientTransform="translate(-0.001 0)" gradientUnits="objectBoundingBox"><stop offset="0.552" stop-color="#a32108"/><stop offset="0.657" stop-color="#9d2009"/></radialGradient></defs><g transform="translate(0 0)"><ellipse cx="24.443" cy="24.443" rx="24.443" ry="24.443" transform="matrix(0.198, -0.98, 0.98, 0.198, 0, 47.923)" fill="#fff"/><path d="M48.932,26.112a22.566,22.566,0,0,1-45.132,0A23.3,23.3,0,0,1,5.768,16.82a22.566,22.566,0,0,1,43.164,9.292Z" transform="translate(2.289 2.423)" fill="url(#a)"/><g transform="translate(13.55 10.408)"><path d="M20.1,59.184V54.378c0-.092.046-.229.046-.32.046-1.007.137-1.968.137-2.975a4.044,4.044,0,0,1,3.57-3.891c1.465-.137,2.975-.183,4.44-.183,6.134-.137,12.221-.092,18.355.137A3.9,3.9,0,0,1,50.4,50.67q.137,1.442.137,2.884A77.912,77.912,0,0,1,50.4,62.8a3.6,3.6,0,0,1-.366,1.373,4.257,4.257,0,0,1-3.753,2.334c-1.511.092-3.067.137-4.577.137-5.493.092-11.031.092-16.524-.092a7.578,7.578,0,0,1-1.465-.137,4.021,4.021,0,0,1-3.341-3.479c-.092-.961-.092-1.922-.183-2.884A6.255,6.255,0,0,1,20.1,59.184Zm15.883-9.475V63.441H37.86a3.464,3.464,0,0,1,.046-.687,4.126,4.126,0,0,1,.458.412,1.777,1.777,0,0,0,3.021-1.19,1.557,1.557,0,0,0,.046-.458v-5.9a4.253,4.253,0,0,0-.229-1.327,1.578,1.578,0,0,0-1.739-1.053,1.98,1.98,0,0,0-1.19.6l-.32.32V49.755C37.173,49.709,36.578,49.709,35.983,49.709ZM48.3,58.635a19.983,19.983,0,0,0-.092-3.708,2.329,2.329,0,0,0-1.053-1.465A2.856,2.856,0,0,0,42.8,55.705a53.149,53.149,0,0,0,0,5.4,2.758,2.758,0,0,0,4.074,2.426,2.214,2.214,0,0,0,.961-.87,5.146,5.146,0,0,0,.458-2.746H46.374v.549a7.486,7.486,0,0,1-.092,1.007.55.55,0,0,1-.549.5c-.549.092-.961-.137-.961-.732-.046-.824-.046-1.694-.046-2.518l.092-.092Zm-19.545-5.31v8.468a5.044,5.044,0,0,0,.092.824,1.183,1.183,0,0,0,1.511.961,2.844,2.844,0,0,0,1.556-.915l.32-.32v1.1h1.831V53.325H32.184v7.049a1.331,1.331,0,0,1-.549,1.144.721.721,0,0,1-.778.183c-.275-.092-.275-.366-.275-.641V53.325ZM24.4,63.441h2.151V51.677h2.151V49.709h-6.5v1.968h2.2Z" transform="translate(-20.1 -31.537)" fill="#fff"/><path d="M38.6,13.3c-.229.824-.458,1.648-.732,2.472-.549,1.785-1.1,3.525-1.6,5.31a2.68,2.68,0,0,0-.092.6v5.4H34.072V22a4.006,4.006,0,0,0-.092-.732c-.778-2.518-1.511-5.035-2.289-7.553-.046-.137-.046-.229-.092-.366h2.106c.458,1.785.87,3.616,1.327,5.4,0,.046.046.046.137.137.458-1.877.915-3.708,1.327-5.539C37.184,13.3,37.917,13.3,38.6,13.3Z" transform="translate(-26.336 -13.3)" fill="#fff"/><path d="M46.8,25.916v-2.7a2.371,2.371,0,0,1,2.151-2.472,3.972,3.972,0,0,1,1.648.092,2.391,2.391,0,0,1,1.694,2.334c.046,1.831.046,3.708,0,5.539a2.376,2.376,0,0,1-1.648,2.426A2.728,2.728,0,0,1,46.8,28.662V25.916Zm1.922,0h0v2.838a.721.721,0,0,0,.778.778q.755,0,.824-.824V23.215a.715.715,0,0,0-.687-.824.788.788,0,0,0-.915.87Z" transform="translate(-34.579 -17.311)" fill="#fff"/><path d="M62.264,21.146h1.877v7.736c0,.229,0,.549.275.641a.721.721,0,0,0,.778-.183,1.292,1.292,0,0,0,.6-1.19c-.046-2.2,0-4.394,0-6.637V21.1h1.877V31.216H65.789V30.163l-.458.458a2.853,2.853,0,0,1-1.465.778,1.188,1.188,0,0,1-1.465-.961,5.047,5.047,0,0,1-.092-.824V21.375C62.219,21.329,62.219,21.283,62.264,21.146Z" transform="translate(-42.948 -17.53)" fill="#fff"/><path d="M58.9,67.737V64.854c0-.366.183-.549.641-.687a.665.665,0,0,1,.824.366,1.836,1.836,0,0,1,.137.687v5.4c-.046.732-.6.961-1.19.6a.68.68,0,0,1-.366-.641C58.9,69.568,58.9,68.653,58.9,67.737Z" transform="translate(-41.14 -40.869)" fill="#fff"/><path d="M73.8,66.4c.046-.5.046-1.007.092-1.51.046-.458.32-.641.778-.687.458,0,.732.183.778.641.046.5,0,1.007,0,1.511C74.944,66.4,74.441,66.4,73.8,66.4Z" transform="translate(-49.22 -40.902)" fill="#fff"/></g></g></svg>